<?xml version="1.0" encoding="UTF-8"?>
<svg width="149px" height="110px" viewBox="0 0 149 110" version="1.1" xmlns="http://www.w3.org/2000/svg" xmlns:xlink="http://www.w3.org/1999/xlink">
    <!-- Generator: Sketch 59 (86127) - https://sketch.com -->
    <title>undraw_forgot_password_gi2d</title>
    <desc>Created with Sketch.</desc>
    <defs>
        <linearGradient x1="49.9987036%" y1="99.9974619%" x2="49.9987036%" y2="-0.00636991182%" id="linearGradient-1">
            <stop stop-color="#808080" stop-opacity="0.25" offset="0%"></stop>
            <stop stop-color="#808080" stop-opacity="0.12" offset="54%"></stop>
            <stop stop-color="#808080" stop-opacity="0.1" offset="100%"></stop>
        </linearGradient>
    </defs>
    <g id="页面-1" stroke="none" stroke-width="1" fill="none" fill-rule="evenodd">
        <g id="0-1登录" transform="translate(-301.000000, -189.000000)">
            <g id="undraw_forgot_password_gi2d" transform="translate(301.000000, 189.000000)">
                <g id="编组" opacity="0.1" transform="translate(114.000000, 64.000000)">
                    <path d="M5.63784232,13.1901186 C5.63784232,13.1901186 -4.76149378,11.8233992 2.99419087,28.8583399 C2.99419087,28.8583399 10.0620747,25.7929644 10.3435685,18.8787352 C10.4620377,16.0937131 8.50377029,13.6591151 5.78522822,13.2116206 L5.63784232,13.1901186 Z" id="路径" fill="#FFFFFF" fill-rule="nonzero"></path>
                    <path d="M5.79053942,13.164585 C5.79053942,13.164585 8.14473029,22.663083 3.00215768,28.8596838" id="路径" stroke="#535461"></path>
                    <path d="M2.86141079,29.7372332 C2.86141079,29.7372332 6.60580913,20.3973123 13.5980083,16.9328063 C16.5422247,15.4986076 18.9469659,13.1359669 20.4507884,10.2 C21.1535404,8.80160121 21.7282246,7.34097717 22.1676349,5.83644269" id="路径" stroke="#535461" stroke-width="2"></path>
                    <path d="M26.5613278,3.6284585 C25.8323651,4.55573123 22.060083,5.91304348 22.060083,5.91304348 C22.060083,5.91304348 22.5141909,1.88142292 23.2431535,0.960869565 C23.696273,0.306057651 24.4709238,-0.0402658728 25.2543431,0.0617260659 C26.0377624,0.163718005 26.7005982,0.697185308 26.9752326,1.44674217 C27.249867,2.19629904 27.0909545,3.0381846 26.5626556,3.63249012 L26.5613278,3.6284585 Z" id="路径" fill="#FFFFFF" fill-rule="nonzero"></path>
                    <path d="M25.266722,10.9727273 C24.1566805,11.3503557 20.2635685,10.4109881 20.2635685,10.4109881 C20.2635685,10.4109881 22.8063071,7.28245059 23.9163485,6.90482213 C24.6491025,6.60087484 25.4880684,6.73463986 26.0930068,7.25186931 C26.6979451,7.76909875 26.9684355,8.58393193 26.7947815,9.36591634 C26.6211275,10.1479007 26.0321559,10.7672261 25.266722,10.9727273 Z" id="路径" fill="#FFFFFF" fill-rule="nonzero"></path>
                    <path d="M18.2479668,19.6554941 C17.1020747,19.4149407 14.2087967,16.6143083 14.2087967,16.6143083 C14.2087967,16.6143083 17.9638174,15.2126482 19.1110373,15.4532016 C20.1882551,15.757066 20.8483127,16.8540841 20.6206556,17.9621925 C20.3929986,19.0703009 19.3555764,19.8100837 18.2479668,19.6541502 L18.2479668,19.6554941 Z" id="路径" fill="#FFFFFF" fill-rule="nonzero"></path>
                    <path d="M11.4761826,25.0148617 C10.30639,24.9732016 6.98688797,22.7087747 6.98688797,22.7087747 C6.98688797,22.7087747 10.4551037,20.6822134 11.6248963,20.7252174 C12.7378141,20.8398329 13.5722441,21.8082828 13.5330046,22.9397918 C13.4937651,24.0713009 12.5943015,24.9781567 11.4761826,25.0135178 L11.4761826,25.0148617 Z" id="路径" fill="#FFFFFF" fill-rule="nonzero"></path>
                    <path d="M16.6386722,7.78102767 C16.7887137,8.956917 19.3234855,12.09083 19.3234855,12.09083 C19.3234855,12.09083 20.9925311,8.4086166 20.8438174,7.23272727 C20.7941109,6.43255722 20.3086694,5.7268362 19.5844716,5.40192592 C18.8602737,5.07701564 18.0176179,5.18688782 17.3984302,5.68695944 C16.7792424,6.18703106 16.4863777,6.99423385 16.6386722,7.78102767 L16.6386722,7.78102767 Z" id="路径" fill="#FFFFFF" fill-rule="nonzero"></path>
                    <path d="M8.7966805,14.1563636 C9.286639,15.2314625 12.6326971,17.4555731 12.6326971,17.4555731 C12.6326971,17.4555731 13.1372614,13.4360474 12.6473029,12.3609486 C12.3628039,11.613196 11.691094,11.0875815 10.9044563,10.9971673 C10.1178186,10.9067531 9.34676257,11.2665395 8.90384198,11.9306843 C8.46092139,12.5948291 8.41962032,13.4531453 8.7966805,14.1577075 L8.7966805,14.1563636 Z" id="路径" fill="#FFFFFF" fill-rule="nonzero"></path>
                    <path d="M2.01427386,21.4052174 C2.31701245,22.5501976 5.24481328,25.3132016 5.24481328,25.3132016 C5.24481328,25.3132016 6.41327801,21.4388142 6.10921162,20.293834 C5.95511661,19.506865 5.38095384,18.8721748 4.61996585,18.647594 C3.85897785,18.4230133 3.03774724,18.6458987 2.4898831,19.2257075 C1.94201895,19.8055162 1.7586529,20.6458029 2.01427386,21.4052174 Z" id="路径" fill="#FFFFFF" fill-rule="nonzero"></path>
                    <path d="M26.5613278,3.6284585 C25.8323651,4.55573123 22.060083,5.91304348 22.060083,5.91304348 C22.060083,5.91304348 22.5141909,1.88142292 23.2431535,0.960869565 C23.696273,0.306057651 24.4709238,-0.0402658728 25.2543431,0.0617260659 C26.0377624,0.163718005 26.7005982,0.697185308 26.9752326,1.44674217 C27.249867,2.19629904 27.0909545,3.0381846 26.5626556,3.63249012 L26.5613278,3.6284585 Z" id="路径" fill="#000000" fill-rule="nonzero" opacity="0.25"></path>
                    <path d="M25.266722,10.9727273 C24.1566805,11.3503557 20.2635685,10.4109881 20.2635685,10.4109881 C20.2635685,10.4109881 22.8063071,7.28245059 23.9163485,6.90482213 C24.6491025,6.60087484 25.4880684,6.73463986 26.0930068,7.25186931 C26.6979451,7.76909875 26.9684355,8.58393193 26.7947815,9.36591634 C26.6211275,10.1479007 26.0321559,10.7672261 25.266722,10.9727273 Z" id="路径" fill="#000000" fill-rule="nonzero" opacity="0.25"></path>
                    <path d="M18.2479668,19.6554941 C17.1020747,19.4149407 14.2087967,16.6143083 14.2087967,16.6143083 C14.2087967,16.6143083 17.9638174,15.2126482 19.1110373,15.4532016 C20.1882551,15.757066 20.8483127,16.8540841 20.6206556,17.9621925 C20.3929986,19.0703009 19.3555764,19.8100837 18.2479668,19.6541502 L18.2479668,19.6554941 Z" id="路径" fill="#000000" fill-rule="nonzero" opacity="0.25"></path>
                    <path d="M11.4761826,25.0148617 C10.30639,24.9732016 6.98688797,22.7087747 6.98688797,22.7087747 C6.98688797,22.7087747 10.4551037,20.6822134 11.6248963,20.7252174 C12.7378141,20.8398329 13.5722441,21.8082828 13.5330046,22.9397918 C13.4937651,24.0713009 12.5943015,24.9781567 11.4761826,25.0135178 L11.4761826,25.0148617 Z" id="路径" fill="#000000" fill-rule="nonzero" opacity="0.25"></path>
                    <path d="M16.6386722,7.78102767 C16.7887137,8.956917 19.3234855,12.09083 19.3234855,12.09083 C19.3234855,12.09083 20.9925311,8.4086166 20.8438174,7.23272727 C20.7941109,6.43255722 20.3086694,5.7268362 19.5844716,5.40192592 C18.8602737,5.07701564 18.0176179,5.18688782 17.3984302,5.68695944 C16.7792424,6.18703106 16.4863777,6.99423385 16.6386722,7.78102767 L16.6386722,7.78102767 Z" id="路径" fill="#000000" fill-rule="nonzero" opacity="0.25"></path>
                    <path d="M8.7966805,14.1563636 C9.286639,15.2314625 12.6326971,17.4555731 12.6326971,17.4555731 C12.6326971,17.4555731 13.1372614,13.4360474 12.6473029,12.3609486 C12.3628039,11.613196 11.691094,11.0875815 10.9044563,10.9971673 C10.1178186,10.9067531 9.34676257,11.2665395 8.90384198,11.9306843 C8.46092139,12.5948291 8.41962032,13.4531453 8.7966805,14.1577075 L8.7966805,14.1563636 Z" id="路径" fill="#000000" fill-rule="nonzero" opacity="0.25"></path>
                    <path d="M2.01427386,21.4052174 C2.31701245,22.5501976 5.24481328,25.3132016 5.24481328,25.3132016 C5.24481328,25.3132016 6.41327801,21.4388142 6.10921162,20.293834 C5.95511661,19.506865 5.38095384,18.8721748 4.61996585,18.647594 C3.85897785,18.4230133 3.03774724,18.6458987 2.4898831,19.2257075 C1.94201895,19.8055162 1.7586529,20.6458029 2.01427386,21.4052174 Z" id="路径" fill="#000000" fill-rule="nonzero" opacity="0.25"></path>
                    <path d="M7.84863071,33.9865613 C7.84863071,33.9865613 11.593029,24.6466403 18.5852282,21.1821344 C21.5281676,19.7468777 23.9314597,17.3838159 25.4340249,14.4479842 C26.136777,13.0495854 26.7114611,11.5889614 27.1508714,10.0844269" id="路径" stroke="#535461" stroke-width="2"></path>
                    <path d="M31.5419087,7.87509881 C30.8129461,8.80237154 27.0406639,10.1596838 27.0406639,10.1596838 C27.0406639,10.1596838 27.4947718,6.12806324 28.2237344,5.20750988 C28.9749447,4.36244211 30.2462777,4.25517646 31.1253687,4.9626915 C32.0044597,5.67020653 32.1875459,6.9480261 31.5432365,7.87913043 L31.5419087,7.87509881 Z" id="路径" fill="#FFFFFF" fill-rule="nonzero"></path>
                    <path d="M30.2499585,15.2193676 C29.139917,15.596996 25.246805,14.6576285 25.246805,14.6576285 C25.246805,14.6576285 27.7895436,11.5290909 28.8995851,11.1514625 C29.9820318,10.8608507 31.1014937,11.4705635 31.4581559,12.5449832 C31.8148181,13.6194029 31.2861905,14.7895372 30.2499585,15.2193676 Z" id="路径" fill="#FFFFFF" fill-rule="nonzero"></path>
                    <path d="M23.2312033,23.9075099 C22.0853112,23.6669565 19.1920332,20.8663241 19.1920332,20.8663241 C19.1920332,20.8663241 22.9470539,19.464664 24.0942739,19.7052174 C25.1714916,20.0090818 25.8315492,21.1060999 25.6038922,22.2142083 C25.3762351,23.3223167 24.3388129,24.0620995 23.2312033,23.906166 L23.2312033,23.9075099 Z" id="路径" fill="#FFFFFF" fill-rule="nonzero"></path>
                    <path d="M16.4580913,29.2601581 C15.2882988,29.218498 11.9687967,26.9540711 11.9687967,26.9540711 C11.9687967,26.9540711 15.4370124,24.9301976 16.606805,24.9718577 C17.7197228,25.0864732 18.5541528,26.0549231 18.5149133,27.1864322 C18.4756738,28.3179412 17.5762102,29.224797 16.4580913,29.2601581 L16.4580913,29.2601581 Z" id="路径" fill="#FFFFFF" fill-rule="nonzero"></path>
                    <path d="M21.6205809,12.0330435 C21.7706224,13.2089328 24.3053942,16.3428458 24.3053942,16.3428458 C24.3053942,16.3428458 25.9744398,12.6606324 25.8257261,11.4847431 C25.7760196,10.684573 25.2905781,9.97885201 24.5663803,9.65394173 C23.8421824,9.32903145 22.9995267,9.43890363 22.3803389,9.93897525 C21.7611512,10.4390469 21.4682864,11.2462497 21.6205809,12.0330435 L21.6205809,12.0330435 Z" id="路径" fill="#FFFFFF" fill-rule="nonzero"></path>
                    <path d="M13.779917,18.3976285 C14.2698755,19.4727273 17.6159336,21.6968379 17.6159336,21.6968379 C17.6159336,21.6968379 18.1204979,17.6773123 17.6305394,16.6022134 C17.0970097,15.6052774 15.8903192,15.198928 14.8730055,15.673622 C13.8556917,16.148316 13.3773587,17.3409231 13.779917,18.3989723 L13.779917,18.3976285 Z" id="路径" fill="#FFFFFF" fill-rule="nonzero"></path>
                    <path d="M6.99751037,25.6545455 C7.30024896,26.7995257 10.2280498,29.5625296 10.2280498,29.5625296 C10.2280498,29.5625296 11.3965145,25.6881423 11.0924481,24.5431621 C10.731712,23.471465 9.6116733,22.8664857 8.53120609,23.1597291 C7.45073887,23.4529724 6.7800492,24.543963 6.99751037,25.6545455 L6.99751037,25.6545455 Z" id="路径" fill="#FFFFFF" fill-rule="nonzero"></path>
                </g>
                <path d="M3,58 C5.35561632,68.0892987 10.3423041,76.8106951 18.2233062,81.0381384 C34.6013528,89.8234428 71.5381223,85.2927766 99.1053465,80.0863178 C113.034084,77.465225 125.677434,70.2235126 135,59.5269922 L3,58 Z" id="路径" fill="#FFFFFF" fill-rule="nonzero" opacity="0.1"></path>
                <path d="M146.381275,11.2264324 L131.295522,11.2264324 C130.57537,11.2264324 129.991572,10.6265554 129.991572,9.88656967 C129.991572,9.14658394 130.57537,8.54670698 131.295522,8.54670698 L133.90342,8.54670698 C133.183269,8.54670698 132.599471,7.94683002 132.599471,7.20684429 C132.599471,6.46685856 133.183269,5.8669816 133.90342,5.8669816 L132.041216,5.8669816 C131.321064,5.8669816 130.737266,5.26710465 130.737266,4.52711892 C130.737266,3.78713319 131.321064,3.18725623 132.041216,3.18725623 L139.914985,3.18725623 C138.167815,2.35288403 136.125615,1.75908915 133.773499,1.4475902 C112.304011,-1.38649404 104.638656,0.488062168 101.93467,2.42102443 C98.5986713,4.79898519 94.8769685,6.54838557 90.8994833,7.39110149 C77.6515748,10.1959827 52.8785679,13.5751901 30.4251969,6.30641763 C19.265502,2.69080477 10.9708415,8.79840926 6,19 L149,19 C148.813238,16.0351975 148.254306,13.2984566 147.228469,10.9010272 C146.99324,11.1104745 146.692531,11.225976 146.381275,11.2264324 Z" id="路径" fill="#FFFFFF" fill-rule="nonzero" opacity="0.1"></path>
                <path d="M0.325366385,38 C-0.255573981,44.0064748 -0.0579223238,50.0653864 0.913163993,56.0186384 L133.768998,61 C137.467286,56.6381458 140.572495,51.7829451 143,46.5667171 L0.325366385,38 Z M52.871486,50.8535552 L50.255583,50.8535552 C50.9779447,50.8535552 51.5635345,51.4539542 51.5635345,52.194584 C51.5635345,52.9352137 50.9779447,53.5356127 50.255583,53.5356127 L35.1235278,53.5356127 C34.4011661,53.5356127 33.8155763,52.9352137 33.8155763,52.194584 C33.8155763,51.4539542 34.4011661,50.8535552 35.1235278,50.8535552 L37.7394307,50.8535552 C37.0170691,50.8535552 36.4314792,50.2531562 36.4314792,49.5125265 C36.4314792,48.7718968 37.0170691,48.1714977 37.7394307,48.1714977 L35.8715104,48.1714977 C35.1491487,48.1714977 34.5635589,47.5710987 34.5635589,46.830469 C34.5635589,46.0898393 35.1491487,45.4894402 35.8715104,45.4894402 L51.0035657,45.4894402 C51.7259273,45.4894402 52.3115172,46.0898393 52.3115172,46.830469 C52.3115172,47.5710987 51.7259273,48.1714977 51.0035657,48.1714977 L52.871486,48.1714977 C53.5938477,48.1714977 54.1794375,48.7718968 54.1794375,49.5125265 C54.1794375,50.2531562 53.5938477,50.8535552 52.871486,50.8535552 L52.871486,50.8535552 Z" id="形状" fill="#FFFFFF" fill-rule="nonzero" opacity="0.1"></path>
                <path d="M148.932421,18 L3.47946866,21.6235605 C1.71114715,26.2798357 0.544517787,31.5437541 0,37 L146.384078,37 C147.339846,33.7948643 148.046742,30.5174206 148.498168,27.1982689 C148.933783,23.9914179 149.108028,20.8890926 148.932421,18 Z M29.5291996,29.8699479 L26.9059852,29.8699479 C27.6303658,29.8699479 28.2175924,30.4711435 28.2175924,31.2127558 C28.2175924,31.9543681 27.6303658,32.5555637 26.9059852,32.5555637 L11.7316357,32.5555637 C11.0072551,32.5555637 10.4200285,31.9543681 10.4200285,31.2127558 C10.4200285,30.4711435 11.0072551,29.8699479 11.7316357,29.8699479 L14.3548502,29.8699479 C13.6304695,29.8699479 13.0432429,29.2687523 13.0432429,28.52714 C13.0432429,27.7855277 13.6304695,27.1843321 14.3548502,27.1843321 L12.481709,27.1843321 C11.7573283,27.1843321 11.1701018,26.5831366 11.1701018,25.8415242 C11.1701018,25.0999119 11.7573283,24.4987164 12.481709,24.4987164 L27.6560584,24.4987164 C28.3804391,24.4987164 28.9676656,25.0999119 28.9676656,25.8415242 C28.9676656,26.5831366 28.3804391,27.1843321 27.6560584,27.1843321 L29.5291996,27.1843321 C30.2535803,27.1843321 30.8408068,27.7855277 30.8408068,28.52714 C30.8408068,29.2687523 30.2535803,29.8699479 29.5291996,29.8699479 Z" id="形状" fill="#FFFFFF" fill-rule="nonzero" opacity="0.1"></path>
                <path d="M128,109.92939 C128,109.92939 121.938785,76.7426662 110.380853,71.357292 C100.587148,66.7907227 89.9963447,63.7123961 86.9847804,62.8772965 C86.5350794,62.154175 86.0152345,61.4769523 85.4327503,60.8554048 C81.3166738,56.5658443 78.8437633,56.6459595 78.4438537,56.698917 C78.2540492,55.8482629 78.1177591,54.9865846 78.0357827,54.1189344 C78.0235405,53.9831459 78.0112984,53.8568625 78.0004165,53.7224318 L78.0357827,53.7047793 C78.0112984,53.448139 77.9895346,53.1833513 77.9704913,52.9104163 C79.6507381,52.0152082 81.1977169,50.8904571 82.5667314,49.5686598 C82.5844144,49.6270489 82.5993771,49.685438 82.6184204,49.745185 C85.5846434,47.2421492 88.4896557,44.6712191 91.3334574,42.0323948 C92.1495995,41.270621 93.0065486,40.4436687 93.2840369,39.3695812 C93.3729023,38.9999514 93.4072702,38.6193561 93.3860547,38.2398204 C93.4227811,37.425089 93.2296275,36.5927052 93.1969818,35.7671107 C93.1969818,35.6313222 93.2119444,35.5050388 93.2296275,35.3760397 C93.4200606,34.0249435 94.3613445,32.915551 95.133959,31.7817165 C97.0642153,28.916396 98.0717554,25.5308867 98.0217416,22.0782661 C98.0428768,20.4239137 97.8135845,18.7758632 97.3416233,17.189878 C96.7390384,15.1774916 95.4849001,13.0632637 93.3969366,12.6233088 C92.588956,12.4535731 91.7496899,12.5594882 90.9253864,12.5065306 C87.5125523,12.2892689 84.9580276,9.51918233 82.2361938,7.48914337 C78.9142344,5.02350963 74.985729,3.50136996 70.8673348,3.08416253 C69.5819111,2.94837397 68.25432,2.93886877 67.0314671,3.34623445 C64.2851491,4.25873356 62.6174988,7.07634615 59.9718382,8.23462256 C58.0158178,9.09552202 55.7551042,8.95565981 53.7147491,9.60201335 C50.6773403,10.5661121 48.0996916,13.6756701 48.0316798,16.8707749 C48.0316798,16.9889109 48.0316798,17.107047 48.0316798,17.225183 C48.0316798,17.2455513 48.0316798,17.2659196 48.0316798,17.28493 C47.9976739,18.899456 48.5757745,20.5438554 48.6220226,22.1964022 C48.6220226,22.3457696 48.6242896,22.4955896 48.6288238,22.6458623 C48.6138611,24.430124 48.400304,26.2198172 47.7487506,27.8968059 C47.3978095,28.7997998 46.9462109,29.8453717 47.0196636,30.7483656 C46.9788565,31.301025 47.0863152,31.8197373 47.4712623,32.2420397 L48.1282566,31.6635805 C47.9079165,32.8540687 47.7972751,34.0622025 47.7977191,35.2728404 C47.7977191,41.3751782 50.5780431,46.8393098 54.9634464,50.516464 C54.9888375,50.9229244 55.0133218,51.358353 55.0368992,51.8227499 C55.1402772,53.8351363 55.2218914,56.3594457 55.1987674,59.1105219 L48.7838907,64.9969559 L32.29238,72.4653266 C32.29238,72.4653266 17.2100746,75.6454946 20.4583201,96.7972784 L22.00899,109.930748 L35.7786669,109.930748 L35.7473815,110 L56.1849391,110 L56.1971812,109.930748 L104.822926,109.930748 L104.813404,110 L106.717735,110 L106.717735,109.930748 L128,109.92939 Z M78.5649148,57.0356727 C78.981768,57.8964424 79.3099107,58.7972752 79.5442852,59.7242861 C79.0630215,58.8322272 78.707366,57.8781408 78.4873813,56.889021 L78.5077848,56.9256839 L78.5649148,57.0356727 Z M55.1933264,59.7514438 C55.1933264,60.0103474 55.1887923,60.271514 55.1797241,60.5349438 L55.1470784,60.5811119 C55.1448788,60.3015998 55.1603254,60.022227 55.1933264,59.7446544 L55.1933264,59.7514438 Z" id="形状" fill="url(#linearGradient-1)" fill-rule="nonzero"></path>
                <path d="M84,63.2425667 L81.2876124,89.3522101 L66.776339,94 C66.776339,94 47.9252454,90.4458077 52.807543,80.1933299 C56.2807553,72.9004007 56.1844655,59.867451 55.8399923,52.950446 C55.7043729,50.142634 55.5199306,48.3422989 55.5199306,48.3422989 C55.5199306,48.3422989 80.2026574,26.607046 78.1683667,46.1551037 C77.7750705,49.9403185 77.7520152,52.8998671 77.9703624,55.2128261 C78.8857932,64.8419532 84,63.2425667 84,63.2425667 Z" id="路径" fill="#FDC2CC" fill-rule="nonzero"></path>
                <path d="M84,63.2425667 L81.2876124,89.3522101 L66.776339,94 C66.776339,94 47.9252454,90.4458077 52.807543,80.1933299 C56.2807553,72.9004007 56.1844655,59.867451 55.8399923,52.950446 C55.7043729,50.142634 55.5199306,48.3422989 55.5199306,48.3422989 C55.5199306,48.3422989 80.2026574,26.607046 78.1683667,46.1551037 C77.7750705,49.9403185 77.7520152,52.8998671 77.9703624,55.2128261 C78.8857932,64.8419532 84,63.2425667 84,63.2425667 Z" id="路径" fill="#000000" fill-rule="nonzero" opacity="0.03"></path>
                <path d="M76.8796076,46.3054005 C76.4822971,50.160376 76.4590064,53.1744684 76.6795823,55.5300547 C69.4743462,59.5273285 60.5920483,58.6119031 54.3233286,53.2259795 C54.1863249,50.3664202 54,48.5329053 54,48.5329053 C54,48.5329053 78.9346622,26.3970764 76.8796076,46.3054005 Z" id="路径" fill="#000000" fill-rule="nonzero" opacity="0.1"></path>
                <circle id="椭圆形" fill="#FDC2CC" fill-rule="nonzero" cx="68.5" cy="36.5" r="19.5"></circle>
                <circle id="椭圆形" fill="#000000" fill-rule="nonzero" opacity="0.03" cx="68.5" cy="36.5" r="19.5"></circle>
                <path d="M125,110 L22.9327352,110 L21.43973,97.1664978 C18.3179918,76.4978048 32.8408606,73.3907464 32.8408606,73.3907464 L48.7210069,66.0959135 L55.032347,60.2195204 C52.9964309,67.9196217 68.40153,83.9277271 68.40153,83.9277271 L68.40153,83.9277271 C68.5005142,83.8361664 68.5943108,83.7392028 68.6824864,83.6372847 C69.0978133,83.1860858 70.0899832,82.0567376 72.4136422,79.2549814 C73.244296,78.2512665 74.247324,77.0341101 75.455301,75.556231 C81.2644485,68.4505235 78.2838672,60.0547112 77.3934932,58.3188112 L77.3378448,58.2107396 C77.3039129,58.1485984 77.2781246,58.0986153 77.2577654,58.0634921 C77.2521543,58.05072 77.2453373,58.0385072 77.2374063,58.0270179 C77.2317857,58.0183796 77.2267961,58.0093503 77.2224762,58 L84.6875022,63.8088484 C84.6875022,63.8088484 84.9738878,63.8844985 85.5018687,64.0330969 C88.4064425,64.8436339 98.6104544,67.8574806 108.032674,72.3194867 C119.163707,77.5785208 125,110 125,110 Z" id="路径" fill="#FFFFFF" fill-rule="nonzero"></path>
                <path d="M90.7376009,79.076164 C89.5372503,77.8608167 81.4015403,76.3753923 81.4015403,76.3753923 C81.6682849,79.6163184 71.7987351,84.612746 71.7987351,84.612746 L72.5322828,110 L67.8002338,110 L67,87.1784791 L69.267329,83.9375531 L69.267329,83.9375531 L69.5434096,83.6472201 C70.8572855,82.2683252 72.0819619,80.8050712 73.209814,79.2665684 C74.0260525,78.2632317 75.0116737,77.0465341 76.1986871,75.569212 C81.9070213,68.4661824 78.9781657,60.0735343 78.1032435,58.3382885 L78.0485608,58.2302576 C78.0165515,58.1667895 77.9912108,58.1181756 77.9698712,58.0830656 C77.9643574,58.0702983 77.9576588,58.0580901 77.9498653,58.0466052 C77.9443423,58.0379701 77.9394394,58.0289442 77.9351944,58.0195974 L77.9351944,58.0195974 C77.9351944,58.0195974 80.3358957,57.4794431 84.6038091,62.070755 C85.1555277,62.6805437 85.646907,63.3436 86.0709043,64.0504206 C89.538584,69.6842304 91.7952432,80.14702 90.7376009,79.076164 Z" id="路径" fill="#FFFFFF" fill-rule="nonzero"></path>
                <path d="M90.7376009,79.076164 C89.5372503,77.8608167 81.4015403,76.3753923 81.4015403,76.3753923 C81.6682849,79.6163184 71.7987351,84.612746 71.7987351,84.612746 L72.5322828,110 L67.8002338,110 L67,87.1784791 L69.267329,83.9375531 L69.267329,83.9375531 L69.5434096,83.6472201 C70.8572855,82.2683252 72.0819619,80.8050712 73.209814,79.2665684 C74.0260525,78.2632317 75.0116737,77.0465341 76.1986871,75.569212 C81.9070213,68.4661824 78.9781657,60.0735343 78.1032435,58.3382885 L78.0485608,58.2302576 C78.0165515,58.1667895 77.9912108,58.1181756 77.9698712,58.0830656 C77.9643574,58.0702983 77.9576588,58.0580901 77.9498653,58.0466052 C77.9443423,58.0379701 77.9394394,58.0289442 77.9351944,58.0195974 L77.9351944,58.0195974 C77.9351944,58.0195974 80.3358957,57.4794431 84.6038091,62.070755 C85.1555277,62.6805437 85.646907,63.3436 86.0709043,64.0504206 C89.538584,69.6842304 91.7952432,80.14702 90.7376009,79.076164 Z" id="路径" fill="#000000" fill-rule="nonzero" opacity="0.1"></path>
                <path d="M36,90 C36,90 42.6464646,102.590164 43,110" id="路径" fill="#000000" fill-rule="nonzero" opacity="0.1"></path>
                <polygon id="路径" fill="#000000" fill-rule="nonzero" opacity="0.1" points="105 96 103 110 105 110"></polygon>
                <path d="M37,110 L47.3985994,87.3555443 C47.3985994,87.3555443 50.3297482,82.0117199 51.0276408,76.6678955 C51.7255333,71.3240712 55.4941532,62.9075478 55.4941532,62.9075478 C55.4941532,62.9075478 64.8459137,51.551921 69.1728477,53.1550683 C73.4997817,54.7582157 65.4042278,60.7700181 65.4042278,60.7700181 C65.4042278,60.7700181 77.2684016,65.1786732 69.1728477,78.2710429 C61.0772938,91.3634125 60.9377153,88.9586916 60.9377153,88.9586916 L56.9597276,110 L37,110 Z" id="路径" fill="#000000" fill-rule="nonzero" opacity="0.1"></path>
                <path d="M37,110 L47.3985994,87.3566584 C47.3985994,87.3566584 50.3297482,82.013097 51.0276408,76.6695355 C51.4715004,73.2723664 53.1562131,68.6328192 54.3244853,65.7032116 C55.0870654,63.7879306 56.2091164,62.0222395 57.6352877,60.4932392 C60.6585583,57.255041 66.1495771,52.0330456 69.1728477,53.1551935 C73.4997817,54.7582619 65.4042278,60.7697685 65.4042278,60.7697685 C65.4042278,60.7697685 77.2684016,65.1782067 69.1728477,78.2699322 C61.0772938,91.3616577 60.9377153,88.9570551 60.9377153,88.9570551 L56.9597276,109.997328 L37,110 Z" id="路径" fill="#FDC2CC" fill-rule="nonzero"></path>
                <circle id="椭圆形" fill="#FFFFFF" fill-rule="nonzero" opacity="0.15" cx="73.5" cy="26.5" r="1"></circle>
                <circle id="椭圆形" fill="#FFFFFF" fill-rule="nonzero" opacity="0.15" cx="72.5" cy="26.5" r="1"></circle>
                <path d="M54.4414759,11.5577346 C56.4005198,10.9152809 58.5748284,11.0539301 60.4539943,10.2000707 C62.9952006,9.04420307 64.5968239,6.24650932 67.2341547,5.34048484 C68.4093103,4.93689212 69.684652,4.95199253 70.9180238,5.08103238 C74.8841499,5.49956545 78.6611733,7.01275684 81.8383061,9.45603237 C84.4526212,11.4726232 86.9058262,14.2222702 90.1835355,14.4377942 C90.975547,14.4899593 91.7810972,14.3842564 92.5568624,14.5531064 C94.5659994,14.9896455 95.7695862,17.0886022 96.3476869,19.0832288 C97.7010837,23.8668945 96.9266934,29.0113078 94.2275329,33.167791 C93.4856144,34.2934578 92.581232,35.3957876 92.3984601,36.7369784 C92.2197498,38.0520866 92.7721271,39.4152416 92.449907,40.7028946 C92.1791338,41.7695325 91.3668143,42.5904456 90.5761566,43.3468387 C87.8458604,45.9651579 85.0555428,48.5162117 82.2052038,51 C80.7240745,46.2282711 82.8970292,41.0900141 82.5585628,36.1000157 C82.4231762,34.1561814 81.7462432,32.0338877 80.0552647,31.1168811 C78.4725955,30.2602761 76.4499199,30.7050518 74.8482965,29.8813932 C73.0611935,28.9685049 72.3273982,26.806401 70.97624,25.3100879 C68.674668,22.7567462 64.6794098,22.4272827 61.4612705,23.5804048 C58.2431313,24.7335269 55.6125699,27.1056637 53.067302,29.4187716 L48.4411422,33.6262943 C47.5381137,32.5939756 48.2231698,31.0098055 48.7119154,29.719407 C49.4402953,27.785182 49.6000514,25.699953 49.5513123,23.6462975 C49.5120502,21.9989803 48.9515497,20.3722545 48.9840425,18.7688657 C49.049028,15.6060167 51.5238949,12.5145514 54.4414759,11.5577346 Z" id="路径" fill="#000000" fill-rule="nonzero" opacity="0.1"></path>
                <path d="M54.4414759,11.5577346 C56.4005198,10.9152809 58.5748284,11.0539301 60.4539943,10.2000707 C62.9952006,9.04420307 64.5968239,6.24650932 67.2341547,5.34048484 C68.4093103,4.93689212 69.684652,4.95199253 70.9180238,5.08103238 C74.8841499,5.49956545 78.6611733,7.01275684 81.8383061,9.45603237 C84.4526212,11.4726232 86.9058262,14.2222702 90.1835355,14.4377942 C90.975547,14.4899593 91.7810972,14.3842564 92.5568624,14.5531064 C94.5659994,14.9896455 95.7695862,17.0886022 96.3476869,19.0832288 C97.7010837,23.8668945 96.9266934,29.0113078 94.2275329,33.167791 C93.4856144,34.2934578 92.581232,35.3957876 92.3984601,36.7369784 C92.2197498,38.0520866 92.7721271,39.4152416 92.449907,40.7028946 C92.1791338,41.7695325 91.3668143,42.5904456 90.5761566,43.3468387 C87.8458604,45.9651579 85.0555428,48.5162117 82.2052038,51 C80.7240745,46.2282711 82.8970292,41.0900141 82.5585628,36.1000157 C82.4231762,34.1561814 81.7462432,32.0338877 80.0552647,31.1168811 C78.4725955,30.2602761 76.4499199,30.7050518 74.8482965,29.8813932 C73.0611935,28.9685049 72.3273982,26.806401 70.97624,25.3100879 C68.674668,22.7567462 64.6794098,22.4272827 61.4612705,23.5804048 C58.2431313,24.7335269 55.6125699,27.1056637 53.067302,29.4187716 L48.4411422,33.6262943 C47.5381137,32.5939756 48.2231698,31.0098055 48.7119154,29.719407 C49.4402953,27.785182 49.6000514,25.699953 49.5513123,23.6462975 C49.5120502,21.9989803 48.9515497,20.3722545 48.9840425,18.7688657 C49.049028,15.6060167 51.5238949,12.5145514 54.4414759,11.5577346 Z" id="路径" fill="#865A61" fill-rule="nonzero"></path>
            </g>
        </g>
    </g>
</svg>