<?xml version="1.0" encoding="UTF-8"?>
<svg width="31px" height="35px" viewBox="0 0 31 35" version="1.1" xmlns="http://www.w3.org/2000/svg" xmlns:xlink="http://www.w3.org/1999/xlink">
    <!-- Generator: Sketch 59 (86127) - https://sketch.com -->
    <title>编组 7</title>
    <desc>Created with Sketch.</desc>
    <g id="页面-1" stroke="none" stroke-width="1" fill="none" fill-rule="evenodd">
        <g id="0-1登录" transform="translate(-265.000000, -1285.000000)">
            <g id="编组-8" transform="translate(265.000000, 1285.000000)">
                <g id="编组-7" transform="translate(-0.000000, 0.000000)">
                    <g id="编组-2">
                        <polygon id="矩形" fill="#FFFFFF" transform="translate(15.217391, 17.500000) rotate(-270.000000) translate(-15.217391, -17.500000) " points="-2.2826087 17.5071137 6.49717531 2.29683619 23.9852617 2.2826087 32.7173913 17.5071137 23.9614345 32.7173913 6.4733481 32.7173913"></polygon>
                        <polygon id="矩形备份-3" fill="#CC1037" transform="translate(15.217391, 17.500000) rotate(-270.000000) translate(-15.217391, -17.500000) " points="-0.00988142292 17.506689 7.62967089 3.20448777 22.8465772 3.19110967 30.444664 17.506689 22.8258445 31.8088903 7.60893813 31.8088903"></polygon>
                        <g id="编组" transform="translate(15.859389, 17.232980) rotate(-90.000000) translate(-15.859389, -17.232980) translate(7.870258, 8.863415)" fill="#FFFFFF">
                            <rect id="矩形" x="1.92182898" y="3.75" width="12.2298208" height="1.36363636"></rect>
                            <rect id="矩形备份-4" x="4.89192832" y="0" width="6.1149104" height="1.36363636"></rect>
                            <rect id="矩形备份-5" x="4.89192832" y="15" width="6.1149104" height="1.36363636"></rect>
                            <rect id="矩形备份-2" x="2.27125243" y="11.25" width="12.2298208" height="1.36363636"></rect>
                            <rect id="矩形备份" x="0" y="7.5" width="15.898767" height="1.36363636"></rect>
                        </g>
                    </g>
                </g>
            </g>
        </g>
    </g>
</svg>