<?xml version="1.0" encoding="UTF-8"?>
<svg width="31px" height="39px" viewBox="0 0 31 39" version="1.1" xmlns="http://www.w3.org/2000/svg" xmlns:xlink="http://www.w3.org/1999/xlink">
    <!-- Generator: Sketch 59 (86127) - https://sketch.com -->
    <title>huo</title>
    <desc>Created with Sketch.</desc>
    <defs>
        <polygon id="path-1" points="0 0 31 0 31 39 0 39"></polygon>
    </defs>
    <g id="页面-1" stroke="none" stroke-width="1" fill="none" fill-rule="evenodd">
        <g id="1-1首页" transform="translate(-221.000000, -422.000000)">
            <g id="编组-10" transform="translate(0.000000, 420.000000)">
                <g id="编组-7" transform="translate(32.000000, 0.000000)">
                    <g id="编组-13">
                        <g id="huo" transform="translate(189.000000, 2.000000)">
                            <mask id="mask-2" fill="white">
                                <use xlink:href="#path-1"></use>
                            </mask>
                            <g id="Clip-2"></g>
                            <path d="M11.4803622,39 C11.4803622,39 -5.70421809,35.1956554 1.97609798,16.3138165 C1.97609798,16.3138165 3.71990249,18.4116959 3.48030338,19.4216791 C3.48030338,19.4216791 4.84696115,14.6553939 7.79752431,11.8087461 C10.331063,9.36248973 12.9046458,2.485376 10.5307844,0 C10.5307844,0 22.2888887,2.485376 23.5976988,14.9166087 C23.5976988,14.9166087 25.1019042,10.9556223 28.1900704,10.5639362 C28.1900704,10.5639362 27.240659,12.7402724 28.1900704,16.0047768 C28.1900704,16.0047768 37.9293858,32.7842749 21.1440819,38.4559159 C21.1440819,38.4559159 26.1756077,32.7060356 15.5046843,22.8385814 C15.5046843,22.8385814 12.9888937,28.1225626 11.4846883,29.9856153 C11.4803622,29.9898591 7.28294086,34.7255124 11.4803622,39 Z" id="Fill-1" fill="#C70D3A" mask="url(#mask-2)"></path>
                        </g>
                    </g>
                </g>
            </g>
        </g>
    </g>
</svg>