<?xml version="1.0" encoding="UTF-8"?>
<svg width="97px" height="61px" viewBox="0 0 97 61" version="1.1" xmlns="http://www.w3.org/2000/svg" xmlns:xlink="http://www.w3.org/1999/xlink">
    <!-- Generator: Sketch 59 (86127) - https://sketch.com -->
    <title>undraw_buy_house_560d</title>
    <desc>Created with Sketch.</desc>
    <g id="页面-1" stroke="none" stroke-width="1" fill="none" fill-rule="evenodd">
        <g id="1-1首页" transform="translate(-653.000000, -268.000000)" fill-rule="nonzero">
            <g id="编组-5" transform="translate(644.000000, 194.000000)">
                <g id="undraw_buy_house_560d" transform="translate(9.000000, 74.000000)">
                    <path d="M13.8144673,60 L13.6,59.9492861 C15.9913446,48.7839148 22.0009963,38.64478 30.5218915,31.3995133 C43.6182717,20.2811098 61.2485505,17.0359587 77.1663186,22.8138172 C93.0840867,28.5916757 105.040727,42.5763369 108.8,59.8130342 L108.585747,59.8641982 C103.523647,36.5286426 84.0440325,20.230763 61.2147278,20.230763 C38.6845904,20.230763 18.749903,36.9561075 13.8144673,60 Z" id="路径" fill="#3F3D56"></path>
                    <rect id="矩形" fill="#3F3D56" x="32" y="20" width="1" height="40"></rect>
                    <path d="M40.799694,24.7553527 C40.8622472,38.4520135 31.3132634,49.6 31.3132634,49.6 C31.3132634,49.6 21.6628603,38.5413104 21.600306,24.8446473 C21.5377517,11.1479843 31.0867366,0 31.0867366,0 C31.0867366,0 40.7371386,11.0586919 40.799694,24.7553527 Z" id="路径" fill="#FD0054"></path>
                    <rect id="矩形" fill="#F2F2F2" x="24.8" y="44" width="75.2" height="16.8"></rect>
                    <polygon id="路径" fill="#3F3D56" points="22.4 45.6 30.5369863 28 95.5243836 28 101.6 45.6"></polygon>
                    <rect id="矩形" fill="#F2F2F2" x="42.4" y="28" width="31.2" height="11.2"></rect>
                    <polygon id="路径" fill="#3F3D56" points="44.1066667 20 39.2 31.2 76 31.2 73.1006061 20"></polygon>
                    <rect id="矩形" fill="#CCCCCC" x="45.6" y="46.4" width="24" height="13.6"></rect>
                    <rect id="矩形" fill="#CCCCCC" x="27.2" y="46.4" width="12.8" height="13.6"></rect>
                    <rect id="矩形" fill="#3F3D56" x="72.8" y="48" width="7.2" height="12"></rect>
                    <rect id="矩形" fill="#3F3D56" x="0" y="59.9213251" width="124.8" height="1"></rect>
                    <rect id="矩形" fill="#3F3D56" x="20" y="33.6" width="1" height="26.4"></rect>
                    <path d="M26.399796,37.569755 C26.441501,46.8481383 20.0755094,54.4 20.0755094,54.4 C20.0755094,54.4 13.6419023,46.9086295 13.600204,37.6302461 C13.5585057,28.3518628 19.9244905,20.8 19.9244905,20.8 C19.9244905,20.8 26.3580932,28.291374 26.399796,37.569755 Z" id="路径" fill="#FD0054"></path>
                    <path d="M26.399796,37.569755 C26.441501,46.8481383 20.0755094,54.4 20.0755094,54.4 C20.0755094,54.4 13.6419023,46.9086295 13.600204,37.6302461 C13.5585057,28.3518628 19.9244905,20.8 19.9244905,20.8 C19.9244905,20.8 26.3580932,28.291374 26.399796,37.569755 Z" id="路径" fill="#000000" opacity="0.1"></path>
                    <rect id="矩形" fill="#3F3D56" x="11.2" y="33.6" width="1" height="26.4"></rect>
                    <path d="M17.599796,37.569755 C17.641501,46.8481383 11.2755094,54.4 11.2755094,54.4 C11.2755094,54.4 4.84190225,46.9086295 4.80020396,37.6302461 C4.75850566,28.3518628 11.1244916,20.8 11.1244916,20.8 C11.1244916,20.8 17.5580943,28.291374 17.599796,37.569755 Z" id="路径" fill="#FD0054"></path>
                    <rect id="矩形" fill="#3F3D56" x="88.8" y="48.8" width="2.4" height="2.4"></rect>
                    <rect id="矩形" fill="#3F3D56" x="92" y="48.8" width="2.4" height="2.4"></rect>
                    <rect id="矩形" fill="#3F3D56" x="88.8" y="53.6" width="2.4" height="2.4"></rect>
                    <rect id="矩形" fill="#3F3D56" x="92" y="53.6" width="2.4" height="2.4"></rect>
                    <rect id="矩形" fill="#3F3D56" x="45.6" y="32" width="2.4" height="2.4"></rect>
                    <rect id="矩形" fill="#3F3D56" x="48.8" y="32" width="2.4" height="2.4"></rect>
                    <rect id="矩形" fill="#3F3D56" x="45.6" y="34.4" width="2.4" height="2.4"></rect>
                    <rect id="矩形" fill="#3F3D56" x="48.8" y="34.4" width="2.4" height="2.4"></rect>
                    <rect id="矩形" fill="#3F3D56" x="64.8" y="32" width="2.4" height="2.4"></rect>
                    <rect id="矩形" fill="#3F3D56" x="68" y="32" width="2.4" height="2.4"></rect>
                    <rect id="矩形" fill="#3F3D56" x="64.8" y="34.4" width="2.4" height="2.4"></rect>
                    <rect id="矩形" fill="#3F3D56" x="68" y="34.4" width="2.4" height="2.4"></rect>
                    <rect id="矩形" fill="#3F3D56" x="55.2" y="32" width="2.4" height="2.4"></rect>
                    <rect id="矩形" fill="#3F3D56" x="58.4" y="32" width="2.4" height="2.4"></rect>
                    <rect id="矩形" fill="#3F3D56" x="55.2" y="34.4" width="2.4" height="2.4"></rect>
                    <rect id="矩形" fill="#3F3D56" x="58.4" y="34.4" width="2.4" height="2.4"></rect>
                    <rect id="矩形" fill="#F2F2F2" x="76" y="48.8" width="1.6" height="1.6"></rect>
                    <rect id="矩形" fill="#F2F2F2" x="77.6" y="48.8" width="1.6" height="1.6"></rect>
                    <rect id="矩形" fill="#F2F2F2" x="76" y="52" width="1.6" height="1.6"></rect>
                    <rect id="矩形" fill="#F2F2F2" x="77.6" y="52" width="1.6" height="1.6"></rect>
                    <circle id="椭圆形" fill="#F2F2F2" cx="79.6" cy="54.8" r="1"></circle>
                    <rect id="矩形" fill="#F2F2F2" x="45.6" y="48.7213251" width="24" height="1"></rect>
                    <rect id="矩形" fill="#F2F2F2" x="45.6" y="48.7213251" width="24" height="1"></rect>
                    <rect id="矩形" fill="#F2F2F2" x="45.6" y="49.5213251" width="24" height="1"></rect>
                    <rect id="矩形" fill="#F2F2F2" x="45.6" y="51.9213251" width="24" height="1"></rect>
                    <rect id="矩形" fill="#F2F2F2" x="45.6" y="52.7213251" width="24" height="1"></rect>
                    <rect id="矩形" fill="#F2F2F2" x="45.6" y="53.5213251" width="24" height="1"></rect>
                    <rect id="矩形" fill="#F2F2F2" x="45.6" y="55.1213251" width="24" height="1"></rect>
                    <rect id="矩形" fill="#F2F2F2" x="45.6" y="55.9213251" width="24" height="1"></rect>
                    <rect id="矩形" fill="#F2F2F2" x="45.6" y="55.9213251" width="24" height="1"></rect>
                    <rect id="矩形" fill="#F2F2F2" x="45.6" y="58.3213251" width="24" height="1"></rect>
                    <rect id="矩形" fill="#F2F2F2" x="45.6" y="59.1213251" width="24" height="1"></rect>
                    <rect id="矩形" fill="#F2F2F2" x="27.2" y="48.7213251" width="12.8" height="1"></rect>
                    <rect id="矩形" fill="#F2F2F2" x="27.2" y="48.7213251" width="12.8" height="1"></rect>
                    <rect id="矩形" fill="#F2F2F2" x="27.2" y="49.5213251" width="12.8" height="1"></rect>
                    <rect id="矩形" fill="#F2F2F2" x="27.2" y="51.9213251" width="12.8" height="1"></rect>
                    <rect id="矩形" fill="#F2F2F2" x="27.2" y="52.7213251" width="12.8" height="1"></rect>
                    <rect id="矩形" fill="#F2F2F2" x="27.2" y="53.5213251" width="12.8" height="1"></rect>
                    <rect id="矩形" fill="#F2F2F2" x="27.2" y="55.1213251" width="12.8" height="1"></rect>
                    <rect id="矩形" fill="#F2F2F2" x="27.2" y="55.9213251" width="12.8" height="1"></rect>
                    <rect id="矩形" fill="#F2F2F2" x="27.2" y="55.9213251" width="12.8" height="1"></rect>
                    <rect id="矩形" fill="#F2F2F2" x="27.2" y="58.3213251" width="12.8" height="1"></rect>
                    <rect id="矩形" fill="#F2F2F2" x="27.2" y="59.1213251" width="12.8" height="1"></rect>
                    <ellipse id="椭圆形" fill="#FD0054" cx="96" cy="27.6" rx="8.8" ry="9.2"></ellipse>
                    <polygon id="路径" fill="#FFFFFF" points="101.6 26.6588235 96.8784314 26.6588235 96.8784314 21.6 95.1215686 21.6 95.1215686 26.6588235 90.4 26.6588235 90.4 28.5411765 95.1215686 28.5411765 95.1215686 33.6 96.8784314 33.6 96.8784314 28.5411765 101.6 28.5411765"></polygon>
                </g>
            </g>
        </g>
    </g>
</svg>