<?xml version="1.0" encoding="UTF-8"?>
<svg width="177px" height="107px" viewBox="0 0 177 107" version="1.1" xmlns="http://www.w3.org/2000/svg" xmlns:xlink="http://www.w3.org/1999/xlink">
    <!-- Generator: Sketch 59 (86127) - https://sketch.com -->
    <title>undraw_abstract_x68e</title>
    <desc>Created with Sketch.</desc>
    <g id="页面-1" stroke="none" stroke-width="1" fill="none" fill-rule="evenodd">
        <g id="1-1首页" transform="translate(-396.000000, -231.000000)" fill-rule="nonzero">
            <g id="编组-2" transform="translate(141.000000, 176.000000)">
                <g id="undraw_abstract_x68e" transform="translate(255.000000, 55.000000)">
                    <rect id="矩形" fill="#3F3D56" x="114" y="106" width="63" height="1"></rect>
                    <polygon id="路径" fill="#3F3D56" points="76.5793872 68.7200622 76.5793872 34.600311 116 34.600311 116 0 0 0 0 103 116 103 116 68.7200622"></polygon>
                    <polygon id="路径" fill="#000000" opacity="0.1" points="116 34.600311 116 0 75.7715877 0 75.7715877 34.1197512 40.2284123 34.1197512 40.2284123 0 0 0 0 34.600311 36.3509749 34.600311 36.3509749 68.7200622 0 68.7200622 0 103 76.902507 103 76.902507 68.7200622 76.5793872 68.7200622 76.5793872 34.600311"></polygon>
                    <path d="M28,0 C27.9996566,15.4638307 15.4638307,27.9996566 0,28 L0,0 L28,0 Z" id="路径" fill="#6C63FF"></path>
                    <path d="M13.5483871,0 C13.5480532,7.48242928 7.48242928,13.5480532 0,13.5483871 L0,21 C11.5978147,20.9996016 20.9996016,11.5978147 21,0 L13.5483871,0 Z" id="路径" fill="#000000" opacity="0.1"></path>
                    <polygon id="路径" fill="#D0CDE1" points="115 9.39130435 115 4.53913043 88.7313433 4.53913043 88.7313433 0 83 0 83 4.53913043 83 9.39130435 83 13.1478261 83 18 88.7313433 18 115 18 115 13.1478261 88.7313433 13.1478261 88.7313433 9.39130435"></polygon>
                    <path d="M70,53.0235334 C70.0011534,46.0616889 64.4424462,40.3304786 57.3817562,40.0137084 C50.3210663,39.6969382 44.2564203,44.9066795 43.6150337,51.8398006 C42.9736471,58.7729217 47.9824383,64.976529 54.9849701,65.9219648 L54.9849701,84.2100771 L33.3170402,84.2100771 C32.3729601,77.4260712 26.2557735,72.5213625 19.3200306,72.9873928 C12.3842877,73.4534231 7,79.1309453 7,85.9783863 C7,92.8258274 12.3842877,98.5033495 19.3200306,98.9693798 C26.2557735,99.4354101 32.3729601,94.5307014 33.3170402,87.7466955 L54.9849701,87.7466955 L54.9849701,95.4629538 L58.5755207,95.4629538 L58.5755207,87.7466955 L65.9198287,87.7466955 L65.9198287,84.2100771 L58.5755207,84.2100771 L58.5755207,65.9219648 C65.1208004,65.0382403 69.9988973,59.5307859 70,53.0235334 Z" id="路径" fill="#D0CDE1"></path>
                    <polygon id="路径" fill="#D0CDE1" points="100.5 71 106.24992 81.4999158 112 92 100.5 92 89 92 94.7500798 81.4999158"></polygon>
                    <polygon id="路径" fill="#6C63FF" points="98.3245414 92.4341855 86.8245414 92.4341855 92.5746213 81.9341013 92.6145424 81.861204 90.5 78 84.7500798 88.4999158 79 99 90.5 99 102 99 98.4043837 92.4341855"></polygon>
                    <polygon id="路径" fill="#D0CDE1" points="25.7686567 55.4776119 25.7686567 47.0149254 30 47.0149254 30 42 9 42 9 63 30 63 30 55.4776119"></polygon>
                    <rect id="矩形" fill="#6C63FF" x="14" y="37" width="9" height="9"></rect>
                    <path d="M150.618956,37.3681019 L148.021209,44.1779863 L138.652738,47.4385921 C138.652738,47.4385921 133,46.815596 133,49.9305764 C133,52.1391878 139.751881,50.2420744 139.751881,50.2420744 L152.103379,46.5706479 L156,37 L150.618956,37.3681019 Z" id="路径" fill="#FFB8B8"></path>
                    <rect id="矩形" fill="#6C63FF" x="104" y="36" width="37" height="32"></rect>
                    <polygon id="路径" fill="#3F3D56" points="120.5 46 126.24992 56.4999158 132 67 120.5 67 109 67 114.75008 56.4999158"></polygon>
                    <polygon id="路径" fill="#D0CDE1" points="121.000077 54 123.499962 58.5000795 126 63 121.000077 63 116 63 118.500038 58.5000795"></polygon>
                    <polygon id="路径" fill="#D0CDE1" points="121.000077 39 123.499962 43.5000795 126 48 121.000077 48 116 48 118.500038 43.5000795"></polygon>
                    <path d="M157.091784,34.0062993 C157.091784,34.0062993 154.248952,33.6519639 152.827537,38.2583237 C151.406121,42.8646835 151,43.2190159 151,43.2190159 C151,43.2190159 159.325439,44.282022 159.528495,43.9276867 C159.73155,43.5733513 161.356033,35.0693054 157.091784,34.0062993 Z" id="路径" fill="#2F2E41"></path>
                    <circle id="椭圆形" fill="#FFB8B8" cx="155" cy="27" r="5"></circle>
                    <path d="M152,32.0087195 C152,32.0087195 153.869232,36.8814299 153.246154,37.5170018 C152.623076,38.1525737 160.930769,39 160.930769,39 C160.930769,39 161.553847,35.8221457 159.061539,33.9154317 C159.061539,33.9154317 158.023076,30.7375774 158.23077,30.1020054 C158.438463,29.4664335 152,32.0087195 152,32.0087195 Z" id="路径" fill="#FFB8B8"></path>
                    <path d="M157.882435,32.5549924 C155.895709,33.2976801 154.106068,34.4787925 152.649431,36.0086271 C150.323651,38.502918 149.160761,39.2703924 149.160761,39.2703924 C149.160761,39.2703924 146.447353,40.2297345 147.416425,44.8345808 C147.900963,47.1370039 147.561787,49.7272295 147.101477,51.7418501 C146.398336,54.8682778 146.048932,58.0624754 146.059721,61.265437 L146.059721,63.2539641 C146.059721,63.2539641 128.228743,100.284603 134.237007,102.778893 C140.245271,105.273182 145.672091,106.040658 146.059721,105.465051 C146.447351,104.889445 153.424691,74.9579474 153.424691,74.9579474 C153.424691,74.9579474 155.362841,107 160.208212,107 C165.053583,107 173,105.656921 173,105.656921 L163.115436,67.2832021 C163.115436,67.2832021 165.441216,60.7596699 159.626766,56.1548237 L158.851506,54.04427 C162.066867,54.0458936 163.536685,33.8997555 160.20821,32.171252 C160.208215,32.1712552 159.432955,31.5956487 157.882435,32.5549924 Z" id="路径" fill="#2F2E41"></path>
                    <path d="M151.618955,43.3681034 L149.021208,50.1779871 L139.652738,53.4385924 C139.652738,53.4385924 134,52.8155964 134,55.9305765 C134,58.1391876 140.751881,56.2420745 140.751881,56.2420745 L153.10338,52.5706484 L157,43 L151.618955,43.3681034 Z" id="路径" fill="#FFB8B8"></path>
                    <ellipse id="椭圆形" fill="#2F2E41" cx="140" cy="105" rx="3" ry="2"></ellipse>
                    <ellipse id="椭圆形" fill="#2F2E41" cx="166" cy="105" rx="3" ry="2"></ellipse>
                    <path d="M156.87629,19.260316 L156.876271,19.260316 C156.62342,19.2608166 156.371216,19.2862727 156.123219,19.3363251 C155.675156,19.1155387 155.183671,19.0005577 154.685602,19 L154.555116,19 C152.039383,19 150,21.3107068 150,24.1611076 L150,24.161117 L150.842956,24.161117 L150.979099,23.1093166 L151.178689,24.161117 L151.880899,24.161117 C151.662477,25.0050794 151.552845,25.874239 151.554749,26.746835 L151.554749,32 L152.829223,32 L153.567094,30.0536528 L153.382626,32 L161.574576,32 L162.245371,30.230598 L162.077663,32 L163,32 L163,27.875321 C163,23.1173939 160.258314,19.260316 156.87629,19.260316 Z" id="路径" fill="#2F2E41"></path>
                </g>
            </g>
        </g>
    </g>
</svg>