<?xml version="1.0" encoding="UTF-8"?>
<svg width="172px" height="139px" viewBox="0 0 172 139" version="1.1" xmlns="http://www.w3.org/2000/svg" xmlns:xlink="http://www.w3.org/1999/xlink">
    <!-- Generator: Sketch 59 (86127) - https://sketch.com -->
    <title>undraw_predictive_analytics_kf9n</title>
    <desc>Created with Sketch.</desc>
    <g id="页面-1" stroke="none" stroke-width="1" fill="none" fill-rule="evenodd">
        <g id="2-1排行榜" transform="translate(-508.000000, -187.000000)" fill-rule="nonzero">
            <g id="undraw_predictive_analytics_kf9n" transform="translate(508.000000, 187.000000)">
                <polygon id="路径" fill="#F2F2F2" points="27.3364644 0 15.9537427 22.0393701 18.2515386 22.0393701 18.2515386 40.011655 6.6713888 40.011655 0 52.9285928 82.66332 95 110 42.0714072"></polygon>
                <rect id="矩形" fill="#3F3D56" x="25" y="14" width="126" height="63"></rect>
                <rect id="矩形" fill="#FFFFFF" opacity="0.3" x="43" y="36.8927469" width="93" height="1"></rect>
                <rect id="矩形" fill="#FFFFFF" opacity="0.3" x="43" y="41.8927469" width="93" height="1"></rect>
                <rect id="矩形" fill="#FFFFFF" opacity="0.3" x="43" y="52.8927469" width="93" height="1"></rect>
                <rect id="矩形" fill="#FFFFFF" opacity="0.3" x="43" y="57.8927469" width="93" height="1"></rect>
                <rect id="矩形" fill="#FFFFFF" opacity="0.3" x="43" y="47.8927469" width="93" height="1"></rect>
                <ellipse id="椭圆形" fill="#3F3D56" cx="122" cy="135.5" rx="40" ry="3.5"></ellipse>
                <polygon id="路径" fill="#FFFFFF" points="45.2963422 58 45 57.688812 58.872464 44.4562319 71.1010879 53.2593266 80.9901119 42.2869423 85.3263709 45.9756372 97.1218629 38.8926726 110.224052 47.705868 130.787836 36 131 36.3735115 110.205155 48.2111186 97.1089784 39.4017916 85.2829933 46.5028085 81.0296242 42.8846037 71.1625038 53.8329182 58.9106878 45.0134904"></polygon>
                <path d="M85.3106287,128.186858 C86.3392496,131.776708 89.8624686,134 89.8624686,134 C89.8624686,134 91.7179868,130.402989 90.6893747,126.813142 C89.6607626,123.223294 86.1375349,121 86.1375349,121 C86.1375349,121 84.2820079,124.597009 85.3106287,128.186858 Z" id="路径" fill="#3F3D56"></path>
                <path d="M86.901289,126.993625 C89.6627133,129.755048 90,134 90,134 C90,134 85.8601353,133.7678 83.098711,131.006375 C80.3372867,128.244949 80,124 80,124 C80,124 84.1398668,124.2322 86.901289,126.993625 Z" id="路径" fill="#FFFFFF"></path>
                <ellipse id="椭圆形" fill="#FFFFFF" opacity="0.4" cx="164.5" cy="11" rx="7.5" ry="7"></ellipse>
                <circle id="椭圆形" fill="#FFFFFF" opacity="0.4" cx="151" cy="15" r="5"></circle>
                <circle id="椭圆形" fill="#FFFFFF" opacity="0.4" cx="145.5" cy="107.5" r="2.5"></circle>
                <circle id="椭圆形" fill="#FFFFFF" opacity="0.4" cx="99" cy="121" r="2"></circle>
                <circle id="椭圆形" fill="#FFFFFF" opacity="0.4" cx="92.5" cy="94.5" r="2.5"></circle>
                <circle id="椭圆形" fill="#FFFFFF" cx="131" cy="37" r="3"></circle>
                <path d="M112.873061,88.2348658 L110.473907,88.4990755 C110.473907,88.4990755 109.407617,93.2548499 110.473907,99.5958824 C111.540197,105.936915 112.873061,112.277947 112.873061,112.277947 C112.873061,112.277947 113.939351,132.88632 114.472496,133.150532 C115.005641,133.414744 119.803945,135 120.070524,133.414742 C120.337103,131.829484 120.337097,95.6327242 120.337097,95.6327242 L124.069111,113.070579 C124.069111,113.070579 124.602256,135 125.668546,135 C126.734836,135 130.200283,134.73579 130.200283,132.886322 C130.200283,131.036855 131,106.729542 131,106.729542 C131,106.729542 130.733428,88.763268 129.667135,88.2348486 C128.600843,87.7064292 112.873061,88.2348658 112.873061,88.2348658 Z" id="路径" fill="#2F2E41"></path>
                <path d="M114.776441,132.118812 C114.776441,132.118812 112.30212,131.851485 111.752269,132.118812 C111.202418,132.386139 110.377647,134.257426 111.752269,135.326733 C113.126891,136.39604 116.700908,138 117.800605,138 C118.563208,137.96711 119.311198,137.78528 120,137.465347 L119.450151,132.92079 L114.776441,132.118812 Z" id="路径" fill="#2F2E41"></path>
                <path d="M126,132.956484 L126.252198,136.758596 C126.252198,136.758596 129.53078,137.301755 129.782976,136.758596 C130.035172,136.215437 132.55716,134.857538 132.809357,134.58596 C133.061553,134.314383 133.313754,131.327007 131.800563,131.055425 C130.287373,130.783843 129.782976,131.598584 129.782976,131.598584 L126,132.956484 Z" id="路径" fill="#2F2E41"></path>
                <path d="M103.554855,65 C103.554855,65 97.2839485,71.0572562 98.0678075,74.2175637 C98.8516666,77.3778712 105.122584,86.5954198 105.122584,86.5954198 C105.122584,86.5954198 111.132206,89.7557252 111.916065,86.5954198 C112.699924,83.4351145 107.735461,84.2251887 107.735461,84.2251887 L103.81614,74.7442727 L108.258037,68.423662 L103.554855,65 Z" id="路径" fill="#FFB8B8"></path>
                <path d="M131.214075,56 C131.214075,56 137.134679,52.2442751 136.997658,49.6640173 C136.860637,47.0837596 133.291436,38.9481307 133.291436,38.9481307 C133.291436,38.9481307 130.499274,33.2216276 129.389255,35.561931 C128.279237,37.9022344 130.848168,40.3934203 130.848168,40.3934203 L132.50627,48.3741437 L128,52.6148387 L131.214075,56 Z" id="路径" fill="#FFB8B8"></path>
                <circle id="椭圆形" fill="#FFB8B8" cx="117.5" cy="46.5" r="4.5"></circle>
                <path d="M115,48.7474391 L115.84,54 L122,52.8941987 C122,52.8941987 121.72,47.6416378 121.72,47.0887371 C121.72,46.5358365 115,48.7474391 115,48.7474391 Z" id="路径" fill="#FFB8B8"></path>
                <path d="M114.169838,54.1508153 C114.169838,54.1508153 120.808571,52.5844278 121.605211,53.106557 C122.401852,53.6286861 126.385094,54.1508153 126.385094,54.1508153 L130.899433,60.9384943 L129.571687,69.5536317 C129.571687,69.5536317 129.306136,83.390067 129.837237,85.7396503 C130.368337,88.0892337 133.289377,88.3502961 127.181746,88.8724252 C121.074115,89.3945544 120.011915,88.6113607 115.763126,89.6556211 C111.514336,90.6998815 108.062196,89.133492 109.124392,88.0892337 C110.186589,87.0449753 112.045436,70.3368275 109.921042,68.7704379 C107.796647,67.2040484 107,59.1110401 107,59.1110401 C107,59.1110401 114.169838,55.4561403 114.169838,54.1508153 Z" id="路径" fill="#D0CDE1"></path>
                <path d="M126,55.3142841 L126.762605,54.5428561 L128.287814,53 C128.287814,53 133.244748,55.1857128 132.990547,55.9571429 C132.736345,56.728573 131.084033,61.228572 131.084033,61.228572 L128.796217,62 L126,55.3142841 Z" id="路径" fill="#D0CDE1"></path>
                <path d="M110.918915,60.5116277 L107.675674,60 C107.675674,60 105.243241,62.5581386 104.432433,63.581394 C103.621625,64.6046494 102,67.162788 102,67.162788 L107.675679,71 L112,66.6511603 L110.918915,60.5116277 Z" id="路径" fill="#D0CDE1"></path>
                <path d="M118.696782,41.2111901 L118.647231,40.83552 C118.318573,40.8337048 117.991781,40.8835089 117.679537,40.9829992 C117.647597,40.7564637 117.668003,40.5258743 117.739276,40.3079305 C117.421988,40.3870501 117.119665,40.5145278 116.843598,40.6856026 L116.648253,40 L113.962892,41.283568 C112.998949,41.7443201 111.982655,42.2506419 111.431618,43.1454612 C110.817294,44.1430602 110.924209,45.4251453 111.344147,46.5134049 C111.764086,47.6016646 112.461912,48.56473 113.021262,49.5923052 C113.233638,50.0341592 113.488843,50.4554316 113.783432,50.8504374 C114.797052,52.075955 116.770099,52.3235436 118.199246,51.5838948 C118.743038,51.3297546 119.176516,50.8971186 119.42287,50.3626473 C119.527029,50.0310685 119.608678,49.6932277 119.667293,49.3512953 C119.844072,48.6509843 120.049287,47.2053628 120.635768,46.7623339 C120.893842,46.5673788 121.40552,47.2136606 121.619384,46.9735911 C122.168987,46.3566493 122.053641,45.4052072 121.71231,44.6600946 C121.384688,43.9117528 121.001752,43.1873438 120.566492,42.4925241 C120.382057,42.2131891 118.690837,41.166129 118.696782,41.2111901 Z" id="路径" fill="#2F2E41"></path>
                <rect id="矩形" fill="#3F3D56" x="3" y="25" width="14" height="14"></rect>
            </g>
        </g>
    </g>
</svg>