<?xml version="1.0" encoding="UTF-8"?>
<svg width="44px" height="44px" viewBox="0 0 44 44" version="1.1" xmlns="http://www.w3.org/2000/svg" xmlns:xlink="http://www.w3.org/1999/xlink">
    <!-- Generator: Sketch 59 (86127) - https://sketch.com -->
    <title>shetuanguanli备份</title>
    <desc>Created with Sketch.</desc>
    <g id="页面-1" stroke="none" stroke-width="1" fill="none" fill-rule="evenodd">
        <g id="1-1首页" transform="translate(-32.000000, -1034.000000)">
            <g id="shetuanguanli备份" transform="translate(32.000000, 1034.000000)">
                <rect id="矩形" fill="#FABC74" x="0" y="0" width="44" height="44"></rect>
                <path d="M9.80397022,14.2439156 L16.0496811,39.0883197 C16.1476393,39.5401479 16.4861992,39.9032457 16.9330497,40.0357124 C17.3799001,40.1681791 17.8640984,40.048984 18.1964171,39.7247093 C18.5287358,39.4004346 18.6564154,38.9225626 18.5295581,38.4778485 L12.2864038,13.6334444 C12.0987127,12.97547 11.4178112,12.5838811 10.74808,12.7487488 C10.0783488,12.9136165 9.66159325,13.5754156 9.8065268,14.2439156 L9.80397022,14.2439156 Z" id="路径" fill="#FFFFFF" fill-rule="nonzero"></path>
                <path d="M33.4564212,13.1984187 C33.75136,13.1192556 34.0267987,13.0494058 34.32905,12.9818843 C36.07187,12.6256502 37.2857501,13.5360262 37.1443746,15.114632 C37.0614992,16.038978 36.5130594,17.2031416 35.6526182,18.451125 C33.8049852,21.1217164 31.2529118,23.2940457 29.5295919,23.2754191 C29.0655987,23.3558319 28.5965952,23.4071647 28.1255859,23.4290887 C27.1067065,23.4779836 26.2194527,23.4290887 24.664321,23.2730908 C22.6606874,23.0728547 22.0196222,23.0565563 21.5686828,23.2125543 C20.0354887,23.8016211 19.540674,24.1671684 17.9538548,25.9832637 C17.5601506,26.4322915 16.8784994,26.5320033 16.3621604,26.2160964 C15.7722829,25.8598624 15.8575958,26.1741865 12.7448949,13.841037 C12.6530284,13.4760567 12.7510428,13.0911577 13.008146,12.8072597 C16.2256598,9.25888896 20.3840527,8.83513343 25.0665102,11.4964115 C28.7105884,13.5686228 30.2242824,13.983065 31.7452889,13.6617558 C32.0719153,13.591906 33.8951731,13.079674 33.4686088,13.1960904 L33.4564212,13.1984187 L33.4564212,13.1984187 Z M17.3444771,21.9831975 C17.42979,22.3161483 17.5126653,22.6188308 17.5882282,22.8959018 C18.5461698,21.9971675 19.3529858,21.5547853 20.6984915,21.0378966 C21.6978708,20.6909758 22.4364365,20.7119308 24.9178221,20.9564051 C26.3535158,21.1007614 27.1432692,21.1449996 28.0012729,21.1030898 C28.3863995,21.0844631 28.7471511,21.0448816 29.310216,20.9657185 C30.1511571,20.9657185 32.1962283,19.2241297 33.6172969,17.1682167 C34.1145491,16.4464352 34.4655506,15.782862 34.6239888,15.3102116 C34.439596,15.3539735 34.2559468,15.4005459 34.0731114,15.4499112 L33.1809825,15.7060272 C32.8177935,15.8084736 32.5472298,15.8783234 32.2693536,15.9365316 C30.0195315,16.409182 27.9452101,15.8433985 23.8209424,13.4987729 C20.3206774,11.5080531 17.5857907,11.6524094 15.2652807,13.8992452 C16.1647221,17.4499443 16.856975,20.1461473 17.3420396,21.9831975 L17.3444771,21.9831975 Z" id="形状" fill="#FFFFFF" fill-rule="nonzero"></path>
            </g>
        </g>
    </g>
</svg>