<?xml version="1.0" encoding="UTF-8"?>
<svg width="325px" height="271px" viewBox="0 0 325 271" version="1.1" xmlns="http://www.w3.org/2000/svg" xmlns:xlink="http://www.w3.org/1999/xlink">
    <!-- Generator: Sketch 59 (86127) - https://sketch.com -->
    <title>编组 3</title>
    <desc>Created with Sketch.</desc>
    <defs>
        <linearGradient x1="49.9946628%" y1="99.9937813%" x2="49.9946628%" y2="-0.000220870294%" id="linearGradient-1">
            <stop stop-color="#808080" stop-opacity="0.25" offset="0%"></stop>
            <stop stop-color="#808080" stop-opacity="0.12" offset="54%"></stop>
            <stop stop-color="#808080" stop-opacity="0.1" offset="100%"></stop>
        </linearGradient>
    </defs>
    <g id="页面-1" stroke="none" stroke-width="1" fill="none" fill-rule="evenodd">
        <g id="2-2协会详情（近期活动）备份" transform="translate(-213.000000, -820.000000)">
            <g id="编组-3" transform="translate(213.000000, 820.000000)">
                <g id="undraw_blank_canvas_3rbb-2">
                    <path d="M105.456496,9.64240264 C114.95635,1.19084703 129.867966,-0.541721866 143.442903,0.131151984 C186.07679,2.25054208 224.560792,22.8203282 257.850934,46.0913615 C269.903813,54.5136617 281.76806,63.5925828 289.589747,75.1939681 C305.525826,98.8095648 300.790534,131.523586 278.649142,150.978417 C271.113654,157.596635 261.981305,162.680571 252.605037,167.169647 C235.933948,175.166119 217.945694,181.586051 199.02404,183.422639 C185.533662,184.722878 171.874167,183.666434 158.458591,181.849349 C120.982789,176.758912 84.2029718,165.524845 53.3617824,146.307307 C39.8388819,137.878506 27.0932717,127.398577 21.5188967,113.768818 C15.9445216,100.13906 19.5122517,82.8458766 33.3213512,74.7616386 C39.0323212,71.4232741 45.8620689,69.9149965 52.5454649,68.4977356 C62.3868062,66.4141021 72.384256,64.359724 81.262928,60.1241944 C90.4375558,55.748889 101.296855,47.2875817 99.4755887,37.6007987 C97.5372412,27.2216383 95.9696515,18.0939582 105.456496,9.64240264 Z" id="路径" fill="#C70D3A" fill-rule="nonzero" opacity="0.1"></path>
                    <path d="M223,218 C223,218 230.952049,203.506996 242.924548,199.331157 C247.957936,197.612446 252.313739,194.260331 255.338123,189.777985 C256.757939,187.638825 257.983717,185.369959 259,183" id="路径" stroke="#535461" stroke-width="2"></path>
                    <path d="M267.808283,180.870245 C266.251538,182.411161 259,184 259,184 C259,184 260.777586,176.667748 262.334332,175.130519 C263.89091,173.591346 266.378151,173.628481 267.889741,175.213463 C269.401331,176.798444 269.364861,179.331072 267.808283,180.870245 L267.808283,180.870245 Z" id="路径" fill="#C70D3A" fill-rule="nonzero"></path>
                    <path d="M263.140875,190.958696 C261.226141,191.337376 255,188.987619 255,188.987619 C255,188.987619 259.864987,184.456407 261.776464,184.068018 C263.690895,183.689959 265.551198,184.926012 265.931567,186.82882 C266.311935,188.731628 265.068331,190.580637 263.1539,190.958696 L263.140875,190.958696 Z" id="路径" fill="#C70D3A" fill-rule="nonzero"></path>
                    <path d="M250.589917,204.78076 C248.880379,204.134647 245,198.998052 245,198.998052 C245,198.998052 251.030116,197.524915 252.730608,198.158106 C253.859577,198.547341 254.703515,199.560793 254.936288,200.806821 C255.169062,202.052848 254.75421,203.336275 253.852049,204.161132 C252.949888,204.985989 251.70173,205.223071 250.589917,204.78076 L250.589917,204.78076 Z" id="路径" fill="#C70D3A" fill-rule="nonzero"></path>
                    <path d="M238.886921,211.947728 C236.975145,211.624494 232,207.257593 232,207.257593 C232,207.257593 238.117035,204.710504 240.02881,205.027274 C241.275589,205.220758 242.322492,206.06806 242.770864,207.24653 C243.219235,208.425001 243,209.753268 242.196821,210.725534 C241.393574,211.697799 240.129869,212.164428 238.886921,211.947728 L238.886921,211.947728 Z" id="路径" fill="#C70D3A" fill-rule="nonzero"></path>
                    <path d="M250,184.485531 C250,186.414791 253.496774,192 253.496774,192 C253.496774,192 257,186.414791 257,184.488746 C257,182.561965 255.432997,181 253.5,181 C251.567003,181 250,182.561965 250,184.488746 L250,184.485531 Z" id="路径" fill="#C70D3A" fill-rule="nonzero"></path>
                    <path d="M236.161957,193.252015 C236.745648,194.977014 241.784846,199 241.784846,199 C241.784846,199 243.458094,193.019804 242.877645,191.294805 C242.296495,189.570136 240.322022,188.610152 238.467536,189.15062 C236.61305,189.691089 235.580808,191.527346 236.161957,193.252015 Z" id="路径" fill="#C70D3A" fill-rule="nonzero"></path>
                    <path d="M224.031639,203.97664 C224.290164,205.897393 228.513808,211 228.513808,211 C228.513808,211 231.241242,204.962885 230.982718,203.042132 C230.724823,201.121436 228.959706,199.773602 227.040218,200.031659 C225.120731,200.289716 223.773744,202.055944 224.031639,203.97664 L224.031639,203.97664 Z" id="路径" fill="#C70D3A" fill-rule="nonzero"></path>
                    <path d="M267.808283,180.870245 C266.251538,182.411161 259,184 259,184 C259,184 260.777586,176.667748 262.334332,175.130519 C263.89091,173.591346 266.378151,173.628481 267.889741,175.213463 C269.401331,176.798444 269.364861,179.331072 267.808283,180.870245 L267.808283,180.870245 Z" id="路径" fill="#000000" fill-rule="nonzero" opacity="0.25"></path>
                    <path d="M263.140875,190.958696 C261.226141,191.337376 255,188.987619 255,188.987619 C255,188.987619 259.864987,184.456407 261.776464,184.068018 C263.690895,183.689959 265.551198,184.926012 265.931567,186.82882 C266.311935,188.731628 265.068331,190.580637 263.1539,190.958696 L263.140875,190.958696 Z" id="路径" fill="#000000" fill-rule="nonzero" opacity="0.25"></path>
                    <path d="M250.589917,204.78076 C248.880379,204.134647 245,198.998052 245,198.998052 C245,198.998052 251.030116,197.524915 252.730608,198.158106 C253.859577,198.547341 254.703515,199.560793 254.936288,200.806821 C255.169062,202.052848 254.75421,203.336275 253.852049,204.161132 C252.949888,204.985989 251.70173,205.223071 250.589917,204.78076 L250.589917,204.78076 Z" id="路径" fill="#000000" fill-rule="nonzero" opacity="0.25"></path>
                    <path d="M238.886921,211.947728 C236.975145,211.624494 232,207.257593 232,207.257593 C232,207.257593 238.117035,204.710504 240.02881,205.027274 C241.275589,205.220758 242.322492,206.06806 242.770864,207.24653 C243.219235,208.425001 243,209.753268 242.196821,210.725534 C241.393574,211.697799 240.129869,212.164428 238.886921,211.947728 L238.886921,211.947728 Z" id="路径" fill="#000000" fill-rule="nonzero" opacity="0.25"></path>
                    <path d="M250,184.485531 C250,186.414791 253.496774,192 253.496774,192 C253.496774,192 257,186.414791 257,184.488746 C257,182.561965 255.432997,181 253.5,181 C251.567003,181 250,182.561965 250,184.488746 L250,184.485531 Z" id="路径" fill="#000000" fill-rule="nonzero" opacity="0.25"></path>
                    <path d="M236.161957,193.252015 C236.745648,194.977014 241.784846,199 241.784846,199 C241.784846,199 243.458094,193.019804 242.877645,191.294805 C242.296495,189.570136 240.322022,188.610152 238.467536,189.15062 C236.61305,189.691089 235.580808,191.527346 236.161957,193.252015 Z" id="路径" fill="#000000" fill-rule="nonzero" opacity="0.25"></path>
                    <path d="M224.031639,203.97664 C224.290164,205.897393 228.513808,211 228.513808,211 C228.513808,211 231.241242,204.962885 230.982718,203.042132 C230.724823,201.121436 228.959706,199.773602 227.040218,200.031659 C225.120731,200.289716 223.773744,202.055944 224.031639,203.97664 L224.031639,203.97664 Z" id="路径" fill="#000000" fill-rule="nonzero" opacity="0.25"></path>
                    <path d="M224,217 C224,217 225.632375,200.439028 235.360271,191.633056 C239.463446,187.963344 242.245894,183.08333 243.289899,177.725625 C243.767464,175.177361 244.005142,172.591203 244,170" id="路径" stroke="#535461" stroke-width="2"></path>
                    <path d="M248.712614,164.624887 C247.991795,166.321007 242.662882,170 242.662882,170 C242.662882,170 241.517295,163.84394 242.238114,162.150871 C242.682332,161.024473 243.736052,160.215095 244.990534,160.036695 C246.245017,159.858295 247.502874,160.338943 248.276182,161.292196 C249.049489,162.24545 249.21657,163.521317 248.712614,164.624887 L248.712614,164.624887 Z" id="路径" fill="#C70D3A" fill-rule="nonzero"></path>
                    <path d="M250.462613,176.49529 C248.827487,177.631231 242,178 242,178 C242,178 244.669594,171.786897 246.294709,170.650956 C247.35278,169.91634 248.727677,169.794489 249.90149,170.331303 C251.075302,170.868116 251.8697,171.98204 251.985441,173.25347 C252.101183,174.524899 251.520684,175.760674 250.462613,176.49529 Z" id="路径" fill="#C70D3A" fill-rule="nonzero"></path>
                    <path d="M243.805575,193.993757 C241.870309,194.155136 236,191.134134 236,191.134134 C236,191.134134 241.292954,187.177139 243.205642,187.012533 C245.132187,186.850322 246.825371,188.281625 246.987476,190.209437 C247.14958,192.137248 245.719218,193.831546 243.792673,193.993757 L243.805575,193.993757 Z" id="路径" fill="#C70D3A" fill-rule="nonzero"></path>
                    <path d="M234.277401,204.923687 C232.38281,205.40866 226,203.423503 226,203.423503 C226,203.423503 230.602548,198.615802 232.497139,198.130829 C233.732396,197.787345 235.058755,198.131486 235.964915,199.030587 C236.871076,199.929689 237.215518,201.243333 236.865461,202.465122 C236.515405,203.68691 235.525521,204.626028 234.277401,204.920454 L234.277401,204.923687 Z" id="路径" fill="#C70D3A" fill-rule="nonzero"></path>
                    <path d="M235.273957,176.692588 C236.05604,178.403448 241.537082,182 241.537082,182 C241.537082,182 242.471056,175.668569 241.685742,173.957709 C240.879117,172.28504 238.835015,171.543794 237.088281,172.290546 C235.341547,173.037298 234.534871,174.997289 235.273957,176.698832 L235.273957,176.692588 Z" id="路径" fill="#C70D3A" fill-rule="nonzero"></path>
                    <path d="M224.962526,189.357217 C226.309494,190.933421 233,193 233,193 C233,193 231.871275,185.91759 230.520898,184.341386 C229.655822,183.294381 228.308138,182.808177 226.995662,183.069585 C225.683186,183.330992 224.610089,184.299347 224.188681,185.602582 C223.767274,186.905818 224.063112,188.341199 224.962526,189.357217 L224.962526,189.357217 Z" id="路径" fill="#C70D3A" fill-rule="nonzero"></path>
                    <path d="M217.55955,204.373933 C218.647156,206.035156 224.999607,209 224.999607,209 C224.999607,209 225.051563,202.342105 223.960493,200.680882 C223.257612,199.607127 221.997788,198.966883 220.655582,199.001323 C219.313377,199.035762 218.092704,199.739654 217.453379,200.847848 C216.814054,201.956043 216.853206,203.300179 217.556086,204.373933 L217.55955,204.373933 Z" id="路径" fill="#C70D3A" fill-rule="nonzero"></path>
                    <ellipse id="椭圆形" fill="#C70D3A" fill-rule="nonzero" opacity="0.1" cx="121.5" cy="264.5" rx="38.5" ry="6.5"></ellipse>
                    <ellipse id="椭圆形" fill="#C70D3A" fill-rule="nonzero" opacity="0.1" cx="198.5" cy="214.5" rx="38.5" ry="6.5"></ellipse>
                    <polygon id="路径" fill="#B77B7F" fill-rule="nonzero" points="200 130.195054 199.963796 131.459652 197.738892 209 194 209 195.833242 131.459652 195.869446 130"></polygon>
                    <polygon id="路径" fill="#DDA2A6" fill-rule="nonzero" points="221 195 218.237208 194.994718 177.188157 194.923415 175 194.920775 176.165502 192 220.707813 192"></polygon>
                    <polygon id="路径" fill="#000000" fill-rule="nonzero" opacity="0.1" points="200 129.267261 199.965245 131 196 131 196.034755 129"></polygon>
                    <rect id="矩形" fill="#B77B7F" fill-rule="nonzero" x="195" y="127" width="7" height="3"></rect>
                    <polygon id="路径" fill="#000000" fill-rule="nonzero" opacity="0.1" points="179 192 178.572519 195 176 194.99729 177.370229 192"></polygon>
                    <polygon id="路径" fill="#DDA2A6" fill-rule="nonzero" points="184 127 183.889697 128.117681 175.049697 218 171 217.801807 180.315879 128.117681 180.419879 127.097472"></polygon>
                    <polygon id="路径" fill="#000000" fill-rule="nonzero" opacity="0.1" points="221 195 218.357143 194.994718 218 192 220.720497 192"></polygon>
                    <polygon id="路径" fill="#DDA2A6" fill-rule="nonzero" points="226 217.801807 221.947152 218 213.110303 128.117681 213 127 216.57697 127.097472 216.68097 128.117681"></polygon>
                    <rect id="矩形" fill="#FFFFFF" fill-rule="nonzero" x="152" y="39" width="93" height="88"></rect>
                    <path d="M198.998638,9.8577548 L198.998638,31 L196.001362,31 L196.001362,9.8577548 C195.977931,9.20361708 196.258335,8.58689674 196.731664,8.25152717 C197.204993,7.91615761 197.795007,7.91615761 198.268336,8.25152717 C198.741665,8.58689674 199.022069,9.20361708 198.998638,9.8577548 Z" id="路径" fill="#DDA2A6" fill-rule="nonzero"></path>
                    <rect id="矩形" fill="#000000" fill-rule="nonzero" opacity="0.1" x="196" y="29" width="3" height="2"></rect>
                    <path d="M201,29.8837837 L201,37 L195,37 L195,29.8837837 C194.999191,29.6491235 195.085379,29.4238212 195.239437,29.2578902 C195.393494,29.0919592 195.602675,28.9991289 195.820544,29 L200.185563,29 C200.636349,29.0036161 201,29.3982414 201,29.8837837 L201,29.8837837 Z" id="路径" fill="#DDA2A6" fill-rule="nonzero"></path>
                    <circle id="椭圆形" fill="#000000" fill-rule="nonzero" opacity="0.1" cx="198.5" cy="34.5" r="1.5"></circle>
                    <circle id="椭圆形" fill="#B77B7F" fill-rule="nonzero" cx="198.5" cy="34.5" r="1.5"></circle>
                    <rect id="矩形" fill="#000000" fill-rule="nonzero" opacity="0.1" x="195" y="36" width="6" height="1"></rect>
                    <rect id="矩形" fill="#000000" fill-rule="nonzero" opacity="0.1" x="192" y="37" width="12" height="2"></rect>
                    <rect id="矩形" fill="#DDA2A6" fill-rule="nonzero" x="192" y="37" width="12" height="2"></rect>
                    <path d="M173.144821,124 L222.855179,124 C224.039731,124 225,125.102329 225,126.462121 L225,127 L171,127 L171,126.462121 C171,125.102329 171.960269,124 173.144821,124 Z" id="路径" fill="#000000" fill-rule="nonzero" opacity="0.1"></path>
                    <polygon id="路径" fill="#000000" fill-rule="nonzero" opacity="0.1" points="181.084688 127.174419 184 127 183.91018 129 181 129"></polygon>
                    <rect id="矩形" fill="#000000" fill-rule="nonzero" opacity="0.1" x="195" y="127" width="7" height="2"></rect>
                    <polygon id="路径" fill="#000000" fill-rule="nonzero" opacity="0.1" points="216 129 213.089897 129 213 127 215.91524 127.174419"></polygon>
                    <path d="M173.144821,125 L222.855179,125 C224.039731,125 225,126.102329 225,127.462121 L225,128 L171,128 L171,127.462121 C171,126.809126 171.225972,126.182876 171.628204,125.721139 C172.030436,125.259401 172.575979,125 173.144821,125 L173.144821,125 Z" id="路径" fill="#DDA2A6" fill-rule="nonzero"></path>
                    <path d="M163.832538,84.4024793 C163.094488,84.0124152 155.053974,77.9404179 155.053974,77.9404179 L142.077956,69.7133166 C142.077956,69.7133166 142.009678,69.5182846 141.886128,69.1834796 C145.446323,65.143066 144.669258,59.2791028 141.047287,55.1574259 C136.658005,50.1581047 116.824953,39.395587 110.849027,48.601099 C110.013437,49.9013126 109.984176,51.377055 109.766337,52.8072899 C109.25588,56.1455882 107.610712,59.3798694 105.029164,62.1038168 C103.039356,64.2069122 100.428546,66.1442304 99.2840813,68.5236212 C99.2840813,68.4943664 99.2613221,68.4651116 99.2515681,68.4326063 C98.9753006,68.9425805 98.774863,69.4900919 98.6565765,70.0578732 C98.0875955,72.9606 100.038388,75.743057 101.075559,78.5677709 C101.423694,79.5243353 101.676359,80.5129742 101.829865,81.5192557 C101.855875,81.3177226 101.878635,81.11944 101.901394,80.9179069 C102.154163,82.3507402 102.240353,83.8079901 102.158248,85.2606202 C94.9565743,86.726611 94.953323,99.0428839 94.953323,99.0428839 C94.953323,99.0428839 94.0657126,103.938188 94.2152733,105.703228 C94.3648341,107.468268 94.3615827,111.284395 94.3615827,112.204296 C94.3615827,113.124197 93.4739724,118.861389 93.3861867,119.550502 C93.3870491,119.560235 93.3870491,119.570024 93.3861867,119.579757 C93.2561339,120.333881 91.9068361,123.967978 95.1679101,124.780611 C95.3955025,124.839121 95.6361002,124.887879 95.8864518,124.933386 C96.0262586,127.87512 96.2798616,134.034881 96.0555205,135.406607 C96.0555205,135.406607 97.2422523,143.682466 98.2274023,145.785561 C98.8503672,147.018731 99.5792313,148.195507 100.405787,149.302639 C100.334253,149.806562 100.164112,150.291457 99.9050834,150.729623 C99.4011288,151.454492 99.6612344,152.04934 100.503326,152.306132 C100.474064,152.556423 100.441551,152.83922 100.405787,153.157772 C100.04489,156.349796 99.5051711,162.694839 100.422043,165.909617 C101.680304,170.317341 101.755085,171.786582 101.755085,171.786582 C101.755085,171.786582 101.755085,173.106299 102.275296,173.840919 C102.795507,174.57554 103.754646,181.408162 103.754646,182.510093 C103.754646,183.612024 106.271168,193.526152 105.529867,195.876288 C104.788566,198.226424 105.383558,201.532217 105.383558,201.532217 C105.383558,201.532217 104.938127,207.33442 104.408162,208.582625 C103.878197,209.83083 103.666861,229.954886 104.479691,235.168742 C105.292521,240.382599 105.812732,244.71556 105.812732,244.71556 C105.812732,244.71556 105.295772,249.490594 105.737952,250.150453 C106.180131,250.810311 106.996212,254.779213 106.404472,254.996999 C105.812732,255.214785 105.516862,256.833551 105.516862,256.833551 C105.829787,257.309131 106.167299,257.768079 106.528022,258.208526 C106.299905,258.128927 106.077254,258.034458 105.861502,257.92573 C106.095597,258.250783 106.446739,258.712359 106.879165,259.225943 L106.47275,264.508061 C106.437526,264.933274 106.711069,265.322977 107.123014,265.434463 C109.768258,266.153336 112.594574,265.358861 114.4775,263.367124 C118.177502,259.622509 119.435763,260.136093 120.102284,257.860719 C120.173813,257.616929 120.235588,257.37639 120.287609,257.148852 C120.765553,255.120519 118.603425,253.612271 116.883477,254.476913 C117.120823,252.87115 117.306148,251.0476 117.127326,250.017181 C116.756675,247.888081 116.831456,242.306915 116.831456,242.306915 L116.314496,215.571273 C116.314496,215.571273 117.273635,210.282655 118.385587,208.228317 C119.497538,206.17398 119.360983,198.974047 119.360983,198.974047 L120.619243,175.323163 L121.802724,163.793519 C121.802724,163.793519 122.986204,159.827868 124.465555,164.235592 C124.465555,164.235592 123.652725,173.119301 124.023376,175.251651 C124.394026,177.384001 124.910986,187.736952 124.540335,190.012325 C124.169685,192.287699 122.544025,204.77625 123.564939,207.932519 C124.585854,211.088787 125.723816,214.914665 125.496223,216.166121 C125.268631,217.417577 124.520827,244.514027 124.520827,244.514027 C124.520827,244.514027 126.520389,249.714881 125.041039,251.418161 C123.561688,253.121441 124.966258,259.869549 124.966258,259.869549 C124.966258,259.869549 125.145081,259.99632 125.450705,260.171849 L125.408438,260.734191 L124.943499,266.809439 C124.909302,267.235104 125.182115,267.625132 125.593763,267.739092 C128.239011,268.458709 131.065709,267.664127 132.948249,265.671752 C136.648251,261.923887 137.906512,262.440721 138.573033,260.162097 C138.644562,259.918307 138.706337,259.681018 138.761609,259.45023 C139.28182,257.236617 136.648251,255.630853 134.886036,257.077341 L134.79825,257.152103 C134.706181,257.230347 134.609556,257.30307 134.508883,257.369889 C134.462119,257.404318 134.413254,257.435801 134.362573,257.464154 C134.733224,255.786879 135.272943,252.913407 135.012837,251.567686 C134.642187,249.58486 135.380236,243.564871 135.380236,243.564871 C135.380236,243.564871 137.526108,236.364939 137.600888,233.488216 L138.192628,210.575203 C138.192628,210.575203 138.121099,201.24617 138.416969,198.970797 C138.712839,196.695423 141.0798,177.01019 143.446761,171.133225 C145.264249,166.634486 146.077079,155.1536 145.595884,149.331894 C145.569873,149.045847 145.543863,148.769551 145.51135,148.512759 C148.414778,146.370657 148.704146,142.808072 148.704146,142.808072 C148.704146,142.808072 146.038064,137.717736 143.472772,135.562632 C140.907481,133.407528 140.354756,129.70192 140.445793,128.125411 C140.489371,127.164752 140.17286,126.222401 139.558183,125.482727 C139.558183,125.482727 138.374702,121.663349 137.584631,121.273285 C137.520003,121.240393 137.461672,121.196381 137.412311,121.143264 C136.875844,120.567919 137.288761,118.923149 137.288761,118.923149 L137.288761,118.871141 C137.38305,118.490828 137.939025,116.026923 137.773208,115.39632 C137.574877,114.713708 137.870748,111.479427 137.870748,111.479427 C137.870748,111.479427 139.746759,105.89826 139.450889,101.490536 C139.155019,97.082812 143.300452,97.4761266 143.300452,97.4761266 L156.100899,97.3428547 L157.55749,97.3428547 C158.071118,96.9068255 158.540495,96.4212308 158.958809,95.8931166 C161.397299,95.6038191 166.329552,94.683918 166.882276,91.9924759 C167.633331,88.4201392 164.573839,84.7957939 163.832538,84.4024793 Z M104.528461,125.151172 L104.616246,122.911554 C104.918619,123.171597 105.120201,123.337374 105.120201,123.337374 C105.283435,123.923359 105.291279,124.541734 105.14296,125.131669 C104.982099,125.692927 104.573869,126.15013 104.03426,126.373373 C103.972373,126.400269 103.912597,126.43178 103.855437,126.467638 L103.731887,125.203181 L104.528461,125.151172 Z M150.957311,85.819712 C150.41434,85.575922 148.587098,85.62468 147.647467,85.62468 C146.707835,85.62468 145.182966,84.8413013 145.182966,84.8413013 C144.857834,84.2074472 143.059854,83.8303853 141.460205,83.6158501 C140.244211,80.6188578 138.534017,77.6966279 138.303173,74.5728648 C138.303173,74.4590961 138.303173,74.3453274 138.286917,74.2315587 L138.472242,74.5566121 C138.472242,74.5566121 145.924267,79.3088927 146.763108,80.7326265 C147.413372,81.8183048 150.544393,84.2432031 151.994482,85.3288814 C151.794817,85.589317 151.514844,85.7766824 151.197908,85.861969 C151.115325,85.8709284 151.031895,85.8562752 150.957311,85.819712 Z" id="形状" fill="url(#linearGradient-1)" fill-rule="nonzero"></path>
                    <path d="M137.944558,258.79637 C137.891975,259.016442 137.8363,259.245946 137.768252,259.478593 C137.149633,261.679315 135.964979,261.170005 132.509994,264.763468 C130.755385,266.675108 128.102643,267.440292 125.621676,266.750405 C125.229487,266.645 124.968544,266.268376 125.003057,265.857541 L125.439183,260.028774 L125.646421,257.224426 C125.646421,257.224426 131.164498,258.79637 133.973027,256.800001 C134.067247,256.734572 134.158097,256.664266 134.245219,256.589361 C134.266887,256.569494 134.287535,256.548507 134.307081,256.526483 C135.050264,255.901127 136.102539,255.825658 136.924755,256.338743 C137.74697,256.851829 138.15692,257.839766 137.944558,258.79637 L137.944558,258.79637 Z" id="路径" fill="#67647E" fill-rule="nonzero"></path>
                    <path d="M119.944558,256.79637 C119.891975,257.016442 119.8363,257.245946 119.768252,257.478593 C119.149633,259.679315 117.964979,259.170005 114.509994,262.763468 C112.755385,264.675108 110.102643,265.440292 107.621676,264.750405 C107.229487,264.645 106.968544,264.268376 107.003057,263.857541 L107.439183,258.028774 L107.646421,255.224426 C107.646421,255.224426 113.164498,256.79637 115.973027,254.800001 C116.067247,254.734572 116.158097,254.664266 116.245219,254.589361 C116.266887,254.569494 116.287535,254.548507 116.307081,254.526483 C117.050264,253.901127 118.102539,253.825658 118.924755,254.338743 C119.74697,254.851829 120.15692,255.839766 119.944558,256.79637 Z" id="路径" fill="#67647E" fill-rule="nonzero"></path>
                    <path d="M114.750769,257.106986 L115,259.971839 C111.455385,263.012031 107.235769,258.48592 106,257 C109.250385,258.43837 114.750769,257.106986 114.750769,257.106986 Z" id="路径" fill="#000000" fill-rule="nonzero" opacity="0.1"></path>
                    <path d="M134.507068,258.726689 L134.992751,258.47268 C131.603842,262.531112 126.569409,260.658868 125,259.93109 L125.242842,257.385294 C125.242842,257.385294 131.708953,258.81231 135,257 C134.74266,257.993203 134.507068,258.726689 134.507068,258.726689 Z" id="路径" fill="#000000" fill-rule="nonzero" opacity="0.1"></path>
                    <path d="M143.759745,172.191093 C141.432339,178.012208 139.108175,197.514404 138.816439,199.787009 C138.524703,202.059614 138.599258,211.286389 138.599258,211.286389 L138.015786,233.976725 C137.941231,236.817481 135.834248,243.950213 135.834248,243.950213 C135.834248,243.950213 135.108149,249.917424 135.471199,251.881604 C135.834248,253.845784 134.527919,259.024076 134.527919,259.024076 L134.962281,258.731884 C131.328546,264.251067 125.587828,260.114927 125.587828,260.114927 C125.587828,260.114927 124.206944,253.420482 125.662383,251.745248 C127.117822,250.070013 125.153465,244.904707 125.153465,244.904707 C125.153465,244.904707 125.879564,218.049012 126.096745,216.812065 C126.313927,215.575119 125.224779,211.789609 124.206944,208.659907 C123.189109,205.530206 124.790416,193.157496 125.153465,190.901124 C125.516515,188.644752 125.007597,178.382318 124.644548,176.272042 C124.281499,174.161766 125.078911,165.353799 125.078911,165.353799 C123.626713,160.987152 122.46301,164.918758 122.46301,164.918758 L121.299307,176.343467 L120.064291,199.780516 C120.064291,199.780516 120.210159,206.922988 119.121011,208.952099 C118.031863,210.981211 117.085342,216.227681 117.085342,216.227681 L117.594259,242.723007 C117.594259,242.723007 117.522946,248.24219 117.885995,250.362205 C118.249045,252.482221 117.085342,257.933226 117.085342,257.933226 C113.017244,267.533358 106.482355,257.124828 106.482355,257.124828 C106.482355,257.124828 106.774092,255.524265 107.354322,255.306744 C107.934553,255.089223 107.137141,251.157617 106.70602,250.501808 C106.274899,249.845999 106.777333,245.115735 106.777333,245.115735 C106.777333,245.115735 106.268416,240.823758 105.480728,235.655206 C104.693041,230.486653 104.900497,210.546169 105.409415,209.309223 C105.918332,208.072277 106.352695,202.322586 106.352695,202.322586 C106.352695,202.322586 105.772464,199.046789 106.498563,196.715746 C107.224662,194.384702 104.754629,184.563803 104.754629,183.469706 C104.754629,182.375609 103.811349,175.60974 103.302432,174.882507 C102.793515,174.155273 102.793515,172.843655 102.793515,172.843655 C102.793515,172.843655 102.722201,171.389188 101.49691,167.022541 C100.595769,163.834401 101.127377,157.549025 101.480702,154.383611 C101.607121,153.211597 101.717333,152.464884 101.717333,152.464884 C101.717333,152.464884 143.393454,145.695768 145.05635,147.224906 C145.445332,147.585276 145.704652,148.822223 145.857004,150.585115 C146.352955,156.351038 145.536094,167.746528 143.759745,172.191093 Z" id="路径" fill="#444053" fill-rule="nonzero"></path>
                    <path d="M127,204.964021 C127.202832,204.964021 132.003198,205.353482 133.761079,205.012704 C135.518959,204.671925 127,204.964021 127,204.964021 Z" id="路径" fill="#000000" fill-rule="nonzero" opacity="0.1"></path>
                    <path d="M127,208.001181 C127,208.001181 133.649497,209.587345 133.988584,208.761986 C134.327671,207.936628 127,208.001181 127,208.001181 Z" id="路径" fill="#000000" fill-rule="nonzero" opacity="0.1"></path>
                    <path d="M108,206 C108,206 111.670188,206.245227 113.667839,207.634849 C115.66549,209.02447 108,206 108,206 Z" id="路径" fill="#000000" fill-rule="nonzero" opacity="0.1"></path>
                    <path d="M96,125.097309 C96,125.097309 96.5774648,135.227174 96.2640845,137.020903 C96.2640845,137.020903 97.5246479,145.21432 98.5774648,147.296732 C99.6302817,149.379145 101.894366,152 101.894366,152 L105,131.889476 L104.260563,125 L96,125.097309 Z" id="路径" fill="#EFB7B9" fill-rule="nonzero"></path>
                    <circle id="椭圆形" fill="#EFB7B9" fill-rule="nonzero" cx="126.5" cy="66.5" r="11.5"></circle>
                    <path d="M120.351406,72.3827483 C120.351406,72.3827483 116.846946,79.1178313 113.342486,82.268112 C109.838025,85.4183928 134.369248,89 134.952239,89 C135.53523,89 130.571664,74.6767661 131.447779,72.9482652 C132.323894,71.2197643 120.351406,72.3827483 120.351406,72.3827483 Z" id="路径" fill="#EFB7B9" fill-rule="nonzero"></path>
                    <path d="M145,150.577741 C144.457389,150.995934 143.858606,151.33411 143.221639,151.58211 C138.811045,153.325176 134.012038,155.745382 130.750638,154.779892 C127.489239,153.814401 120.581236,154.779892 120.581236,154.779892 C120.581236,154.779892 106.665718,153.616767 103.889035,154.293907 C102.62428,154.601697 101.642008,154.588737 101,154.368424 C101.125192,153.19882 101.234333,152.453643 101.234333,152.453643 C101.234333,152.453643 142.553951,145.69845 144.2007,147.224444 C144.592325,147.584073 144.842708,148.818475 145,150.577741 Z" id="路径" fill="#000000" fill-rule="nonzero" opacity="0.1"></path>
                    <path d="M148,142.905109 C148,142.905109 147.61283,147.79247 143.135973,149.551266 C138.659116,151.310062 133.801596,153.752108 130.49601,152.777905 C127.190424,151.803702 120.188828,152.777905 120.188828,152.777905 C120.188828,152.777905 106.084776,151.604285 103.270473,152.287535 C100.456169,152.970784 98.9888275,152.094655 99.864027,150.822961 C100.739227,149.551266 100.644874,145.350424 100.644874,143.591628 C100.644874,141.832831 99.6688152,134.699572 100.544015,133.427878 C101.419214,132.156183 102.196808,127.272091 103.947207,126.487498 C104.47959,126.262228 104.881618,125.806574 105.040393,125.248495 C105.185075,124.660268 105.177234,124.04459 105.017618,123.460276 C105.017618,123.460276 104.721547,123.215091 104.314856,122.852217 C103.283487,121.92705 101.539595,120.210753 102.099202,119.648461 C102.876796,118.863868 102.099202,113.783628 102.099202,113.783628 C102.099202,113.783628 100.251197,109.877008 100.934438,108.412434 C101.61768,106.94786 95,99.2261565 95,99.2261565 C95,99.2261565 95,85.9403799 102.974401,85.351935 C102.974401,85.351935 108.616022,85.5480833 109.29601,83.0079631 C109.975998,80.4678429 114.449601,79 114.449601,79 L124.662431,81.2491669 C124.662431,81.2491669 133.70399,83.2106497 135.360037,82.0304909 C137.016083,80.8503321 138.288214,83.5931388 138.288214,83.5931388 C138.288214,83.5931388 143.926581,83.8873612 144.508963,85.0609818 C145.091344,86.2346023 142.664211,97.6635086 142.664211,97.6635086 C142.664211,97.6635086 138.577778,97.2744812 138.870595,101.671472 C139.163413,106.068462 137.295887,111.639073 137.295887,111.639073 C137.295887,111.639073 137.003069,114.862443 137.198281,115.545693 C137.380479,116.176637 136.814365,118.635029 136.723266,119.014249 L136.723266,119.063286 C136.723266,119.063286 136.316575,120.697855 136.843646,121.279761 C136.892493,121.33241 136.949656,121.376592 137.01283,121.410527 C137.793677,121.799554 138.964948,125.611369 138.964948,125.611369 C139.572136,126.351313 139.884052,127.291548 139.840147,128.249563 C139.745795,129.81548 140.328177,133.525952 142.856169,135.677045 C145.384162,137.828137 148,142.905109 148,142.905109 Z" id="路径" fill="#C70D3A" fill-rule="nonzero"></path>
                    <path d="M104,120.856709 L104,121.272435 L103.832944,125.85524 C103.832944,125.85524 98.1437623,126.342982 95.0470408,125.527897 C91.9503193,124.712812 93.2527366,121.076029 93.3764817,120.323139 C93.3776147,120.313356 93.3776147,120.303462 93.3764817,120.293679 C93.4661969,119.606258 94.3045701,113.884298 94.3045701,112.954643 C94.3045701,112.024988 94.3045701,108.208166 94.1653568,106.447059 C94.0261436,104.685952 94.845955,99.7790769 94.845955,99.7790769 L95.4461188,99 L101.961299,101.64166 L104,120.856709 Z" id="路径" fill="#C70D3A" fill-rule="nonzero"></path>
                    <path d="M104,122.003331 L103.832944,126.847 C103.832944,126.847 98.1437623,127.362505 95.0470408,126.501024 C91.9503193,125.639543 93.2527366,121.795746 93.3764817,121 L104,122.003331 Z" id="路径" fill="#000000" fill-rule="nonzero" opacity="0.1"></path>
                    <path d="M105.7136,126 C105.855902,125.434172 105.848189,124.841938 105.6912,124.279874 C105.6912,124.279874 105.4,124.044025 105,123.694969 C110.0656,123 130.1264,120.295597 136.8816,120 L136.8816,120.04717 C136.8816,120.04717 136.4816,121.619497 137,122.179245 L105.7136,126 Z" id="路径" fill="#000000" fill-rule="nonzero" opacity="0.1"></path>
                    <path d="M137.871622,130 C137.871622,130 138.924459,137.397417 135,140 C134.997296,140.013413 137.224763,136.344967 137.871622,130 Z" id="路径" fill="#000000" fill-rule="nonzero" opacity="0.1"></path>
                    <path d="M107,139.461711 C107,139.461711 118.526603,136.644307 120.782524,138.832491 C123.038445,141.020675 107,139.461711 107,139.461711 Z" id="路径" fill="#000000" fill-rule="nonzero" opacity="0.1"></path>
                    <path d="M133.530615,95 C133.530615,95 130.638751,102.973373 132.804962,104.804509 C134.971172,106.635646 133.530615,95 133.530615,95 Z" id="路径" fill="#000000" fill-rule="nonzero" opacity="0.1"></path>
                    <path d="M100.058003,89 C100.058003,89 101.657937,91.6665869 100.687591,94.4304944 C99.7172458,97.194402 100.058003,89 100.058003,89 Z" id="路径" fill="#000000" fill-rule="nonzero" opacity="0.1"></path>
                    <path d="M97,114 C97,114 99.7209839,115.028617 98.8154335,116.636348 C97.9098831,118.244079 97,114 97,114 Z" id="路径" fill="#000000" fill-rule="nonzero" opacity="0.1"></path>
                    <path d="M97,108 C97,108 98.7572639,109.069809 98.9837154,110.647267 C99.210167,112.224725 97,108 97,108 Z" id="路径" fill="#000000" fill-rule="nonzero" opacity="0.1"></path>
                    <path d="M126,165.720081 C126,165.720081 137.667729,167.024971 140,164 C140,164.017445 129.476104,166.295768 126,165.720081 Z" id="路径" fill="#000000" fill-rule="nonzero" opacity="0.1"></path>
                    <path d="M104,164 C104,164 117.359388,167.894067 120,164.81494 C120,164.81494 108.519966,165.881922 104,164 Z" id="路径" fill="#000000" fill-rule="nonzero" opacity="0.1"></path>
                    <path d="M126,169.906529 C126,169.906529 131.861392,169.906529 134.578169,170.052577 C137.294946,170.198625 126,169.906529 126,169.906529 Z" id="路径" fill="#000000" fill-rule="nonzero" opacity="0.1"></path>
                    <path d="M106,171 C106,171 108.533585,174.563726 111.396819,173.922881 C114.260053,173.282035 106,171 106,171 Z" id="路径" fill="#000000" fill-rule="nonzero" opacity="0.1"></path>
                    <path d="M111.0197,50.5862754 C110.193307,51.8690809 110.16391,53.3542628 109.948329,54.7774262 C109.445308,58.103581 107.815388,61.3252834 105.26435,64.0410446 C102.922361,66.5283164 99.7115164,68.7838345 99.103971,71.8227453 C98.5290893,74.7082416 100.479114,77.4860215 101.501489,80.3094993 C104.196247,87.7158242 100.433385,95.4844683 99.3358835,103.129075 C99.0321108,105.240971 99.3979445,107.940412 102.001244,108.642201 C102.814571,108.864162 103.745487,108.834785 104.477155,109.187312 C105.457066,109.657348 105.757573,110.633324 105.937223,111.511377 C106.59241,114.652187 106.81876,117.867223 106.610096,121.068768 C106.492507,122.864042 106.361852,124.930241 108.060366,126.164084 C108.83123,126.72878 109.869936,127.016024 110.872713,127.286947 C113.547872,128.008321 117.006961,128.592601 118.809999,126.898515 C119.567798,126.190197 119.851972,125.191372 120.795954,124.62994 C122.210294,123.791057 124.215847,124.359017 125.99602,124.447149 C129.651091,124.62994 133.008923,122.488667 134.449393,119.906735 C135.889864,117.324803 135.755943,114.357704 135.233323,111.573395 C134.710703,108.789087 133.776521,106.024364 133.711193,103.197622 C133.688328,102.218381 133.776521,101.22282 134.338337,100.354559 C135.426039,98.6735294 137.957478,97.9097215 139.688656,96.5877463 C142.932164,94.1070029 142.922365,90.0431533 141.743204,86.6419235 C140.564044,83.2406936 138.447434,79.9798215 138.186124,76.4643469 C138.069502,75.6145223 138.238379,74.7500482 138.666281,74.0064524 C139.130106,73.2916065 139.940166,72.7562882 140.626105,72.1654796 C145.359079,68.1701769 144.80053,61.6092632 140.887415,57.1178118 C136.556204,52.1400042 116.931835,41.4173169 111.0197,50.5862754 Z" id="路径" fill="#E3787D" fill-rule="nonzero"></path>
                    <g id="编组" opacity="0.1" transform="translate(99.000000, 62.000000)" fill="#000000" fill-rule="nonzero">
                        <path d="M3.33776978,21.3917647 C3.70359712,18.4508824 3.63561151,15.5358824 2.59640288,12.6726471 C2.08489209,11.2685294 1.34352518,9.87411765 0.802877698,8.46676471 C0.532808415,8.97561564 0.33659571,9.52029469 0.220143885,10.0844118 C-0.349640288,12.9444118 1.58309353,15.6976471 2.59640288,18.4961765 C2.9375183,19.4348729 3.18582564,20.4046974 3.33776978,21.3917647 Z" id="路径"></path>
                        <path d="M7.65971223,53.0717647 C7.86599979,49.8986592 7.64276142,46.712246 6.99604317,43.5988235 C6.8147482,42.7285294 6.51690647,41.7644118 5.54568345,41.2985294 C4.8205036,40.9491176 3.89784173,40.975 3.09172662,40.7582353 C2.08805044,40.5177708 1.25171004,39.827644 0.825539568,38.8882353 C0.676618705,39.6258824 0.547122302,40.3602941 0.44028777,41.0979412 C0.139208633,43.1911765 0.501798561,45.8667647 3.08201439,46.5623529 C3.8881295,46.7791176 4.81079137,46.75 5.53597122,47.0994118 C6.50719424,47.5652941 6.80503597,48.5326471 6.98633094,49.4029412 C7.283313,50.8468233 7.49090132,52.3076356 7.60791367,53.7770588 C7.63057554,53.5376471 7.64352518,53.3047059 7.65971223,53.0717647 Z" id="路径"></path>
                        <path d="M35.2553957,51.9232353 C33.8244604,54.4920588 30.4964029,56.6047059 26.873741,56.4235294 C25.1093525,56.3329412 23.1215827,55.7764706 21.7230216,56.6047059 C20.7874101,57.1579412 20.502518,58.1511765 19.7514388,58.8532353 C17.9643885,60.5194118 14.5359712,59.9532353 11.8845324,59.2382353 C10.8906475,58.9664706 9.86438849,58.685 9.0971223,58.1252941 C8.36592558,57.5878601 7.8725205,56.787326 7.72122302,55.8929412 C7.74064748,56.8861765 7.72122302,57.8826471 7.65971223,58.8758824 C7.54316547,60.6552941 7.41366906,62.7032353 9.0971223,63.9294118 C9.86438849,64.4858824 10.8906475,64.7705882 11.8845324,65.0391176 C14.5359712,65.7541176 17.9643885,66.3332353 19.7514388,64.6541176 C20.502518,63.9520588 20.7874101,62.9620588 21.7230216,62.3894118 C23.1215827,61.5579412 25.1093525,62.1208824 26.873741,62.2082353 C30.4964029,62.3894118 33.8244604,60.2670588 35.2553957,57.7079412 C36.6280576,55.2361765 36.5665468,52.4408824 36.0874101,49.7717647 C35.9069284,50.5226699 35.627128,51.2461937 35.2553957,51.9232353 Z" id="路径"></path>
                        <path d="M41.3870504,4.61676471 C40.6942446,5.19911765 39.8913669,5.73294118 39.4446043,6.44147059 C39.0204969,7.17849603 38.8531169,8.03533158 38.968705,8.87764706 C39.0627299,9.93635254 39.286714,10.9794796 39.6356115,11.9835294 C40.1747529,11.4089169 40.7653411,10.884774 41.4,10.4176471 C44.5726619,7.74205882 45.3431655,3.90176471 44.3136691,0.317058824 C43.7704625,2.00088858 42.7546325,3.49331747 41.3870504,4.61676471 Z" id="路径"></path>
                        <path d="M40.444964,28.8070588 C38.7323741,30.1173529 36.2201439,30.8776471 35.1453237,32.5438235 C34.5852518,33.4044118 34.4978417,34.3976471 34.5205036,35.3585294 C34.5603131,36.4900182 34.6989698,37.6158677 34.9348921,38.7232353 C34.996157,38.5923296 35.0664711,38.465847 35.1453237,38.3447059 C36.2201439,36.6785294 38.7323741,35.9214706 40.444964,34.6111765 C43.381295,32.3658824 43.6273381,28.8135294 42.7597122,25.6461765 C42.3195239,26.9062348 41.513666,28.0066664 40.444964,28.8070588 Z" id="路径"></path>
                    </g>
                    <path d="M156.826266,98 C156.826266,98 165.165628,97.5582195 165.887985,93.9613351 C166.610343,90.3644507 163.630617,86.7082227 162.90181,86.3224889 C162.173003,85.9367552 154.310913,79.8177658 154.310913,79.8177658 L141.637405,71.5426239 C141.637405,71.5426239 135.565086,53.7395297 134.220339,60.5541585 C132.875593,67.3687873 138.125586,76.4186936 138.125586,76.4186936 C138.125586,76.4186936 145.40076,81.1991541 146.219862,82.6266985 C147.038964,84.0542429 152.053545,87.7994864 152.053545,87.7994864 L156.826266,98 Z" id="路径" fill="#EFB7B9" fill-rule="nonzero"></path>
                    <path d="M160.766276,92.5771916 C158.706477,97.8047582 156.037489,99.8655288 156.037489,99.8655288 L154.553222,99.8655288 L141.504461,100 L140,95.8952676 L142.11365,87 L143.419536,87.0537885 C143.419536,87.0537885 144.981214,87.8572537 145.933703,87.8572537 C146.886191,87.8572537 148.754146,87.806827 149.299387,88.0555987 C149.375563,88.0927625 149.461325,88.1056706 149.545082,88.0925782 C150.039838,88.0421515 150.554788,87.3025601 150.554788,87.3025601 C150.554788,87.3025601 162.829441,87.3529868 160.766276,92.5771916 Z" id="路径" fill="#C70D3A" fill-rule="nonzero"></path>
                    <path d="M160.776157,92.0457097 C158.801013,97.0336808 156.241716,99 156.241716,99 L154.818449,99 C155.560742,97.0240577 157.126012,92.9695269 157.723074,92.0328789 C158.307226,91.1475541 153.065993,88.9438653 150,87.7538091 C150.474422,87.7056937 150.968208,87 150.968208,87 C150.968208,87 162.754529,87.0609463 160.776157,92.0457097 Z" id="路径" fill="#000000" fill-rule="nonzero" opacity="0.1"></path>
                    <ellipse id="椭圆形" fill="#C70D3A" fill-rule="nonzero" opacity="0.1" cx="29.5" cy="248" rx="14.5" ry="3"></ellipse>
                    <ellipse id="椭圆形" fill="#C70D3A" fill-rule="nonzero" opacity="0.1" cx="269.5" cy="230" rx="10.5" ry="2"></ellipse>
                    <ellipse id="椭圆形" fill="#C70D3A" fill-rule="nonzero" opacity="0.1" cx="314.5" cy="238" rx="10.5" ry="2"></ellipse>
                    <ellipse id="椭圆形" fill="#C70D3A" fill-rule="nonzero" opacity="0.1" cx="243.5" cy="255" rx="10.5" ry="2"></ellipse>
                    <path d="M42.6042143,171 C42.6042143,171 45.0079392,174.049661 41.4953135,178.648305 C37.9826879,183.246949 35.0909138,187.130678 36.2662158,190 C36.2662158,190 41.5617148,181.456441 45.8744754,181.337288 C50.1872361,181.218136 47.348583,176.139661 42.6042143,171 Z" id="路径" fill="#C70D3A" fill-rule="nonzero"></path>
                    <path d="M42.9994711,171 C43.1944503,171.297593 43.3478534,171.622735 43.4550492,171.965611 C47.3551672,176.758259 49.4329727,181.229036 45.6836881,181.341691 C42.1929747,181.444689 38.0035031,187.975436 37,189.623412 C37.0321238,189.751543 37.0722264,189.877341 37.120051,190 C37.120051,190 42.0298285,181.460783 46.0284499,181.341691 C50.0270712,181.222599 47.3982624,176.137049 42.9994711,171 Z" id="路径" fill="#000000" fill-rule="nonzero" opacity="0.1"></path>
                    <path d="M48,173.789888 C48,175.0165 47.7784431,176 47.502994,176 C47.2275449,176 47,175.00545 47,173.789888 C47,172.574327 47.2814371,173.141589 47.5568862,173.141589 C47.8323353,173.141589 48,172.548542 48,173.789888 Z" id="路径" fill="#FFD037" fill-rule="nonzero"></path>
                    <path d="M49.5236342,175.01132 C48.7437958,175.71185 48.0627725,176.139218 48.0040176,175.958578 C47.9452626,175.777938 48.5381535,175.077407 49.3099798,174.363659 C50.0818062,173.649912 49.7826901,174.174208 49.8441157,174.363659 C49.9055413,174.553111 50.3034726,174.306383 49.5236342,175.01132 Z" id="路径" fill="#FFD037" fill-rule="nonzero"></path>
                    <path d="M30.3978581,171 C30.3978581,171 27.9970788,174.049661 31.5053999,178.648305 C35.0137209,183.246949 37.9019511,187.130678 36.7380374,190 C36.7380374,190 31.432448,181.456441 27.1216566,181.337288 C22.8108652,181.218136 25.6593035,176.139661 30.3978581,171 Z" id="路径" fill="#C70D3A" fill-rule="nonzero"></path>
                    <path d="M30.4625665,171 C30.2501039,171.297593 30.0829454,171.622735 29.9661375,171.965611 C25.7163025,176.758259 23.4521837,181.229036 27.5376604,181.341691 C31.34138,181.444689 35.9232857,187.975436 37,189.623412 C36.9646008,189.751049 36.9220518,189.876761 36.8725385,190 C36.8725385,190 31.5057383,181.460783 27.1452131,181.341691 C22.7846879,181.222599 25.669343,176.137049 30.4625665,171 Z" id="路径" fill="#000000" fill-rule="nonzero" opacity="0.1"></path>
                    <path d="M26,173.789888 C26,175.0165 26.2215569,176 26.497006,176 C26.7724551,176 27,175.00545 27,173.789888 C27,172.574327 26.7185629,173.141589 26.4431138,173.141589 C26.1676647,173.141589 26,172.548542 26,173.789888 Z" id="路径" fill="#FFD037" fill-rule="nonzero"></path>
                    <path d="M25.4756499,175.01132 C26.2569828,175.71185 26.9343158,176.139218 26.9956491,175.958578 C27.0569824,175.777938 26.4623161,175.077407 25.6889831,174.363659 C24.9156501,173.649912 25.2169833,174.174208 25.15565,174.363659 C25.0943167,174.553111 24.6969836,174.306383 25.4756499,175.01132 Z" id="路径" fill="#FFD037" fill-rule="nonzero"></path>
                    <ellipse id="椭圆形" fill="#C70D3A" fill-rule="nonzero" opacity="0.1" cx="36.5" cy="209" rx="24.5" ry="4"></ellipse>
                    <path d="M48.9945958,185.412447 L48.8789928,186.368958 L48.7152218,187.698508 L48.6477867,188.253284 L48.4840157,189.586022 L48.4133694,190.140798 L48.2495985,191.470348 L46.3935275,206.59597 C46.2265453,207.947838 44.004398,209 41.3198386,209 L31.6798296,209 C28.9952702,209 26.7763341,207.947838 26.6093519,206.59597 L24.7500697,191.46716 L24.5862988,190.13761 L24.5188637,189.582834 L24.3518815,188.250096 L24.2844464,187.695319 L24.1206754,186.36577 L24.0050724,185.409259 C23.9119477,184.644051 25.1129348,184 26.6318303,184 L46.3871051,184 C47.8867334,184.003188 49.0909317,184.647239 48.9945958,185.412447 Z" id="路径" fill="#65617D" fill-rule="nonzero"></path>
                    <polygon id="路径" fill="#9D9CB5" fill-rule="nonzero" points="49 185 48.837957 187 24.162043 187 24 185"></polygon>
                    <polygon id="路径" fill="#9D9CB5" fill-rule="nonzero" points="49 188 48.8414795 190 25.1616909 190 25 188"></polygon>
                    <polygon id="路径" fill="#9D9CB5" fill-rule="nonzero" points="48 189 47.8351737 191 24.1648263 191 24 189"></polygon>
                    <circle id="椭圆形" fill="#C70D3A" fill-rule="nonzero" opacity="0.1" cx="58.5" cy="40.5" r="10.5"></circle>
                    <circle id="椭圆形" fill="#C70D3A" fill-rule="nonzero" opacity="0.1" cx="37.5" cy="16.5" r="6.5"></circle>
                    <circle id="椭圆形" fill="#C70D3A" fill-rule="nonzero" opacity="0.1" cx="4" cy="31" r="4"></circle>
                </g>
                <path d="M213.397561,68.2637597 L212.736239,67.6024394 C211.932986,66.7991869 210.630657,66.7991869 209.827404,67.6024394 L197,80.4298436 L184.172596,67.6024394 C183.369343,66.7991869 182.067013,66.7991869 181.263761,67.6024394 L180.60244,68.2637597 C180.216704,68.6494953 180,69.1726652 180,69.718178 C180,70.2636908 180.216704,70.7868607 180.60244,71.1725963 L193.429843,84 L180.60244,96.8274037 C180.216704,97.2131393 180,97.7363092 180,98.281822 C180,98.8273348 180.216704,99.3505047 180.60244,99.7362403 L181.263761,100.397561 C182.067013,101.200813 183.369343,101.200813 184.172596,100.397561 L197,87.5701564 L209.827404,100.397561 C210.630657,101.200813 211.932986,101.200813 212.736239,100.397561 L213.397561,99.7362403 C214.200813,98.9329871 214.200813,97.6306569 213.397561,96.8274037 L200.570157,84 L213.397561,71.1725963 C214.200813,70.3693431 214.200813,69.0670129 213.397561,68.2637597 L213.397561,68.2637597 Z" id="路径" fill="#F7A2B8" fill-rule="nonzero"></path>
            </g>
        </g>
    </g>
</svg>