<?xml version="1.0" encoding="UTF-8"?>
<svg width="470px" height="324px" viewBox="0 0 470 324" version="1.1" xmlns="http://www.w3.org/2000/svg" xmlns:xlink="http://www.w3.org/1999/xlink">
    <!-- Generator: Sketch 59 (86127) - https://sketch.com -->
    <title>undraw_cancel_u1it</title>
    <desc>Created with Sketch.</desc>
    <defs>
        <path d="M67,242.842073 C67,267.418747 52.4492539,276 34.5,276 C16.5507461,276 2,267.418747 2,242.842073 C2,218.265398 34.5,187 34.5,187 C34.5,187 67,218.265402 67,242.842073 Z" id="path-1"></path>
        <filter x="-10.8%" y="-5.6%" width="121.5%" height="115.7%" filterUnits="objectBoundingBox" id="filter-2">
            <feOffset dx="0" dy="2" in="SourceAlpha" result="shadowOffsetOuter1"></feOffset>
            <feGaussianBlur stdDeviation="2" in="shadowOffsetOuter1" result="shadowBlurOuter1"></feGaussianBlur>
            <feColorMatrix values="0 0 0 0 0   0 0 0 0 0   0 0 0 0 0  0 0 0 0.5 0" type="matrix" in="shadowBlurOuter1"></feColorMatrix>
        </filter>
    </defs>
    <g id="页面-1" stroke="none" stroke-width="1" fill="none" fill-rule="evenodd">
        <g id="2-1排行榜备份" transform="translate(-136.000000, -600.000000)" fill-rule="nonzero">
            <g id="undraw_cancel_u1it" transform="translate(138.000000, 600.000000)">
                <path d="M336,222.135973 C336,251.683208 318.315248,262 296.5,262 C274.684752,262 257,251.683208 257,222.135973 C257,192.588738 296.5,155 296.5,155 C296.5,155 336,192.588742 336,222.135973 Z" id="路径" fill="#D0CDE1"></path>
                <polygon id="路径" fill="#3F3D56" points="294.731412 232.687739 311 202.120298 294.792561 228.811857 294.968364 217.702331 306.1807 195.587079 295.015075 214.761947 295.331011 194.780676 307.337434 177.174566 295.380695 191.638799 295.578155 155 294.390422 201.425544 282.2324 182.312171 294.243494 205.343295 293.105869 227.658731 293.072322 227.066467 279 206.871929 293.029433 229.159016 292.887177 231.949808 292.861698 231.992113 292.873588 232.221081 289.987699 262 293.843054 262 294.305917 259.59431 308.300954 237.361739 294.340738 257.395781"></polygon>
                <path d="M468,127.997562 C468,184.330607 434.645223,204 393.5,204 C352.354777,204 319,184.330607 319,127.997562 C319,71.6645171 393.5,0 393.5,0 C393.5,0 468,71.6645171 468,127.997562 Z" id="路径" fill="#D0CDE1"></path>
                <polygon id="路径" fill="#3F3D56" points="390.722322 194.328783 391.479496 147.437509 423 89.4262329 391.59837 140.081513 391.939056 118.9971 413.662378 77.0267208 392.029072 113.417601 392.029072 113.418034 392.641531 75.4967674 415.903321 42.0830351 392.737577 69.5338053 393.120472 0 390.715862 92.0502482 390.913554 88.2528787 367.262839 51.8338343 390.534105 95.542147 388.330633 137.89339 388.264736 136.769431 361 98.4439024 388.182472 140.74055 387.906822 146.03711 387.857292 146.116835 387.880119 146.551427 382.289175 254 389.758842 254 390.655133 198.50095 417.770846 156.307859"></polygon>
                <path d="M465,245.376568 C465,261.918483 356.498937,324 229.660787,324 C102.822637,324 0,291.870266 0,275.328351 C0,258.786437 100.298892,278.448333 227.137042,278.448333 C353.975192,278.448333 465,228.834658 465,245.376568 Z" id="路径" fill="#3F3D56"></path>
                <path d="M465,245.376568 C465,261.918483 356.498937,324 229.660787,324 C102.822637,324 0,291.870266 0,275.328351 C0,258.786437 100.298892,278.448333 227.137042,278.448333 C353.975192,278.448333 465,228.834658 465,245.376568 Z" id="路径" fill="#000000" opacity="0.1"></path>
                <path d="M465,245.888135 C465,262.487569 356.498937,306 229.660787,306 C102.822637,306 0,292.543499 0,275.944066 C0,259.344632 100.298875,260.289938 227.137042,260.289938 C353.975209,260.289938 465,229.288706 465,245.888135 Z" id="路径" fill="#3F3D56"></path>
                <ellipse id="椭圆形" fill="#000000" opacity="0.1" cx="233" cy="278.5" rx="98" ry="7.5"></ellipse>
                <path d="M155.795401,127 C155.795401,127 183.49609,127.543394 178.366333,132.70566 C173.236575,137.867925 154,132.70566 154,132.70566 L155.795401,127 Z" id="路径" fill="#A0616A"></path>
                <path d="M95.8206757,67.1930293 C95.8206757,67.1930293 107.278585,65.1412604 111.262546,74.416335 C115.246507,83.6914095 123.428509,110.143243 123.428509,110.143243 C123.428509,110.143243 145.324607,124.676528 149.307241,124.199024 C153.289876,123.72152 160.098172,124.695835 158.849308,129.052631 C157.600445,133.409427 158.154861,138.349708 155.27975,138.955195 C152.404638,139.560682 147.831918,133.780954 144.332364,136.564842 C140.83281,139.348729 109.6444,129.180476 107.642121,127.073628 C105.639841,124.966781 89,79.3455413 89,79.3455413 C89,79.3455413 89.6656045,67.0443872 95.8206757,67.1930293 Z" id="路径" fill="#EEEEEE"></path>
                <polygon id="路径" fill="#A0616A" points="120.712185 262 122 272.301652 111.181933 275 105 272.301652 105 263.226339"></polygon>
                <polygon id="路径" fill="#A0616A" points="90.7121852 271 92 281.301652 81.1819333 284 75 281.301652 75 272.226339"></polygon>
                <path d="M121.086379,141.900813 L126.093703,160.096903 L133.472912,197.01653 C133.472912,197.01653 135.581261,205.982718 131.364569,216.794888 C127.147877,227.607059 119.505121,262.944375 121.086379,265.054064 C122.667638,267.163754 103.165438,268.746026 103.428981,266.636332 C103.692523,264.526639 106.32796,235.518382 106.32796,235.518382 C106.32796,235.518382 110.017563,209.938368 111.862369,206.773832 C113.707174,203.609296 103.428994,195.697951 103.428994,195.697951 C103.428994,195.697951 100.793565,226.024769 96.8404157,228.661888 C92.8872663,231.299008 93.4143382,272.174256 91.569524,272.701699 C89.7247097,273.229141 76.2840156,275.338814 74.702774,272.701699 C73.1215324,270.064584 74.702774,226.024769 74.702774,226.024769 C74.702774,226.024769 83.6632425,192.53341 81.8184412,187.786606 C79.9736399,183.039801 81.0278096,162.734031 81.0278096,162.734031 C81.0278096,162.734031 74.1756849,147.175051 77.8652918,139 L121.086379,141.900813 Z" id="路径" fill="#2F2E41"></path>
                <path d="M120,40.3168951 C120,40.3168951 108.905662,54.4238941 109.433962,60.6635263 C109.962262,66.9031586 92,49.2694121 92,49.2694121 C92,49.2694121 104.943397,31.364378 104.943397,27.5663384 C104.943397,23.7682989 120,40.3168951 120,40.3168951 Z" id="路径" fill="#A0616A"></path>
                <circle id="椭圆形" fill="#A0616A" cx="121.5" cy="27.5" r="17.5"></circle>
                <path d="M76.7351138,130.471664 C75.9394955,133.446226 74.9523051,136.818633 75.0933442,139.659685 C75.183837,141.499428 80.0506435,142.706328 86.7800996,143.496701 C93.0199844,144.230991 100.861758,144.604807 107.990345,144.797066 C115.475529,145 122.167725,145 125.384806,145 C134.964133,145 127.247451,138.858636 123.522156,135.921463 C119.796861,132.984291 120.595141,91.3298381 120.861236,85.9895098 C121.127332,80.6491815 118.466404,65.1622833 118.466404,62.2251065 C118.466404,59.2879297 112.205241,51.6219067 112.205241,51.6219067 C112.205241,51.6219067 110.749722,55.8167318 104.895691,50.2094237 C99.0416587,44.6021156 91.3249773,43 91.3249773,43 C85.4709456,45.1361234 75.6255273,68.6335074 75.0933442,72.6387438 C74.8777901,74.2648589 75.0560845,82.5930943 75.4179686,92.1015213 C75.9421607,105.999689 76.8575361,122.429156 77.4881726,124.172778 C77.9857524,125.547889 77.43497,127.854898 76.7351138,130.471664 Z" id="路径" fill="#EEEEEE"></path>
                <polygon id="路径" fill="#A0616A" points="105.055644 147 107 153.132098 99.4998862 160 97 150.43375"></polygon>
                <path d="M106.316874,270.628844 C106.316874,270.628844 111.992243,276.800631 116.316333,272.686105 C120.640423,268.571579 120.370168,266 121.180937,266 C121.991706,266 134.153207,276.286317 134.153207,276.286317 C134.153207,276.286317 154.962889,280.915157 143.612152,284.258216 C132.261415,287.601274 100.100996,285.286848 100.100996,284.258216 C100.100996,283.229583 99.2902269,269.600216 102.263039,269.600216 L106.316874,270.628844 Z" id="路径" fill="#2F2E41"></path>
                <path d="M76.3168734,278.628844 C76.3168734,278.628844 81.9922416,284.800631 86.3163314,280.686105 C90.6404211,276.571579 90.3701664,274 91.1809351,274 C91.9917039,274 104.153205,284.286317 104.153205,284.286317 C104.153205,284.286317 124.962889,288.915157 113.612153,292.258216 C102.261417,295.601274 70.1009957,293.286848 70.1009957,292.258216 C70.1009957,291.229583 69.290227,277.600216 72.2630384,277.600216 L76.3168734,278.628844 Z" id="路径" fill="#2F2E41"></path>
                <path d="M100.684705,41.4864818 C100.134426,41.8466198 99.4180663,42.2115538 98.8670805,41.8525301 C96.8185848,36.6770801 95.2874171,31.3066276 94.2965452,25.8217298 C93.9486675,23.8951405 93.7071945,21.7533848 94.7637273,20.11313 C95.1804189,19.4662162 95.780279,18.9371954 96.0854975,18.2293272 C96.5477295,17.1573136 96.2434968,15.9164558 96.397058,14.7570264 C96.7187766,12.328032 98.9853568,10.6338687 101.264596,9.81222191 C103.543834,8.9905751 106.019319,8.73569949 108.191878,7.65754414 C110.254779,6.63380294 111.906992,4.93597945 113.819902,3.64758216 C115.732813,2.35918486 118.183073,1.47825937 120.313388,2.34886863 C122.197939,3.11905001 123.371835,5.06500733 125.153091,6.05582403 C126.361874,6.72820052 127.764647,6.91529845 129.113913,7.20391717 C132.864042,8.00993075 136.384895,9.66701635 139.411566,12.0504967 C140.147988,12.5826549 140.782972,13.2457714 141.285659,14.0076189 C143.571515,17.820081 139.478845,23.0032902 141.284462,27.0716137 L137.380862,23.9512348 C136.338407,23.0275107 135.162726,22.2705935 133.894533,21.7066939 C132.601503,21.2105334 131.070223,21.1506161 129.895668,21.8896688 C128.247309,22.9268635 127.800283,25.0937519 127.224466,26.9709372 C126.64865,28.8481225 125.375394,30.9297467 123.435525,30.8816542 C120.79743,30.8162553 119.874836,27.0866016 117.507325,25.9057811 C115.963971,25.1360283 114.021305,25.6429508 112.705564,26.7656155 C111.38992,27.8881988 110.600436,29.517066 110.021421,31.1579466 C109.659577,32.1833722 109.320064,33.3393 108.677379,34.2281545 C107.968551,35.2084964 107.061937,35.2873617 106.30486,36.0194412 C104.334161,37.9250808 103.122514,39.8910148 100.684705,41.4864818 Z" id="路径" fill="#2F2E41"></path>
                <path d="M76.2940038,131.737565 C79.5434205,136.530704 83.2058708,141.475361 86.1624735,144.705351 C92.2927075,145.436414 99.9966806,145.808586 107,146 C105.748839,144.274917 104.184411,142.809436 102.391229,141.682728 C98.9928339,139.555964 90.8889188,114.300981 90.8889188,114.300981 C90.8889188,114.300981 100.822748,88.2484564 103.436913,78.4123001 C106.051078,68.5761438 95.8558333,62.9934603 95.8558333,62.9934603 C91.1503216,59.0058243 83.0464065,68.3102982 83.0464065,68.3102982 C83.0464065,68.3102982 78.9107786,80.9962719 75,93.5360532 C75.5149806,107.373133 76.4142705,123.730385 77.0338251,125.466343 C77.5226655,126.835432 76.9815617,129.132301 76.2940038,131.737565 Z" id="路径" fill="#000000" opacity="0.1"></path>
                <path d="M94.6987192,60.989784 C94.6987192,60.989784 104.888525,66.5518192 102.275754,76.3515954 C99.662982,86.1513716 89.7344522,112.107537 89.7344522,112.107537 C89.7344522,112.107537 97.8340478,137.269112 101.230644,139.387998 C104.627241,141.506883 109.33024,146.539185 105.672359,149.187774 C102.014477,151.836362 99.4017057,156.074103 96.788934,154.749809 C94.1761623,153.425515 94.1761623,146.009469 89.7344522,146.009469 C85.292742,146.009469 67.2646165,118.464151 67.0033401,115.550704 C66.7420638,112.637258 81.8961371,66.2869612 81.8961371,66.2869612 C81.8961371,66.2869612 89.9957285,57.016901 94.6987192,60.989784 Z" id="路径" fill="#E0E0E0"></path>
                <path d="M310.306741,134.649749 L307.350246,131.693258 C303.759233,128.102247 297.937053,128.102247 294.34604,131.693258 L237,189.039301 L179.653959,131.693258 C176.062946,128.102247 170.240766,128.102247 166.649753,131.693258 L163.693262,134.649749 C161.968796,136.374214 161,138.713092 161,141.151855 C161,143.590618 161.968796,145.929495 163.693262,147.65396 L221.039299,205 L163.693262,262.34604 C161.968796,264.070505 161,266.409382 161,268.848145 C161,271.286908 161.968796,273.625786 163.693262,275.350251 L166.649753,278.306742 C170.240766,281.897753 176.062946,281.897753 179.653959,278.306742 L237,220.960699 L294.34604,278.306742 C297.937053,281.897753 303.759233,281.897753 307.350246,278.306742 L310.306741,275.350251 C313.897753,271.759236 313.897753,265.937054 310.306741,262.34604 L252.960701,205 L310.306741,147.65396 C313.897753,144.062946 313.897753,138.240764 310.306741,134.649749 L310.306741,134.649749 Z" id="路径" fill="#FF6584"></path>
                <path d="M160,266 L217,209.543461 L216.451308,209 L162.096406,262.836658 C161.185955,263.737535 160.47236,264.814302 160,266 L160,266 Z" id="路径" fill="#000000" opacity="0.1"></path>
                <path d="M162.258942,134.530152 C165.865304,130.931383 171.712371,130.931383 175.318733,134.530152 L232.909817,192 L290.500884,134.530152 C294.107246,130.931383 299.954312,130.931383 303.560675,134.530152 L306.529799,137.493026 C309.133082,140.091369 309.940702,143.984682 308.585047,147.400804 L310.295229,145.694222 C312.027064,143.966037 313,141.622113 313,139.178087 C313,136.734061 312.027064,134.390136 310.295229,132.661952 L307.326105,129.699077 C303.71974,126.100313 297.872678,126.100313 294.266314,129.699077 L236.675238,187.168921 L179.084163,129.699073 C175.477799,126.100309 169.630736,126.100309 166.024372,129.699073 L163.055248,132.661947 C162.162671,133.551761 161.463087,134.615306 161,135.786444 L162.258942,134.530152 Z" id="路径" fill="#000000" opacity="0.1"></path>
                <path d="M253.29923,204 L249,208.313947 L306.535987,266.046842 C309.136791,268.657085 309.943639,272.568233 308.589269,276 L310.297816,274.285559 C312.027995,272.549464 313,270.194811 313,267.739598 C313,265.284386 312.027995,262.929733 310.297816,261.193638 L253.29923,204 Z" id="路径" fill="#000000" opacity="0.1"></path>
                <g id="路径">
                    <use fill="black" fill-opacity="1" filter="url(#filter-2)" xlink:href="#path-1"></use>
                    <use fill="#D0CDE1" xlink:href="#path-1"></use>
                </g>
                <polygon id="路径" fill="#3F3D56" points="33.2732996 251.618951 47 226.193562 33.3250675 248.39508 33.4734689 239.154129 42.9336284 220.759148 33.5127263 236.708599 33.7793312 220.088691 43.909454 205.443901 33.8211769 217.475437 33.9876971 187 32.9855561 225.615702 22.7273076 209.717791 32.8613131 228.87408 31.9018806 247.435911 31.8734082 246.943224 20 230.145983 31.8371707 248.683791 31.7172416 251.005276 31.6956716 251.040218 31.7055938 251.230654 29.2707751 276 32.5239586 276 32.9143752 273.999112 44.7226421 255.506728 32.9437104 272.170315"></polygon>
            </g>
        </g>
    </g>
</svg>