<?xml version="1.0" encoding="UTF-8"?>
<svg width="468px" height="372px" viewBox="0 0 468 372" version="1.1" xmlns="http://www.w3.org/2000/svg" xmlns:xlink="http://www.w3.org/1999/xlink">
    <!-- Generator: Sketch 59 (86127) - https://sketch.com -->
    <title>undraw_loading_frh4-2</title>
    <desc>Created with Sketch.</desc>
    <defs>
        <linearGradient x1="50.030931%" y1="99.9774172%" x2="50.030931%" y2="0.0260206048%" id="linearGradient-1">
            <stop stop-color="#808080" stop-opacity="0.25" offset="0%"></stop>
            <stop stop-color="#808080" stop-opacity="0.12" offset="54%"></stop>
            <stop stop-color="#808080" stop-opacity="0.1" offset="100%"></stop>
        </linearGradient>
        <linearGradient x1="50.0046414%" y1="99.9931366%" x2="50.0046414%" y2="-0.00127448826%" id="linearGradient-2">
            <stop stop-color="#808080" stop-opacity="0.25" offset="0%"></stop>
            <stop stop-color="#808080" stop-opacity="0.12" offset="54%"></stop>
            <stop stop-color="#808080" stop-opacity="0.1" offset="100%"></stop>
        </linearGradient>
        <linearGradient x1="3.03456219e-14%" y1="50.0027962%" x2="99.9733077%" y2="50.0027962%" id="linearGradient-3">
            <stop stop-color="#808080" stop-opacity="0.25" offset="0%"></stop>
            <stop stop-color="#808080" stop-opacity="0.12" offset="54%"></stop>
            <stop stop-color="#808080" stop-opacity="0.1" offset="100%"></stop>
        </linearGradient>
    </defs>
    <g id="页面-1" stroke="none" stroke-width="1" fill="none" fill-rule="evenodd">
        <g id="2-1排行榜备份" transform="translate(-138.000000, -564.000000)">
            <g id="undraw_loading_frh4-2" transform="translate(138.000000, 564.000000)">
                <path d="M370,305.593048 C376.890517,309.049174 385.318481,306.947302 393.147832,307.190812 C394.220168,307.224989 395.352797,307.327519 396.214112,307.92134 C397.075427,308.515162 397.506084,309.4892 398.087471,310.317986 C400.279517,313.398168 404.77558,314.389294 408.703175,313.868098 C412.63077,313.346903 416.235371,311.612432 419.943331,310.292354 C426.351512,308.015326 433.676993,306.977207 439.999043,309.463567 C440.558733,309.748926 441.183325,309.885795 441.81211,309.860872 C443.198827,309.660083 443.607952,308.00251 444.581237,307.058377 C446.329706,305.349538 450.128104,305.819469 450.89898,303.572346 C451.329638,302.252268 450.313286,300.902286 449.176351,300.005146 C444.869778,296.561836 438.676925,295.993647 433.018088,296.527659 C427.35925,297.061671 421.820997,298.518456 416.1234,298.527 C409.043394,298.527 402.200249,296.279877 395.189147,295.361377 C390.331333,294.720562 385.029941,294.801732 380.473586,296.681454 C375.551173,298.732061 374.470223,303.277571 370,305.593048 Z" id="路径" fill="#414141" fill-rule="nonzero" opacity="0.1"></path>
                <path d="M5,189 C12.4059149,221.430356 28.0837591,249.463821 52.8568859,263.052227 C104.352738,291.291113 220.479703,276.723677 307.145119,259.99276 C350.939011,251.5666 390.690814,228.286034 420,193.899519 L5,189 Z" id="路径" fill="#414141" fill-rule="nonzero" opacity="0.1"></path>
                <path d="M459.740943,35.4353282 L412.162799,35.4353282 C409.892731,35.4353282 408.052478,33.5423786 408.052478,31.2073069 C408.052478,28.8722353 409.892731,26.9792857 412.162799,26.9792857 L420.38771,26.9792857 C418.168021,26.9057185 416.405625,25.0335041 416.405625,22.7490692 C416.405625,20.4646342 418.168021,18.5924198 420.38771,18.5188527 L414.514603,18.5188527 C412.294914,18.4452855 410.532518,16.5730711 410.532518,14.2886362 C410.532518,12.0042012 412.294914,10.1319868 414.514603,10.0584197 L439.347261,10.0584197 C433.836955,7.42413853 427.396171,5.54940844 419.97369,4.57033395 C352.262227,-4.37744106 328.086879,1.54091061 319.558923,7.64366196 C309.037695,15.1513633 297.300017,20.6745728 284.755641,23.3351967 C242.978044,32.1995528 164.847791,42.8683915 94.0333131,19.9238026 C58.8373524,8.50858428 32.6815377,27.7871319 17,60 L468,60 C467.410982,50.6351305 465.648196,41.9990787 462.412865,34.4255204 C461.66894,35.0811262 460.72055,35.4395544 459.740943,35.4353282 Z" id="路径" fill="#414141" fill-rule="nonzero" opacity="0.1"></path>
                <path d="M1.02275802,121 C-0.802105307,140.062383 -0.182937676,159.291295 2.86411072,178.185174 L420.015745,194 C431.627931,180.155854 441.377922,164.745869 449,148.190015 L1.02275802,121 Z M166.01137,161.796067 L157.797743,161.796067 C160.064696,161.796067 161.902425,163.700692 161.902425,166.050166 C161.902425,168.399641 160.064696,170.304266 157.797743,170.304266 L110.284876,170.304266 C108.017923,170.304266 106.180194,168.399641 106.180194,166.050166 C106.180194,163.700692 108.017923,161.796067 110.284876,161.796067 L118.498503,161.796067 C116.281859,161.722046 114.521881,159.838283 114.521881,157.539758 C114.521881,155.241233 116.281859,153.35747 118.498503,153.283449 L112.633453,153.283449 C110.41681,153.209428 108.656832,151.325666 108.656832,149.027141 C108.656832,146.728615 110.41681,144.844853 112.633453,144.770832 L160.14632,144.770832 C162.362964,144.844853 164.122942,146.728615 164.122942,149.027141 C164.122942,151.325666 162.362964,153.209428 160.14632,153.283449 L166.01137,153.283449 C168.228013,153.35747 169.987991,155.241233 169.987991,157.539758 C169.987991,159.838283 168.228013,161.722046 166.01137,161.796067 L166.01137,161.796067 Z" id="形状" fill="#414141" fill-rule="nonzero" opacity="0.1"></path>
                <path d="M467.788193,60 L11.9097154,71.4428226 C6.36312562,86.1424485 2.706643,102.765349 1,120 L459.801103,120 C462.795232,109.876627 465.01078,99.5254627 466.427145,89.0427639 C467.792459,78.9158659 468.338585,69.1234505 467.788193,60 Z M93.5512497,97.479645 L85.3294971,97.479645 C87.5986932,97.479645 89.4382401,99.3771721 89.4382401,101.71789 C89.4382401,104.058609 87.5986932,105.956136 85.3294971,105.956136 L37.7696234,105.956136 C35.5004273,105.956136 33.6608804,104.058609 33.6608804,101.71789 C33.6608804,99.3771721 35.5004273,97.479645 37.7696234,97.479645 L45.991376,97.479645 C43.7725395,97.4058999 42.0108203,95.5291582 42.0108203,93.239199 C42.0108203,90.9492398 43.7725395,89.0724981 45.991376,88.998753 L40.1205241,88.998753 C37.9016876,88.925008 36.1399684,87.0482662 36.1399684,84.758307 C36.1399684,82.4683479 37.9016876,80.5916061 40.1205241,80.5178611 L87.6803978,80.5178611 C89.8992343,80.5916061 91.6609535,82.4683479 91.6609535,84.758307 C91.6609535,87.0482662 89.8992343,88.925008 87.6803978,88.998753 L93.5512497,88.998753 C95.7700862,89.0724981 97.5318054,90.9492398 97.5318054,93.239199 C97.5318054,95.5291582 95.7700862,97.4058999 93.5512497,97.479645 L93.5512497,97.479645 Z" id="形状" fill="#414141" fill-rule="nonzero" opacity="0.1"></path>
                <g id="编组" opacity="0.1" transform="translate(245.000000, 163.000000)">
                    <path d="M3.11636842,96.833964 C3.11636842,96.833964 15.1384737,66.4668468 37.5882632,55.1982432 C47.0334491,50.536292 54.7479989,42.8595245 59.5733684,33.3208108 C61.8295802,28.7725984 63.6747045,24.0221953 65.0856316,19.1290991" id="路径" stroke="#535461" stroke-width="2"></path>
                    <path d="M79.1924211,11.9458559 C76.8519474,14.9607207 64.7403158,19.3737838 64.7403158,19.3737838 C64.7403158,19.3737838 66.1983158,6.28752252 68.5387895,3.27265766 C69.9936159,1.14365141 72.4807802,0.0176411256 74.9960973,0.349250051 C77.5114145,0.680858976 79.6395754,2.41533448 80.5213415,4.85238734 C81.4031076,7.28944021 80.8928887,10.0266837 79.1966842,11.958964 L79.1924211,11.9458559 Z" id="路径" fill="#414141" fill-rule="nonzero"></path>
                    <path d="M75.0358421,35.8244595 C71.4718421,37.0522523 58.9722632,34.0024324 58.9722632,34.0024324 C58.9722632,34.0024324 67.1362105,23.8305405 70.7002105,22.6027477 C73.0551486,21.600784 75.7587143,22.028647 77.7090925,23.7119648 C79.6594706,25.3952826 80.5309696,28.0529597 79.9684175,30.6018826 C79.4058655,33.1508054 77.5032023,35.1653321 75.0358421,35.8244595 Z" id="路径" fill="#414141" fill-rule="nonzero"></path>
                    <path d="M52.5007895,64.054955 C48.8216842,63.2728378 39.5322632,54.1670721 39.5322632,54.1670721 C39.5322632,54.1670721 51.5927368,49.6098198 55.2718421,50.3963063 C58.7304551,51.3842682 60.8496962,54.9510306 60.1187597,58.5538509 C59.3878232,62.1566712 56.0569815,64.5619454 52.5007895,64.054955 Z" id="路径" fill="#414141" fill-rule="nonzero"></path>
                    <path d="M30.7586842,81.48 C27.0028421,81.3445495 16.3449474,73.9821622 16.3449474,73.9821622 C16.3449474,73.9821622 27.4803158,67.4018919 31.2361579,67.532973 C33.7722806,67.4644512 36.1359699,68.8442008 37.3722664,71.114786 C38.6085629,73.3853712 38.5131771,76.1715936 37.1246461,78.347785 C35.7361151,80.5239764 33.283884,81.7305365 30.7586842,81.48 L30.7586842,81.48 Z" id="路径" fill="#414141" fill-rule="nonzero"></path>
                    <path d="M47.3338421,25.4690541 C47.8113158,29.2878829 55.9539474,39.4816216 55.9539474,39.4816216 C55.9539474,39.4816216 61.317,27.5095495 60.8352632,23.6863514 C60.6756708,21.0847386 59.1170684,18.7902103 56.7918931,17.7338214 C54.4667177,16.6774325 51.7612105,17.0346627 49.7731901,18.660558 C47.7851697,20.2864533 46.8448715,22.9109318 47.3338421,25.4690541 L47.3338421,25.4690541 Z" id="路径" fill="#414141" fill-rule="nonzero"></path>
                    <path d="M22.1556316,46.1798649 C23.7287368,49.6753604 34.4761579,56.9066667 34.4761579,56.9066667 C34.4761579,56.9066667 36.0918947,43.8378829 34.5187895,40.338018 C32.8057906,37.0966552 28.9314805,35.775481 25.6652006,37.3188656 C22.3989208,38.8622501 20.8631415,42.739803 22.1556316,46.1798649 L22.1556316,46.1798649 Z" id="路径" fill="#414141" fill-rule="nonzero"></path>
                    <path d="M0.379421053,69.7438739 C1.35568421,73.4622072 10.7516842,82.45 10.7516842,82.45 C10.7516842,82.45 14.5032632,69.8487387 13.5312632,66.1304054 C12.3854412,62.6282502 8.77906458,60.6440356 5.2979547,61.6004705 C1.81684482,62.5569054 -0.337584955,66.1239015 0.379421053,69.7438739 L0.379421053,69.7438739 Z" id="路径" fill="#414141" fill-rule="nonzero"></path>
                    <path d="M79.1924211,11.9458559 C76.8519474,14.9607207 64.7403158,19.3737838 64.7403158,19.3737838 C64.7403158,19.3737838 66.1983158,6.28752252 68.5387895,3.27265766 C69.9936159,1.14365141 72.4807802,0.0176411256 74.9960973,0.349250051 C77.5114145,0.680858976 79.6395754,2.41533448 80.5213415,4.85238734 C81.4031076,7.28944021 80.8928887,10.0266837 79.1966842,11.958964 L79.1924211,11.9458559 Z" id="路径" fill="#000000" fill-rule="nonzero" opacity="0.25"></path>
                    <path d="M75.0358421,35.8244595 C71.4718421,37.0522523 58.9722632,34.0024324 58.9722632,34.0024324 C58.9722632,34.0024324 67.1362105,23.8305405 70.7002105,22.6027477 C73.0551486,21.600784 75.7587143,22.028647 77.7090925,23.7119648 C79.6594706,25.3952826 80.5309696,28.0529597 79.9684175,30.6018826 C79.4058655,33.1508054 77.5032023,35.1653321 75.0358421,35.8244595 Z" id="路径" fill="#000000" fill-rule="nonzero" opacity="0.25"></path>
                    <path d="M52.5007895,64.054955 C48.8216842,63.2728378 39.5322632,54.1670721 39.5322632,54.1670721 C39.5322632,54.1670721 51.5927368,49.6098198 55.2718421,50.3963063 C58.7304551,51.3842682 60.8496962,54.9510306 60.1187597,58.5538509 C59.3878232,62.1566712 56.0569815,64.5619454 52.5007895,64.054955 Z" id="路径" fill="#000000" fill-rule="nonzero" opacity="0.25"></path>
                    <path d="M30.7586842,81.48 C27.0028421,81.3445495 16.3449474,73.9821622 16.3449474,73.9821622 C16.3449474,73.9821622 27.4803158,67.4018919 31.2361579,67.532973 C33.7722806,67.4644512 36.1359699,68.8442008 37.3722664,71.114786 C38.6085629,73.3853712 38.5131771,76.1715936 37.1246461,78.347785 C35.7361151,80.5239764 33.283884,81.7305365 30.7586842,81.48 L30.7586842,81.48 Z" id="路径" fill="#000000" fill-rule="nonzero" opacity="0.25"></path>
                    <path d="M47.3338421,25.4690541 C47.8113158,29.2878829 55.9539474,39.4816216 55.9539474,39.4816216 C55.9539474,39.4816216 61.317,27.5095495 60.8352632,23.6863514 C60.6756708,21.0847386 59.1170684,18.7902103 56.7918931,17.7338214 C54.4667177,16.6774325 51.7612105,17.0346627 49.7731901,18.660558 C47.7851697,20.2864533 46.8448715,22.9109318 47.3338421,25.4690541 L47.3338421,25.4690541 Z" id="路径" fill="#000000" fill-rule="nonzero" opacity="0.25"></path>
                    <path d="M22.1556316,46.1798649 C23.7287368,49.6753604 34.4761579,56.9066667 34.4761579,56.9066667 C34.4761579,56.9066667 36.0918947,43.8378829 34.5187895,40.338018 C32.8057906,37.0966552 28.9314805,35.775481 25.6652006,37.3188656 C22.3989208,38.8622501 20.8631415,42.739803 22.1556316,46.1798649 L22.1556316,46.1798649 Z" id="路径" fill="#000000" fill-rule="nonzero" opacity="0.25"></path>
                    <path d="M0.379421053,69.7438739 C1.35568421,73.4622072 10.7516842,82.45 10.7516842,82.45 C10.7516842,82.45 14.5032632,69.8487387 13.5312632,66.1304054 C12.3854412,62.6282502 8.77906458,60.6440356 5.2979547,61.6004705 C1.81684482,62.5569054 -0.337584955,66.1239015 0.379421053,69.7438739 L0.379421053,69.7438739 Z" id="路径" fill="#000000" fill-rule="nonzero" opacity="0.25"></path>
                </g>
                <g id="编组" opacity="0.1" transform="translate(243.000000, 97.000000)">
                    <path d="M13.0620134,117.729398 C13.0620134,117.729398 14.5911409,84.4942105 32.2577181,65.9602256 C39.7166583,58.2340526 44.5472802,48.2172243 46.0241611,37.413985 C46.6821266,32.2801669 46.8834148,27.0948985 46.6255034,21.9231579" id="路径" stroke="#535461" stroke-width="2"></path>
                    <path d="M57.7030872,10.1719549 C56.461745,13.867218 46.3849664,22.2603008 46.3849664,22.2603008 C46.3849664,22.2603008 43.5071141,9.22263158 44.7441611,5.52736842 C45.4277609,2.97959206 47.42581,1.03535788 49.9290227,0.482154522 C52.4322355,-0.0710488355 55.0257047,0.858472003 56.6589769,2.89422582 C58.2922491,4.92997963 58.6946096,7.73454053 57.7030872,10.1719549 Z" id="路径" fill="#414141" fill-rule="nonzero"></path>
                    <path d="M61.5387919,34.463985 C58.5320805,36.872782 45.6719463,38.2612782 45.6719463,38.2612782 C45.6719463,38.2612782 50.1175839,25.6982707 53.1028188,23.2939098 C56.097773,21.1866827 60.1624011,21.8433437 62.3911974,24.7944938 C64.6199938,27.7456439 64.2469781,31.9770481 61.5387919,34.463985 Z" id="路径" fill="#414141" fill-rule="nonzero"></path>
                    <path d="M49.322953,69.2917293 C45.5688591,69.8107519 33.7696644,64.2966917 33.7696644,64.2966917 C33.7696644,64.2966917 43.747651,55.757218 47.4845638,55.2515038 C51.0987859,54.9960655 54.2843863,57.6819662 54.7654017,61.3902548 C55.2464171,65.0985434 52.8576537,68.5556922 49.3057718,69.2917293 L49.322953,69.2917293 Z" id="路径" fill="#414141" fill-rule="nonzero"></path>
                    <path d="M34.332349,93.4861654 C30.72,94.6528571 18.190604,91.2681203 18.190604,91.2681203 C18.190604,91.2681203 26.6265772,81.122782 30.2432215,79.9560902 C32.6340348,79.0044113 35.3389431,79.505357 37.2606043,81.2557008 C39.1822654,83.0060446 40.0015491,85.7151069 39.3860838,88.2838604 C38.7706185,90.8526139 36.8226146,92.8544656 34.332349,93.4772932 L34.332349,93.4861654 Z" id="路径" fill="#414141" fill-rule="nonzero"></path>
                    <path d="M31.8281879,34.1179699 C33.5463087,37.6091729 44.5938255,44.5649624 44.5938255,44.5649624 C44.5938255,44.5649624 45.7836242,31.2566917 44.0826846,27.7521805 C43.079904,25.3201619 40.8516067,23.665142 38.3000777,23.4572738 C35.7485488,23.2494056 33.2965566,24.5231312 31.9369653,26.7626918 C30.577374,29.0022525 30.5354572,31.8365705 31.8281879,34.1179699 L31.8281879,34.1179699 Z" id="路径" fill="#414141" fill-rule="nonzero"></path>
                    <path d="M14.6469799,62.637594 C17.2842953,65.4456391 29.852349,68.6618045 29.852349,68.6618045 C29.852349,68.6618045 27.1334228,55.5886466 24.4961074,52.7806015 C22.8375751,50.7610908 20.2284115,49.8630601 17.7284103,50.4512728 C15.2284091,51.0394855 13.253359,53.0161128 12.6054886,55.5782853 C11.9576182,58.1404579 12.7446784,60.8620471 14.6469799,62.637594 Z" id="路径" fill="#414141" fill-rule="nonzero"></path>
                    <path d="M1.63221477,92.727594 C3.77986577,95.9570677 15.6348993,101.315865 15.6348993,101.315865 C15.6348993,101.315865 15.089396,87.9543609 12.9546309,84.7293233 C11.6585878,82.4350828 9.23068277,81.0802007 6.66227991,81.2179037 C4.09387705,81.3556066 1.81486342,82.9628464 0.755807679,85.3833537 C-0.303248061,87.803861 0.0349138091,90.6325028 1.63221477,92.7142857 L1.63221477,92.727594 Z" id="路径" fill="#414141" fill-rule="nonzero"></path>
                </g>
                <path d="M421.607896,274 C421.607896,274 424.011006,277.051374 420.502466,281.639044 C416.993925,286.226714 414.101454,290.126871 415.259316,293 C415.259316,293 420.554897,284.452759 424.871757,284.329685 C429.188616,284.206612 426.348577,279.139379 421.607896,274 Z" id="路径" fill="#414141" fill-rule="nonzero"></path>
                <path d="M421.540134,274 C421.752718,274.295368 421.920824,274.618042 422.039482,274.958482 C426.290569,279.750893 428.553101,284.225223 424.465518,284.335491 C420.660751,284.441518 416.095914,290.972768 415,292.622545 C415.036045,292.75036 415.078817,292.87634 415.128151,293 C415.128151,293 420.483991,284.458482 424.849972,284.335491 C429.215953,284.2125 426.334759,279.135938 421.540134,274 Z" id="路径" fill="#000000" fill-rule="nonzero" opacity="0.1"></path>
                <path d="M426,277.783728 C426,279.008001 425.771654,280 425.496063,280 C425.220472,280 425,279.008001 425,277.783728 C425,276.559456 425.275591,277.135299 425.551181,277.135299 C425.826772,277.135299 426,276.559456 426,277.783728 Z" id="路径" fill="#FFD037" fill-rule="nonzero"></path>
                <path d="M427.522782,279.504023 C426.742178,279.856777 426.060028,280.069595 426.003768,279.97922 C425.947509,279.888845 426.527687,279.533177 427.308291,279.180423 C428.088895,278.82767 427.782983,279.084218 427.842759,279.180423 C427.902535,279.276629 428.306902,279.162931 427.522782,279.504023 Z" id="路径" fill="#FFD037" fill-rule="nonzero"></path>
                <path d="M409.39092,274 C409.39092,274 406.987379,277.051374 410.496549,281.639044 C414.005718,286.226714 416.898707,290.126871 415.740637,293 C415.740637,293 410.448478,284.452759 406.126475,284.329685 C401.804472,284.206612 404.66687,279.139379 409.39092,274 Z" id="路径" fill="#414141" fill-rule="nonzero"></path>
                <path d="M408.460433,274 C408.247867,274.295368 408.079776,274.618042 407.961128,274.958482 C403.71041,279.750893 401.448073,284.225223 405.535303,284.335491 C409.33974,284.441518 413.904181,290.972768 415,292.622545 C414.964468,292.751012 414.920187,292.877102 414.867441,293 C414.867441,293 409.516485,284.458482 405.146464,284.335491 C400.776442,284.2125 403.683898,279.135938 408.460433,274 Z" id="路径" fill="#000000" fill-rule="nonzero" opacity="0.1"></path>
                <path d="M404,277.783728 C404,279.008001 404.228346,280 404.503937,280 C404.779528,280 405,279.008001 405,277.783728 C405,276.559456 404.724409,277.135299 404.448819,277.135299 C404.173228,277.135299 404,276.559456 404,277.783728 Z" id="路径" fill="#FFD037" fill-rule="nonzero"></path>
                <path d="M403.476064,279.504023 C404.257033,279.856777 404.935983,280.069595 404.995787,279.97922 C405.055591,279.888845 404.471623,279.533177 403.690654,279.180423 C402.909685,278.82767 403.21574,279.084218 403.155936,279.180423 C403.096133,279.276629 402.695094,279.162931 403.476064,279.504023 Z" id="路径" fill="#FFD037" fill-rule="nonzero"></path>
                <path d="M405,292.728701 C405,292.728701 411.717089,292.517938 413.74621,291.038114 C415.77533,289.558291 424.079856,287.795955 424.582763,290.141251 C425.08567,292.486548 434.675889,301.934997 427.092926,301.997778 C419.509962,302.060558 409.473686,300.782528 407.453312,299.522436 C405.432937,298.262344 405,292.728701 405,292.728701 Z" id="路径" fill="#A8A8A8" fill-rule="nonzero"></path>
                <path d="M427.229681,301.203414 C419.644819,301.264212 409.606032,300.030877 407.585152,298.81057 C406.045434,297.881226 405.433046,294.541669 405.227458,293 L405,293 C405,293 405.43742,298.38064 407.449552,299.600947 C409.461683,300.821253 419.509219,302.054588 427.094081,301.998133 C429.281181,301.976419 430.037917,301.203414 429.998549,300.061276 C429.683607,300.760455 428.856883,301.190385 427.229681,301.203414 Z" id="路径" fill="#000000" fill-rule="nonzero" opacity="0.2"></path>
                <path d="M0,316.037677 C8.77199292,319.310836 19.473994,317.31981 29.4252006,317.551732 C30.7868107,317.582363 32.2332564,317.678632 33.3233928,318.243121 C34.4135293,318.80761 34.9564766,319.726545 35.7030292,320.509828 C38.4941179,323.428542 44.1865814,324.369356 49.2046025,323.874882 C54.2226236,323.380407 58.7782911,321.739451 63.5036296,320.487949 C71.6520814,318.330639 80.9670217,317.346065 89.0051874,319.70029 C89.7427134,319.975899 90.5244853,320.10363 91.3084718,320.076616 C93.0688088,319.884077 93.5947891,318.326263 94.8291459,317.424831 C97.0518366,315.810131 101.88322,316.247719 102.86307,314.116664 C103.43571,312.869538 102.116517,311.59178 100.682797,310.738483 C95.1896969,307.478451 87.3296858,306.940217 80.1441171,307.443444 C72.9585485,307.94667 65.8875078,309.333825 58.6595213,309.338201 C49.6584725,309.338201 40.9585898,307.211522 32.0423765,306.340721 C25.8663505,305.73685 19.1304101,305.81124 13.3403858,307.592224 C7.05407361,309.517612 5.67125461,313.840984 0,316.037677 Z" id="路径" fill="#414141" fill-rule="nonzero" opacity="0.1"></path>
                <path d="M100.266083,307.238892 C101.070267,306.575957 101.656291,305.679397 101.945874,304.668973 C102.160223,303.64634 101.731526,302.423628 100.77352,302.050144 C99.6974041,301.632199 98.5469222,302.388058 97.6764055,303.152809 C96.8058888,303.91756 95.8041384,304.793467 94.6624054,304.633403 C95.8568166,303.532222 96.3948933,301.874627 96.0797291,300.267207 C96.0299523,299.940082 95.8938978,299.632778 95.6860281,299.377961 C95.0911021,298.728812 94.006237,299.008925 93.2888263,299.520241 C91.0141093,301.14756 90.3798132,304.286597 90.3710643,307.114398 C90.1392181,306.091766 90.3316941,305.033563 90.3273197,304.002039 C90.3229452,302.970514 90.0386056,301.778925 89.1724634,301.236485 C88.6374423,300.93543 88.0341444,300.782131 87.422681,300.791862 C86.3990584,300.756292 85.2616998,300.858555 84.5617869,301.61886 C83.6868957,302.561461 83.9187419,304.148764 84.6755228,305.175843 C85.4323036,306.202921 86.578411,306.865409 87.6326549,307.585698 C88.4810948,308.098381 89.2048064,308.799011 89.7498915,309.635409 C89.8144209,309.751193 89.8671864,309.873353 89.9073719,310 L96.289703,310 C97.7327938,309.268162 99.070647,308.339187 100.266083,307.238892 L100.266083,307.238892 Z" id="路径" fill="#414141" fill-rule="nonzero"></path>
                <path d="M49.4657111,314 C49.4657111,314 43.201305,293.009981 50.6425246,277.558934 C53.8154062,271.099309 54.7731023,263.802466 53.3720158,256.762493 C52.676193,253.425591 51.6727266,250.157931 50.37405,247" id="路径" stroke="#535461" stroke-width="2"></path>
                <path d="M55,236.757412 C55,239.385445 50.5,247 50.5,247 C50.5,247 46,239.362983 46,236.757412 C46,234.129966 48.0147186,232 50.5,232 C52.9852814,232 55,234.129966 55,236.757412 Z" id="路径" fill="#414141" fill-rule="nonzero"></path>
                <path d="M62.2596428,251.148645 C60.875918,253.291518 53,257 53,257 C53,257 53.1392427,248.25358 54.5229676,246.11508 C55.9059957,243.967917 58.7590751,243.354099 60.8954989,244.744079 C63.0319227,246.13406 63.6426707,249.001481 62.2596428,251.148645 Z" id="路径" fill="#414141" fill-rule="nonzero"></path>
                <path d="M62.5559491,276.401468 C60.3632688,277.50442 52,276.745354 52,276.745354 C52,276.745354 56.3601572,269.578265 58.5528375,268.475313 C59.9710058,267.761385 61.6629418,267.857046 62.9913095,268.726262 C64.3196772,269.595478 65.082666,271.106194 64.9928653,272.689339 C64.9030647,274.272484 63.9741174,275.687539 62.5559491,276.401468 Z" id="路径" fill="#414141" fill-rule="nonzero"></path>
                <path d="M57.9266637,294.753268 C55.8415919,296.3125 47,297 47,297 C47,297 50.2562611,288.642155 52.3235877,287.07843 C53.664338,285.96527 55.5013598,285.690445 57.1025775,286.363476 C58.7037953,287.036507 59.8089571,288.548004 59.9776425,290.295616 C60.1463279,292.043229 59.3511198,293.742912 57.9089184,294.71732 L57.9266637,294.753268 Z" id="路径" fill="#414141" fill-rule="nonzero"></path>
                <path d="M43.5153521,257.269136 C45.3666237,259.100815 54,261 54,261 C54,261 51.8836299,252.264648 50.0235217,250.432969 C48.8344749,249.195126 47.0797892,248.711681 45.4402674,249.170206 C43.8007456,249.628731 42.5344335,250.957058 42.1326492,252.639809 C41.730865,254.32256 42.2568457,256.094885 43.5065155,257.269136 L43.5153521,257.269136 Z" id="路径" fill="#414141" fill-rule="nonzero"></path>
                <path d="M39.3814106,279.400656 C41.5871025,280.508063 50,279.74172 50,279.74172 C50,279.74172 45.6181945,272.54568 43.4082772,271.438273 C41.2111183,270.38982 38.575995,271.285424 37.4796489,273.453245 C36.3833029,275.621066 37.2285872,278.264538 39.3814106,279.400656 Z" id="路径" fill="#414141" fill-rule="nonzero"></path>
                <path d="M37.0733363,300.752349 C39.1584081,302.316714 48,303 48,303 C48,303 44.7437389,294.63874 42.6764123,293.07887 C41.335662,291.965255 39.4986402,291.690318 37.8974225,292.363624 C36.2962047,293.03693 35.1910429,294.549045 35.0223575,296.297372 C34.8536721,298.045699 35.6488802,299.746076 37.0910816,300.720882 L37.0733363,300.752349 Z" id="路径" fill="#414141" fill-rule="nonzero"></path>
                <path d="M55,236.757412 C55,239.385445 50.5,247 50.5,247 C50.5,247 46,239.362983 46,236.757412 C46,234.129966 48.0147186,232 50.5,232 C52.9852814,232 55,234.129966 55,236.757412 Z" id="路径" fill="#414141" fill-rule="nonzero"></path>
                <path d="M62.2596428,251.148645 C60.875918,253.291518 53,257 53,257 C53,257 53.1392427,248.25358 54.5229676,246.11508 C55.9059957,243.967917 58.7590751,243.354099 60.8954989,244.744079 C63.0319227,246.13406 63.6426707,249.001481 62.2596428,251.148645 Z" id="路径" fill="#414141" fill-rule="nonzero"></path>
                <path d="M62.5559491,276.401468 C60.3632688,277.50442 52,276.745354 52,276.745354 C52,276.745354 56.3601572,269.578265 58.5528375,268.475313 C59.9710058,267.761385 61.6629418,267.857046 62.9913095,268.726262 C64.3196772,269.595478 65.082666,271.106194 64.9928653,272.689339 C64.9030647,274.272484 63.9741174,275.687539 62.5559491,276.401468 Z" id="路径" fill="#414141" fill-rule="nonzero"></path>
                <path d="M57.9266637,294.753268 C55.8415919,296.3125 47,297 47,297 C47,297 50.2562611,288.642155 52.3235877,287.07843 C53.664338,285.96527 55.5013598,285.690445 57.1025775,286.363476 C58.7037953,287.036507 59.8089571,288.548004 59.9776425,290.295616 C60.1463279,292.043229 59.3511198,293.742912 57.9089184,294.71732 L57.9266637,294.753268 Z" id="路径" fill="#414141" fill-rule="nonzero"></path>
                <path d="M43.5153521,257.269136 C45.3666237,259.100815 54,261 54,261 C54,261 51.8836299,252.264648 50.0235217,250.432969 C48.8344749,249.195126 47.0797892,248.711681 45.4402674,249.170206 C43.8007456,249.628731 42.5344335,250.957058 42.1326492,252.639809 C41.730865,254.32256 42.2568457,256.094885 43.5065155,257.269136 L43.5153521,257.269136 Z" id="路径" fill="#414141" fill-rule="nonzero"></path>
                <path d="M39.3814106,279.400656 C41.5871025,280.508063 50,279.74172 50,279.74172 C50,279.74172 45.6181945,272.54568 43.4082772,271.438273 C41.2111183,270.38982 38.575995,271.285424 37.4796489,273.453245 C36.3833029,275.621066 37.2285872,278.264538 39.3814106,279.400656 Z" id="路径" fill="#414141" fill-rule="nonzero"></path>
                <path d="M37.0733363,300.752349 C39.1584081,302.316714 48,303 48,303 C48,303 44.7437389,294.63874 42.6764123,293.07887 C41.335662,291.965255 39.4986402,291.690318 37.8974225,292.363624 C36.2962047,293.03693 35.1910429,294.549045 35.0223575,296.297372 C34.8536721,298.045699 35.6488802,299.746076 37.0910816,300.720882 L37.0733363,300.752349 Z" id="路径" fill="#414141" fill-rule="nonzero"></path>
                <path d="M35,312.422862 C35,312.422862 42.3861878,310.910578 44.3546867,308.895683 C46.3231856,306.880787 55.1900644,303.353608 56.1743139,305.875563 C57.1585633,308.397519 69.4703152,316.955265 61.099878,318.467549 C52.7294408,319.979833 41.4019383,320.482444 38.9369978,319.477221 C36.4720573,318.471997 35,312.422862 35,312.422862 Z" id="路径" fill="#A8A8A8" fill-rule="nonzero"></path>
                <path d="M61.1035939,317.736077 C52.7276474,319.123041 41.4028498,319.584003 38.9375583,318.658 C37.0637641,317.956359 35.7598797,314.578692 35.2460974,313 L35,313.048952 C35,313.048952 36.4765844,318.592731 38.9375583,319.518734 C41.3985323,320.444737 52.7276474,319.979696 61.1035939,318.592731 C63.5170753,318.1848 64.207875,317.254718 63.9488252,316.06356 C63.7329502,316.838629 62.8996731,317.438287 61.1035939,317.736077 Z" id="路径" fill="#000000" fill-rule="nonzero" opacity="0.2"></path>
                <path d="M146,357.845842 C162.78211,363.663257 183.256114,360.122605 202.296041,360.536562 C204.903841,360.593811 207.665292,360.761156 209.756653,361.765221 C211.848015,362.769287 212.872355,364.407499 214.306432,365.799099 C219.645806,370.986771 230.576372,372.660214 240.132614,371.775051 C249.688857,370.889888 258.451235,367.978978 267.448358,365.759465 C283.035404,361.919354 300.854659,360.175451 316.228301,364.359057 C317.641038,364.742188 319.126331,365.182567 320.637233,365.028434 C324.00902,364.689342 325.01202,361.901739 327.372271,360.311968 C331.640356,357.440693 340.867956,358.220165 342.737377,354.437304 C343.834275,352.235405 341.311837,349.941027 338.567458,348.430525 C328.063701,342.630725 313.031506,341.675101 299.275468,342.573476 C285.51943,343.47185 272.002405,345.929169 258.178078,345.937976 C240.956355,345.937976 224.315091,342.159519 207.259824,340.609383 C195.445765,339.530452 182.55188,339.66697 171.476199,342.811281 C159.495685,346.259454 156.849472,353.939675 146,357.845842 Z" id="路径" fill="#414141" fill-rule="nonzero" opacity="0.1"></path>
                <path d="M301.421799,312.820067 C301.514457,311.974959 301.649232,311.134274 301.792431,310.29359 C302.424189,306.6521 301.459704,303.183172 300.950086,301.754009 L300.950086,301.754009 C300.802676,301.311544 300.693171,301.059338 300.693171,301.059338 C298.136655,300.329271 288.058001,308.532578 284.402225,311.625411 C283.138708,311.625411 281.74884,311.682932 280.245254,311.789123 C279.588226,311.837794 278.926985,311.855493 278.269956,311.842219 C277.680315,311.842219 276.842182,311.842219 275.865062,311.842219 C272.457778,308.96177 261.924258,300.293873 259.296143,301.046065 C259.296143,301.046065 259.19085,301.293845 259.039228,301.740735 L259.039228,301.740735 C258.546456,303.169898 257.586183,306.638827 258.196883,310.280316 C258.344293,311.121001 258.474857,311.961685 258.567515,312.806793 C258.765466,314.660723 259.502517,318.204871 262.181173,320.607458 C262.749756,324.987865 264.897735,330.744339 266.54873,334.239815 C266.672465,334.901218 266.860158,335.547619 267.10889,336.168964 C266.42659,338.929948 265.64321,342.53604 265.845373,343.726272 C265.845373,343.726272 262.286466,342.819218 261.924258,347.323515 C261.924258,347.367762 261.924258,347.416433 261.924258,347.46068 C260.635471,348.084556 259.030804,349.500445 260.837634,352.478237 C261.055403,352.843659 261.382941,353.122361 261.768424,353.27025 C262.088515,353.389715 262.400183,353.389715 262.366489,352.916277 L264.594491,355.571069 C264.594491,355.571069 268.629322,356.057781 268.675651,353.597674 L268.911507,353.637496 C269.454819,353.721564 270.023402,353.792359 270.596196,353.854304 L270.87417,354.827728 C270.87417,354.827728 267.845941,354.761358 268.671439,356.717055 C268.671439,356.717055 269.433761,357.460396 269.694888,357.190493 C269.694888,357.190493 269.303197,358.473642 270.87417,358.473642 C270.87417,358.473642 272.558859,359.420518 273.228523,358.747971 C273.898187,358.075423 275.262786,357.057753 275.393349,356.650685 C275.431255,356.540069 275.448102,355.540097 275.452313,354.159605 L275.71344,354.159605 C279.082819,354.243673 282.67963,354.128632 285.947928,353.942797 L286.209055,353.942797 C286.209055,355.442755 286.230113,356.540069 286.268019,356.659534 C286.398582,357.066602 287.775816,358.079848 288.432844,358.75682 C289.089873,359.433792 290.787198,358.482491 290.787198,358.482491 C292.358171,358.482491 291.96648,357.199342 291.96648,357.199342 C292.227607,357.469246 292.989929,356.725904 292.989929,356.725904 C293.832274,354.770207 290.787198,354.836577 290.787198,354.836577 L291.145194,353.588825 L292.829884,353.442811 L293.09101,353.416263 C292.930965,356.093179 297.17217,355.579919 297.17217,355.579919 L299.400172,352.925127 C299.366478,353.398565 299.678146,353.398565 299.998236,353.279099 C300.38372,353.131211 300.711257,352.852508 300.929027,352.487086 C303.658224,348.000487 298.61258,347.049187 298.61258,347.049187 C298.456967,347.005514 298.297481,346.978825 298.136655,346.969543 C298.136655,346.889899 298.136655,346.810256 298.136655,346.735036 L298.136655,346.735036 C298.197645,346.147288 298.208921,345.555016 298.170349,344.965175 C297.980821,344.155463 296.734151,342.872314 295.163178,342.66878 C294.139729,342.53604 294.114459,337.584853 294.223964,334.151322 C294.338348,333.50504 294.391954,332.848506 294.384009,332.1912 C294.394896,331.133541 294.252888,330.080274 293.962837,329.067395 C295.971829,325.492275 297.580707,321.749018 297.753388,320.620732 C300.491008,318.204871 301.223848,314.665148 301.421799,312.820067 Z" id="路径" fill="url(#linearGradient-1)" fill-rule="nonzero"></path>
                <path d="M297.943168,347.934737 L297.943168,347.934737 C297.783109,350.187343 297.353478,353.803482 297.353478,353.803482 C297.353478,353.803482 295.567559,354.02575 292.808652,354.27794 L290.938492,354.440367 C289.497963,354.555775 287.888951,354.671184 286.187274,354.769495 C283.036644,354.944745 279.578532,355.051605 276.3226,354.974666 C274.692528,354.936196 273.113001,354.850709 271.6472,354.705379 C270.994329,354.641263 270.383578,354.564324 269.755979,354.470287 C266.019871,353.906067 263.362053,352.824645 263.117753,350.922539 C263,350.121903 262.970548,349.310506 263.029299,348.503232 C263.378902,344.228836 266.820165,345.083715 266.820165,345.083715 C266.596925,343.903982 267.430915,340.236551 268.083786,337.582152 C268.504994,335.910863 268.871444,334.641368 268.871444,334.641368 L292.977135,333 L293.057164,333 C293.38083,333.000761 293.690068,333.135999 293.912889,333.37423 C294.13571,333.61246 294.252671,333.932899 294.236544,334.260947 C294.093334,337.193182 293.886942,343.912531 295.078959,344.062135 C296.595305,344.254483 297.795746,345.472685 297.976865,346.242076 C298.01648,346.80616 298.005201,347.372737 297.943168,347.934737 L297.943168,347.934737 Z" id="路径" fill="#D3899B" fill-rule="nonzero"></path>
                <path d="M278,313.306759 C278,313.306759 268.541102,324.577829 263.97383,321.452275 C263.864251,321.378579 263.759054,321.300549 263.658241,321.222518 C260.590017,318.924954 259.787895,315.231511 259.577502,313.354445 C259.485456,312.53946 259.35396,311.733145 259.209315,310.922495 C258.573755,307.419793 259.542437,304.086157 260.033353,302.707619 L260.033353,302.707619 C260.182381,302.274116 260.287577,302.04436 260.287577,302.04436 C263.460998,301.177355 278,313.306759 278,313.306759 Z" id="路径" fill="#D3899B" fill-rule="nonzero"></path>
                <path d="M273,314.944509 C273,314.944509 269.999452,317.079841 265.767798,320.545306 C265.116586,321.087934 264.421375,321.574537 263.689478,322 C260.600679,319.642238 259.793178,315.852025 259.581375,313.925779 C259.488711,313.08944 259.356334,312.262 259.210719,311.43011 C258.570896,307.835636 259.546074,304.414657 260.040282,303 L260.040282,303 C265.939888,303.418169 273,314.944509 273,314.944509 Z" id="路径" fill="#EEC5CD" fill-rule="nonzero"></path>
                <path d="M269,313.267544 C269,313.267544 267.500663,314.390351 265.385896,316.214912 C265.059063,316.505457 264.711014,316.767978 264.345034,317 C262.804393,315.758772 262.399613,313.763158 262.279832,312.75 C262.234397,312.311404 262.168311,311.872807 262.093963,311.434211 C261.884541,309.942604 262.02645,308.419137 262.507004,307 L262.507004,307 C265.480895,307.201754 269,313.267544 269,313.267544 Z" id="路径" fill="#000000" fill-rule="nonzero" opacity="0.1"></path>
                <path d="M283,313.306759 C283,313.306759 292.464207,324.577829 297.027542,321.452275 L297.343162,321.222518 C300.411687,318.924954 301.209503,315.231511 301.419916,313.354445 C301.511972,312.53946 301.647864,311.733145 301.792523,310.922495 C302.423762,307.419793 301.459369,304.086157 300.964021,302.707619 L300.964021,302.707619 C300.814978,302.274116 300.705388,302.04436 300.705388,302.04436 C297.544808,301.177355 283,313.306759 283,313.306759 Z" id="路径" fill="#D3899B" fill-rule="nonzero"></path>
                <path d="M288,314.944509 C288,314.944509 291,317.079841 295.230889,320.545306 C295.884191,321.087072 296.580667,321.573618 297.313244,322 C300.401483,319.642238 301.204425,315.852025 301.416189,313.925779 C301.508837,313.08944 301.645601,312.262 301.79119,311.43011 C302.426485,307.835636 301.455895,304.414657 300.957365,303 L300.957365,303 C295.041183,303.418169 288,314.944509 288,314.944509 Z" id="路径" fill="#EEC5CD" fill-rule="nonzero"></path>
                <path d="M292,313.289114 C292,313.289114 293.503942,314.412957 295.62446,316.233142 C295.951228,316.518454 296.299567,316.774933 296.665971,317 C298.207408,315.761569 298.61568,313.765095 298.723998,312.75584 C298.769824,312.315117 298.836481,311.874394 298.907304,311.433671 C299.115215,309.942026 298.972121,308.419156 298.490699,307 L298.490699,307 C295.528641,307.229176 292,313.289114 292,313.289114 Z" id="路径" fill="#000000" fill-rule="nonzero" opacity="0.1"></path>
                <path d="M294,332 C292.804193,333.928508 291.529253,335.669087 290.36422,336.711644 C286.587758,340.107787 270.334461,338.769912 269.261752,338.590933 C269.041934,338.555137 268.580318,337.883962 268,336.801134 C268.439635,335.051606 268.822117,333.722681 268.822117,333.722681 L294,332 Z" id="路径" fill="#000000" fill-rule="nonzero" opacity="0.1"></path>
                <path d="M280.598557,313.161895 C279.964355,313.209281 279.330152,313.222205 278.691722,313.213589 C275.423466,313.157587 264.430626,313.304054 263.208729,317.822999 C261.771204,323.138898 268.193559,337.432377 269.208283,337.604691 C270.223007,337.777006 285.853981,339.069364 289.502758,335.79539 C293.151535,332.521417 297.870001,322.281634 297.61632,321.333905 C297.599408,321.333905 302.114929,311.64122 280.598557,313.161895 Z" id="路径" fill="#D3899B" fill-rule="nonzero"></path>
                <path d="M279.998369,322.07074 C279.998369,322.07074 271.857862,320.824103 268.001832,328.797474 C266.443187,331.948896 266.718383,335.690305 268.721625,338.583361 C270.006968,340.361839 271.862147,341.685061 274.462824,340.617123 C280.251153,338.255746 279.998369,322.07074 279.998369,322.07074 Z" id="路径" fill="#000000" fill-rule="nonzero" opacity="0.1"></path>
                <path d="M279.998369,321.070733 C279.998369,321.070733 271.857862,319.824215 268.001832,327.796826 C266.443187,330.947948 266.718383,334.689001 268.721625,337.581781 C270.006968,339.36009 271.862147,340.683186 274.462824,339.619604 C280.251153,337.254198 279.998369,321.070733 279.998369,321.070733 Z" id="路径" fill="#000000" fill-rule="nonzero" opacity="0.1"></path>
                <path d="M279.998369,321.07074 C279.998369,321.07074 271.857862,319.824103 268.001832,327.797474 C266.443187,330.948896 266.718383,334.690305 268.721625,337.583361 C270.006968,339.361839 271.862147,340.685061 274.462824,339.617123 C280.251153,337.264256 279.998369,321.07074 279.998369,321.07074 Z" id="路径" fill="#EEC5CD" fill-rule="nonzero"></path>
                <path d="M271,329 C271,329 269.578402,329.782407 270.125171,329.978009 C270.671939,330.173611 271,329 271,329 Z" id="路径" fill="#3F2B3B" fill-rule="nonzero"></path>
                <path d="M272.39037,330 C272.39037,330 271.674054,331.782251 272.182079,331.981544 C272.690105,332.180837 273,330.700373 273,330.700373 L272.39037,330 Z" id="路径" fill="#3F2B3B" fill-rule="nonzero"></path>
                <path d="M269.5,332 C269.5,332 268.375,334 269.5,334 C270.625,334 269.5,332 269.5,332 Z" id="路径" fill="#3F2B3B" fill-rule="nonzero"></path>
                <path d="M269,337 C269,337 270.108,340.214987 273,339.98858" id="路径" stroke="#3F2B3B"></path>
                <path d="M272,338 C272,338 273.45,339.841837 275,338.526239" id="路径" stroke="#3F2B3B"></path>
                <path d="M282.001706,322.07074 C282.001706,322.07074 290.140493,320.824103 293.995708,328.797474 C295.557718,331.948182 295.282436,335.691544 293.276068,338.583361 C291.990996,340.361839 290.136209,341.685061 287.540364,340.617123 C281.744691,338.255746 282.001706,322.07074 282.001706,322.07074 Z" id="路径" fill="#000000" fill-rule="nonzero" opacity="0.1"></path>
                <path d="M282.001706,321.070733 C282.001706,321.070733 290.140493,319.824215 293.995708,327.796826 C295.557718,330.947235 295.282436,334.69024 293.276068,337.581781 C291.990996,339.36009 290.136209,340.683186 287.540364,339.619604 C281.744691,337.254198 282.001706,321.070733 282.001706,321.070733 Z" id="路径" fill="#000000" fill-rule="nonzero" opacity="0.1"></path>
                <path d="M282.001706,321.07074 C282.001706,321.07074 290.140493,319.824103 293.995708,327.797474 C295.557718,330.948182 295.282436,334.691544 293.276068,337.583361 C291.990996,339.361839 290.136209,340.685061 287.540364,339.617123 C281.744691,337.264256 282.001706,321.07074 282.001706,321.07074 Z" id="路径" fill="#EEC5CD" fill-rule="nonzero"></path>
                <path d="M291,329 C291,329 292.421598,329.782407 291.874829,329.978009 C291.328061,330.173611 291,329 291,329 Z" id="路径" fill="#3F2B3B" fill-rule="nonzero"></path>
                <path d="M289.608307,330 C289.608307,330 290.328138,331.782251 289.816146,331.981544 C289.304154,332.180837 289,330.700373 289,330.700373 L289.608307,330 Z" id="路径" fill="#3F2B3B" fill-rule="nonzero"></path>
                <path d="M292.5,332 C292.5,332 293.625,334 292.5,334 C291.375,334 292.5,332 292.5,332 Z" id="路径" fill="#3F2B3B" fill-rule="nonzero"></path>
                <path d="M293,337 C293,337 291.888,340.214987 289,339.98858" id="路径" stroke="#3F2B3B"></path>
                <path d="M290,338 C290,338 288.55,339.841837 287,338.526239" id="路径" stroke="#3F2B3B"></path>
                <path d="M277,346 C277.227388,345.947064 281.547751,343.776705 286,346 L277,346 Z" id="路径" fill="#3F2B3B" fill-rule="nonzero"></path>
                <path d="M269.967153,354 C266.114264,353.399995 263.37337,352.249986 263.121434,350.227243 C263.00022,349.375827 262.969627,348.512969 263.030215,347.654495 C263.493828,347.396356 263.98938,347.206673 264.50274,347.090854 C265.202081,346.886307 266.066483,347.022672 267.89085,347.545403 C269.715217,348.068135 269.584905,350.34088 269.975841,353.268176 C270.010745,353.511007 270.007811,353.758152 269.967153,354 Z" id="路径" fill="#000000" fill-rule="nonzero" opacity="0.1"></path>
                <path d="M263.251974,348.082859 C263.251974,348.082859 258.002216,348.967258 260.842994,353.118091 C261.067063,353.455394 261.407971,353.713933 261.811131,353.852309 C262.142934,353.960773 262.465647,353.960773 262.43383,353.522745 L264.74736,355.963185 C264.74736,355.963185 269.38351,356.463788 268.974438,353.773046 C268.565366,351.082305 268.701723,349.02149 266.79272,348.520887 C264.883717,348.020284 263.979213,347.895133 263.251974,348.082859 Z" id="路径" fill="#D3899B" fill-rule="nonzero"></path>
                <path d="M265,351 C265,351 266.25641,353.015386 268,351.323901" id="路径" stroke="#3F2B3B"></path>
                <path d="M262,352 C262,352 262.628713,353.88542 265,352.478497" id="路径" stroke="#3F2B3B"></path>
                <path d="M298,348.041264 L298,348.041264 C297.844459,350.157338 297.426954,353.554299 297.426954,353.554299 C297.426954,353.554299 295.691444,353.763096 293.010407,354 C292.996531,353.851745 292.996531,353.702554 293.010407,353.554299 C293.378794,350.968433 293.255998,348.980849 294.975136,348.49901 C296.555106,348.06134 297.373743,347.920804 298,348.041264 Z" id="路径" fill="#000000" fill-rule="nonzero" opacity="0.1"></path>
                <path d="M298.749183,348.082859 C298.749183,348.082859 303.995431,348.967258 301.158639,353.118091 C300.931512,353.454628 300.589455,353.712775 300.185764,353.852309 C299.853896,353.960773 299.53112,353.960773 299.567489,353.522745 L297.248957,355.963185 C297.248957,355.963185 292.616438,356.463788 293.025591,353.773046 C293.434743,351.082305 293.298359,349.02149 295.203193,348.520887 C297.108026,348.020284 298.017254,347.895133 298.749183,348.082859 Z" id="路径" fill="#D3899B" fill-rule="nonzero"></path>
                <path d="M298,351 C298,351 296.74359,353.015386 295,351.323901" id="路径" stroke="#3F2B3B"></path>
                <path d="M300,352 C300,352 299.372323,353.88542 297,352.478497" id="路径" stroke="#3F2B3B"></path>
                <path d="M275.999368,354 C274.43693,353.962824 272.922939,353.880209 271.517956,353.739765 L270.125085,348.931616 C269.790993,347.787235 270.138943,346.548586 271.015932,345.760334 C271.892921,344.972083 273.138299,344.778624 274.204442,345.265026 C275.270584,345.751429 275.96219,346.828592 275.975144,348.022859 C275.987256,349.910595 276.003405,352.281624 275.999368,354 Z" id="路径" fill="#000000" fill-rule="nonzero" opacity="0.1"></path>
                <path d="M269.558934,349.133654 L271.350958,355.045054 C271.350958,355.045054 268.299674,354.980472 269.149454,356.853348 C269.149454,356.853348 269.915577,357.563749 270.179758,357.283894 C270.179758,357.283894 269.78789,358.510951 271.36857,358.510951 C271.36857,358.510951 273.08134,359.410792 273.741791,358.769279 C274.402242,358.127765 275.793592,357.15473 275.943295,356.767239 C276.026952,356.513216 276.000534,351.570546 275.974116,348.156314 C275.957207,346.408493 274.50339,345.000332 272.71589,345.00041 L272.71589,345.00041 C271.671184,344.984029 270.681985,345.459218 270.056756,346.277798 C269.431527,347.096378 269.246337,348.158759 269.558934,349.133654 L269.558934,349.133654 Z" id="路径" fill="#D3899B" fill-rule="nonzero"></path>
                <path d="M272,357 C272,357 270.408197,358.274725 271.241241,359" id="路径" stroke="#3F2B3B"></path>
                <path d="M271,356 C271,356 270,356.518519 270,358" id="路径" stroke="#3F2B3B"></path>
                <path d="M293,348.154439 C292.999381,348.45538 292.957226,348.754663 292.874807,349.043065 L291.55449,353.675715 C290.173607,353.789425 288.631218,353.903136 287,354 C287,352.269074 287,349.961172 287.024226,348.103901 C287.030916,346.3827 288.374056,344.993048 290.024213,345 C291.674371,345.007004 293.006665,346.407969 293,348.12917 L293,348.154439 Z" id="路径" fill="#000000" fill-rule="nonzero" opacity="0.1"></path>
                <path d="M293.44133,349.133705 L291.65015,355.045074 C291.65015,355.045074 294.699996,354.980493 293.850616,356.853359 C293.850616,356.853359 293.084854,357.563757 292.820798,357.283903 C292.820798,357.283903 293.216882,358.510953 291.632546,358.510953 C291.632546,358.510953 289.924985,359.41079 289.260444,358.76928 C288.595903,358.127769 287.214011,357.15474 287.059978,356.76725 C286.971959,356.513229 286.998365,351.570584 287.029172,348.15637 C287.043672,346.409251 288.495533,345.000425 290.28146,345.000483 L290.28146,345.000483 C291.326444,344.982698 292.316495,345.457299 292.942464,346.276088 C293.568433,347.094878 293.75404,348.158081 293.44133,349.133705 L293.44133,349.133705 Z" id="路径" fill="#D3899B" fill-rule="nonzero"></path>
                <path d="M291,357 C291,357 292.591803,358.274725 291.758759,359" id="路径" stroke="#3F2B3B"></path>
                <path d="M291,356 C291,356 292,356.518519 292,358" id="路径" stroke="#3F2B3B"></path>
                <path d="M280.303543,320.001171 C280.303543,320.001171 274.197892,319.798581 274.002893,324.723749 C273.807893,329.648917 283.536201,327.559997 283.536201,327.559997 C283.536201,327.559997 287.63119,326.988246 286.916192,323.99893 C286.201194,321.009614 284.723531,320.271289 280.303543,320.001171 Z" id="路径" fill="#000000" fill-rule="nonzero" opacity="0.1"></path>
                <path d="M280.303543,319.001171 C280.303543,319.001171 274.197892,318.798581 274.002893,323.723749 C273.807893,328.648917 283.536201,326.559997 283.536201,326.559997 C283.536201,326.559997 287.63119,325.988246 286.916192,322.99893 C286.201194,320.009614 284.723531,319.271289 280.303543,319.001171 Z" id="路径" fill="#000000" fill-rule="nonzero" opacity="0.1"></path>
                <path d="M280.303543,320.001171 C280.303543,320.001171 274.197892,319.798581 274.002893,324.723749 C273.807893,329.648917 283.536201,327.559997 283.536201,327.559997 C283.536201,327.559997 287.63119,326.988246 286.916192,323.99893 C286.201194,321.009614 284.723531,320.271289 280.303543,320.001171 Z" id="路径" fill="#3F2B3B" fill-rule="nonzero"></path>
                <path d="M267,345 C267,345 268.661972,345.688259 269,347" id="路径" fill="#000000" fill-rule="nonzero" opacity="0.1"></path>
                <path d="M295,344 C295,344 293.930795,344.580381 294.003552,347" id="路径" fill="#000000" fill-rule="nonzero" opacity="0.1"></path>
                <ellipse id="椭圆形" fill="#EEC5CD" fill-rule="nonzero" transform="translate(266.922594, 353.736677) rotate(-30.000000) translate(-266.922594, -353.736677) " cx="266.922594" cy="353.736677" rx="1" ry="1.59065969"></ellipse>
                <ellipse id="椭圆形" fill="#EEC5CD" fill-rule="nonzero" transform="translate(297.775231, 352.429424) rotate(-60.113473) translate(-297.775231, -352.429424) " cx="297.775231" cy="352.429424" rx="1.59622324" ry="1"></ellipse>
                <path d="M269.380375,178.107859 C267.986951,177.640707 259.785041,171.104991 259.167647,168.147833 C258.550253,165.190675 263.497981,137.650764 263.497981,137.650764 C263.497981,137.650764 263.04351,137.628728 262.314642,137.558215 L262.314642,137.117506 L263.33077,100.930882 C263.33077,100.930882 267.506755,76.6610319 259.61783,78.0580797 C251.728905,79.4551276 256.676633,100.930882 256.676633,100.930882 C256.676633,100.930882 255.776267,111.825211 255.14601,115.095272 C254.532904,118.241935 251.780355,131.075384 253.66255,135.063801 C253.729202,135.206421 253.806613,135.34346 253.894072,135.473661 L253.894072,135.473661 C253.894072,135.473661 254.202769,149.162085 250.798527,151.030692 C247.548633,152.793528 246.198083,161.766365 246.082322,162.572863 L245.910823,162.493535 L245.910823,162.493535 C244.942574,161.885366 244.088637,161.103141 243.389797,160.18422 C243.325486,160.091671 243.265461,159.990308 243.201149,159.893352 C247.799126,154.716865 247.642644,146.744226 242.84529,141.76258 L242.523731,141.440862 C242.789502,141.169885 242.985471,140.835166 243.093963,140.466895 C243.694207,138.607102 241.619077,137.113099 240.542925,135.949627 C238.051911,133.226044 235.805282,129.889877 232.33244,128.347395 C233.32778,128.927629 234.249442,129.632242 235.076414,130.44517 C234.028014,129.515516 232.827512,128.784367 231.530685,128.285695 C227.89492,126.963568 223.71036,128.056527 220.53764,130.286515 C217.36492,132.516503 215.01968,135.729272 212.875951,138.968484 L211.838385,140.555037 C210.930261,139.506343 209.940903,138.53507 208.880039,137.650764 C206.86922,136.095061 202.847584,130.9608 202.847584,130.9608 C202.847584,130.9608 190.31534,117.889368 189.384962,114.31081 C188.454583,110.732252 175.926627,89.2564979 173.139779,92.993711 C170.35293,96.7309241 182.730825,113.063603 182.730825,113.063603 C182.730825,113.063603 185.054628,118.977919 186.911098,120.996367 C188.767568,123.014815 202.534599,143.247769 202.534599,143.247769 L203.700788,145.671669 L203.919448,146.112378 L203.773675,146.028644 L203.773675,148.985802 L205.059912,149.104793 C204.488662,149.624794 203.966158,150.198764 203.499277,150.819152 C202.800773,151.861891 202.281597,153.020149 201.964367,154.243461 C199.936399,161.131744 200.763878,168.672277 203.379228,175.357834 C203.919448,176.732846 204.536842,178.103452 204.699766,179.571013 C204.935576,181.624717 204.27102,183.656386 203.867999,185.688055 C203.310629,188.539443 203.332066,191.646442 204.725491,194.189334 C206.590535,197.565165 210.770808,199.323595 214.560922,198.693381 C216.290731,198.393074 217.927166,197.677352 219.337151,196.604419 C221.112974,195.337565 222.545699,193.626744 223.500274,191.633221 C224.207705,190.148031 224.649313,188.548257 225.352457,187.05866 C225.485368,186.7722 225.635429,186.49896 225.781203,186.221313 C227.384712,188.067884 228.825299,189.746986 228.825299,189.746986 C228.825299,189.746986 232.229541,206.551224 229.288344,211.218333 C227.724336,213.566848 225.830107,215.663935 223.667485,217.441146 C223.121646,217.903062 222.620539,218.41815 222.171162,218.97922 C221.879615,219.195168 221.708116,219.309752 221.708116,219.309752 C221.708116,219.309752 221.630942,219.534514 221.519468,219.878267 C220.829216,220.921151 220.329439,222.084493 220.044582,223.311391 C219.938055,223.625162 219.899997,223.959183 219.933108,224.289765 C220.143194,224.730474 218.419635,226.49331 218.925555,227.246923 C214.638096,232.315078 213.814904,240.001044 213.814904,240.001044 L205.998866,251.983925 C201.977229,262.64027 195.944774,263.733229 195.944774,263.733229 C195.944774,263.733229 181.796159,254.161027 181.397425,253.693876 C180.998692,253.226724 175.596493,250.895373 175.596493,250.895373 C174.954923,249.759447 173.981241,248.860378 172.813932,248.326039 C170.957462,247.550391 170.803114,244.672561 170.803114,244.672561 C170.571591,237.903269 166.622841,237.35679 166.622841,237.35679 C163.441546,237.087957 161.00627,237.656472 159.141225,238.700952 L158.57528,238.745023 C155.835594,238.969785 152.53425,239.216582 148.90706,239.458972 C138.844393,240.12885 136.451991,246.695415 136.451991,246.695415 C136.451991,246.695415 135.212915,248.092463 136.837862,249.608502 C138.462809,251.124542 148.842748,249.634945 149.271494,249.573246 C148.480845,249.662888 147.680995,249.607679 146.909104,249.410183 C148.546913,249.348484 150.793542,249.291192 152.705749,249.286785 L153.173082,249.286785 C153.052546,250.310347 152.995265,251.340735 153.001583,252.371749 C153.001583,254.319683 158.33947,255.562482 158.33947,255.562482 L174.584653,270.105883 C174.584653,270.105883 184.79738,274.698071 191.305743,281.308708 C197.814106,287.919344 203.52929,282.243011 203.52929,282.243011 C210.389224,280.53306 230.201573,256.439493 230.218723,256.417458 L230.218723,256.417458 C230.218723,257.157849 230.647469,280.555095 231.436361,285.257461 L231.436361,285.257461 C231.466955,285.49564 231.524511,285.729331 231.60786,285.953782 C232.538238,287.981043 231.299163,293.503128 230.750368,295.838887 C230.201573,298.174645 230.360209,301.748796 230.360209,301.748796 C230.360209,301.748796 222.942905,330.35963 223.581736,332.849637 C224.220567,335.339643 219.555812,347.00962 219.555812,347.00962 L219.555812,356.731662 C219.555812,356.731662 219.851647,356.731662 220.366142,356.691999 C220.25943,356.8458 220.162063,357.00623 220.074594,357.172372 C220.05516,357.206405 220.037972,357.241741 220.023145,357.278142 C220.023145,357.278142 224.970873,358.366693 228.297941,358.05379 C231.625009,357.740886 237.348767,360.640752 237.348767,360.640752 C237.348767,360.640752 239.286699,361.557427 245.24198,361.962879 C251.197261,362.368332 251.197261,359.318625 251.197261,359.318625 C250.511267,355.180366 241.108869,353.800947 240.813034,353.761283 C240.054154,353.28091 239.342436,352.756466 238.759342,352.306943 L238.635005,352.20558 C238.679513,352.116872 238.715415,352.023874 238.742192,351.927933 C239.749745,347.802896 234.180335,346.013617 234.180335,346.013617 L234.180335,345.004393 C237.811813,343.135787 238.510669,330.297931 238.510669,330.297931 C238.510669,330.297931 243.92573,314.432403 244.697472,311.788149 C245.469215,309.143894 244.697472,305.177512 244.697472,305.177512 L245.24198,301.75761 C245.24198,301.75761 246.399594,299.421852 246.399594,298.9547 C246.55317,297.766618 247.006998,296.640658 247.715844,295.689046 C248.573336,294.675415 246.789753,292.264736 246.789753,292.264736 L248.337525,288.219026 L248.337525,283.75905 L251.969003,267.65554 C251.969003,267.65554 255.763405,248.903368 254.447155,242.755476 C253.130905,236.607584 255.994927,233.500585 255.994927,233.500585 C255.735774,233.637331 255.469556,233.759442 255.19746,233.866374 C255.562603,233.025016 255.876199,232.161009 256.136414,231.279411 L264.282586,232.297449 C264.282586,232.367963 264.282586,232.416441 264.282586,232.416441 L267.219495,232.416441 C267.219495,232.416441 266.293404,220.900712 266.293404,216.233603 C266.293404,211.566493 269.38895,194.916504 269.38895,194.916504 C269.38895,194.916504 270.769512,178.57501 269.380375,178.107859 Z M233.254244,164.445877 C233.254244,164.511983 233.254244,164.573682 233.254244,164.635382 C233.254244,165.076091 233.211369,165.565278 233.181357,166.045651 L233.018434,166.301262 L232.722599,166.041244 L232.34959,166.618573 L232.34959,166.618573 C232.217268,165.876216 232.455508,165.115081 232.984134,164.591311 C233.071108,164.538345 233.161334,164.491237 233.254244,164.450284 L233.254244,164.445877 Z M260.316686,218.35782 L260.496759,218.35782 L260.205212,219.11584 C260.243799,218.869043 260.278099,218.617839 260.316686,218.362228 L260.316686,218.35782 Z M230.600307,356.035342 L229.489855,355.757695 L230.107249,355.651925 L230.664619,356.026528 L230.733218,356.070599 L230.600307,356.035342 Z M241.936349,354.404718 C241.567627,354.206399 241.194618,353.964009 240.834472,353.752469 C240.950233,353.818575 241.426141,354.06978 241.936349,354.404718 L241.936349,354.404718 Z" id="形状" fill="url(#linearGradient-2)" fill-rule="nonzero"></path>
                <polygon id="路径" fill="#F1D2D7" fill-rule="nonzero" points="262 207 254.929868 225.992377 253.938768 225.155514 250 231.458411 262 233"></polygon>
                <polygon id="路径" fill="#000000" fill-rule="nonzero" opacity="0.1" points="262 207 254.928114 225.992377 253.151601 225.499068 250 231.458411 262 233"></polygon>
                <polygon id="路径" fill="#F1D2D7" fill-rule="nonzero" points="251 219 261.972927 219 266 185 251 185"></polygon>
                <polygon id="路径" fill="#000000" fill-rule="nonzero" opacity="0.1" points="251 219 261.972927 219 266 185 251 185"></polygon>
                <path d="M229.099375,193 L231.463011,192.556153 L236.90487,191.624073 C236.90487,191.624073 253.24736,187.762601 256.634251,187.451908 C258.748416,187.256615 261.086682,186.342289 262.553912,185.676518 C263.437632,185.281494 264,184.97524 264,184.97524 L258.114166,173.688201 L248.980977,166.586643 C248.980977,166.586643 243.20508,165.295047 240.756877,161.766461 C239.651851,160.222376 239.366967,158.195907 240,156.382592 C241.492606,151.526902 231.095146,161.020797 231.095146,161.020797 C231.095146,161.020797 231.196626,163.293296 231.095146,166.191619 C231.095146,166.764182 231.044406,167.358937 231.006351,167.967008 C230.980981,168.366471 230.947155,168.765934 230.913328,169.174273 C230.6554,172.050404 230.135316,175.015305 229.11206,176.786256 C226.617346,181.096014 229.099375,193 229.099375,193 Z" id="路径" fill="#FFBEC7" fill-rule="nonzero"></path>
                <path d="M231,166 L231.23622,166 C231.673666,166 232.010499,165.092643 232.430446,165.04902 C235.794401,164.72621 238.865267,164.023881 241,161.650793 C239.85908,160.132256 239.56453,158.141776 240.216973,156.359331 C241.761155,151.586982 231.030621,160.913566 231.030621,160.913566 C231.030621,160.913566 231.113736,163.14706 231,166 Z" id="路径" fill="#000000" fill-rule="nonzero" opacity="0.1"></path>
                <path d="M220,153.001649 C220.011962,160.183948 225.833515,166 233.010624,166 C233.433587,166 233.856275,165.978452 234.276992,165.934899 C241.253042,165.251012 246.428547,159.15144 245.971981,152.151815 C245.515414,145.152189 239.591483,139.777653 232.58579,140.007079 C225.580097,140.236505 220.019972,145.987128 220.021684,153.001649 L220,153.001649 Z" id="路径" fill="#FFBEC7" fill-rule="nonzero"></path>
                <path d="M220,152.989268 C220.011757,160.178409 225.733796,166 232.788219,166 C233.203951,166 233.619414,165.978431 234.032939,165.934837 C234.259995,165.839511 234.461606,165.690625 234.621197,165.500422 C234.921629,165.031567 235.005734,164.452228 234.851385,163.914807 C234.348382,161.373479 232.084867,159.548936 231.270684,157.090146 C230.554544,154.918071 231.091649,152.454938 232.191436,150.44794 C233.291223,148.440943 234.915326,146.785822 236.518117,145.161109 C236.787135,144.842265 237.125885,144.592278 237.507072,144.431292 C238.871149,143.996877 240.917264,145.213239 242,143.970812 C238.383211,140.161291 232.862648,138.96377 228.037003,140.941956 C223.211358,142.920143 220.042187,147.679865 220.021314,152.98058 L220,152.989268 Z" id="路径" fill="#000000" fill-rule="nonzero" opacity="0.1"></path>
                <path d="M235.982414,144.057362 C235.604498,144.218709 235.269084,144.472026 235.004189,144.796152 C233.423007,146.440841 231.816525,148.111915 230.728671,150.147986 C229.640818,152.184058 229.10954,154.659886 229.81791,156.867462 C230.619043,159.360881 232.862214,161.207857 233.355543,163.780431 C233.508075,164.323031 233.424853,164.908097 233.127852,165.381144 C232.706204,165.93084 231.905071,165.961623 231.356928,166.374993 C230.656991,166.907099 230.513631,167.962514 230.724455,168.837629 C231.009942,169.689602 231.399673,170.499582 231.883989,171.247493 C233.064605,173.424287 233.570584,176.256317 232.305637,178.371545 C231.709605,179.234779 230.999875,180.006078 230.197394,180.662675 C228.868213,181.893476 227.638465,183.236338 226.520617,184.67765 C225.557175,185.876519 224.733426,187.1903 224.066622,188.591481 C223.400417,190.05587 222.978768,191.634595 222.308347,193.098983 C220.735597,196.524685 217.640696,199.255571 214.044033,199.875628 C210.447369,200.495684 206.479655,198.763044 204.712947,195.442884 C203.380537,192.936273 203.363672,189.879967 203.890732,187.087515 C204.266,185.091021 204.902689,183.09013 204.683432,181.067251 C204.523205,179.624851 203.937114,178.274799 203.418486,176.920349 C200.939192,170.324005 200.150708,162.918509 202.073427,156.137467 C202.374969,154.935801 202.868149,153.795587 203.532331,152.764536 C204.230488,151.864051 205.000652,151.026977 205.834533,150.262323 C208.461404,147.584207 210.396772,144.272842 212.433335,141.084609 C214.469898,137.896376 216.68777,134.730131 219.702558,132.535747 C222.717346,130.341363 226.68506,129.255165 230.134147,130.570036 C233.74346,131.946473 235.973981,135.455729 238.478574,138.278964 C239.494748,139.431126 241.468063,140.895514 240.898838,142.729298 C240.06819,145.315065 237.563597,143.538449 235.982414,144.057362 Z" id="路径" fill="#493545" fill-rule="nonzero"></path>
                <path d="M213.283701,199.446342 C216.86217,198.828089 219.945029,196.105143 221.511659,192.685018 C222.183672,191.229273 222.59948,189.655139 223.267293,188.195009 C223.930187,186.798123 224.749314,185.488171 225.70754,184.292559 C226.823583,182.855018 228.049855,181.514698 229.37421,180.284874 C230.174711,179.631503 230.881846,178.862267 231.47425,178.000406 C232.734275,175.891329 232.251265,173.067534 231.079443,170.901455 C230.597256,170.15334 230.20775,169.344493 229.920221,168.494213 C229.701816,167.617258 229.853019,166.569297 230.550233,166.043124 C231.100443,165.630955 231.890058,165.604646 232.318467,165.052165 C232.614312,164.580493 232.69721,163.997129 232.545271,163.456107 C232.049662,160.886628 229.815219,159.049407 229.017203,156.56324 C228.31159,154.370852 228.8366,151.889069 229.924421,149.858918 C231.012242,147.828767 232.604072,146.171322 234.166502,144.522647 C234.43301,144.201614 234.768294,143.950735 235.145121,143.790389 C236.715951,143.272986 239.214999,145.044435 240.021415,142.453033 C240.588425,140.624582 238.622788,139.160067 237.610568,138.01564 C235.464327,135.59086 233.51549,132.66183 230.718236,131 C233.998499,132.499593 236.12374,135.78379 238.488385,138.454118 C239.500605,139.598544 241.466242,141.058674 240.899231,142.887126 C240.092816,145.478528 237.593768,143.707079 236.022938,144.224482 C235.645838,144.386378 235.310576,144.638742 235.044319,144.961124 C233.469289,146.60103 231.873258,148.267245 230.785437,150.297396 C229.697616,152.327547 229.172606,154.796175 229.87822,157.001717 C230.676235,159.4835 232.910678,161.325106 233.406288,163.890199 C233.558226,164.431221 233.475329,165.014586 233.179483,165.486257 C232.759475,166.034354 231.95726,166.065048 231.411249,166.481601 C230.714036,167.007774 230.571233,168.060121 230.781237,168.932691 C231.06535,169.78311 231.455081,170.590953 231.940459,171.335548 C233.112282,173.506011 233.620492,176.329807 232.335267,178.438884 C231.74177,179.299795 231.034774,180.06888 230.235227,180.723352 C228.911938,181.952747 227.685742,183.291517 226.568556,184.726651 C225.611121,185.922875 224.792056,187.232725 224.12831,188.629101 C223.460497,190.093616 223.044689,191.663366 222.372676,193.123496 C220.806046,196.539236 217.723187,199.262181 214.144718,199.880435 C212.02909,200.226728 209.863466,199.815664 208,198.714084 C209.657839,199.480939 211.491634,199.735081 213.283701,199.446342 Z" id="路径" fill="#000000" fill-rule="nonzero" opacity="0.1"></path>
                <path d="M225,353.164485 L227.314272,354.735344 L227.663846,354.976665 L227.734646,355.02675 L230.473717,356.889015 L236.863407,358 L242.491999,357.60387 C242.491999,357.60387 244.111546,354.116107 241.567175,354.193512 C240.750575,354.153255 239.954037,353.919523 239.239629,353.510529 L238.894479,353.323847 L238.894479,353.323847 C238.527205,353.123506 238.155505,352.900398 237.797081,352.663631 L237.797081,352.663631 L237.797081,352.663631 C237.044832,352.171884 236.332408,351.639158 235.752734,351.179283 C234.911985,350.50996 234.350011,350 234.350011,350 L225,353.164485 Z" id="路径" fill="#FFBEC7" fill-rule="nonzero"></path>
                <path d="M228,355.091278 L228.334292,355.306288 L228.401997,355.350913 L231.021325,357.010142 L237.131679,358 L242.514207,357.647059 C242.514207,357.647059 244.062953,354.539554 241.629814,354.608519 C240.848913,354.572652 240.087196,354.364403 239.40402,354 C239.793698,354.216915 240.092809,354.556723 240.250329,354.96146 C240.347655,355.772819 236.272675,357.192698 236.272675,357.192698 L230.522002,355.736308 C230.522002,355.736308 229.544515,355.472617 228.203114,355.139959 L228.076168,355.107505 L228,355.091278 Z" id="路径" fill="#000000" fill-rule="nonzero" opacity="0.1"></path>
                <path d="M219,356.430427 C219,356.430427 223.760684,357.484275 226.961538,357.185034 C230.162393,356.885794 235.666667,359.691718 235.666667,359.691718 C235.666667,359.691718 237.529915,360.559083 243.25641,360.962407 C248.982906,361.365732 249,358.390671 249,358.390671 C248.34188,354.37911 239.294872,353.034695 239.008547,353 L239.008547,353 L239.008547,353 L239.008547,353 C239.123932,353.060716 239.581197,353.307914 240.068376,353.628839 L240.068376,353.628839 C240.709402,354.062522 241.405983,354.613298 241.457265,355.059991 C241.555556,355.927356 237.440171,357.445244 237.440171,357.445244 L231.636752,355.892661 C231.636752,355.892661 230.649573,355.606431 229.290598,355.250811 L229.162393,355.216117 C227.16232,354.655338 225.129939,354.220823 223.076923,353.91507 C220.576923,353.646187 219.294872,355.805925 219.034188,356.304659 C219.012821,356.395733 219,356.430427 219,356.430427 Z" id="路径" fill="#BD577A" fill-rule="nonzero"></path>
                <path d="M144,246.954403 L146.626571,248.96869 C146.626571,248.96869 147.389697,248.933118 148.525511,248.893099 L148.889327,248.893099 C150.522061,248.835294 152.767069,248.777489 154.67932,248.773042 C156.45403,248.773042 157.92704,248.826401 158.370717,248.98203 C159.70175,249.426685 162,241.471808 162,241.471808 L159.364555,240.849291 L158.4772,240.64475 L157.864925,240.50246 L155.726399,240 L149.235396,240.733681 L144.678827,243.677296 L144,246.954403 Z" id="路径" fill="#FFBEC7" fill-rule="nonzero"></path>
                <path d="M145,246.981683 L147.564251,249 C147.564251,249 148.309269,248.964356 149.418135,248.924257 C148.91096,248.719108 148.493711,248.331097 148.244297,247.832673 C146.585331,243.10099 154.806526,241.087129 154.806526,241.087129 L158.635576,240.913366 L159.376263,240.882178 L160,240.85099 L159.133699,240.64604 L158.535951,240.503465 L156.448166,240 L150.111175,240.735149 L145.66272,243.684653 L145,246.981683 Z" id="路径" fill="#000000" fill-rule="nonzero" opacity="0.1"></path>
                <path d="M139.810057,249.347693 C141.373024,250.805114 151.597799,249.374032 152.034382,249.312574 C151.256817,249.401969 150.469533,249.346913 149.71176,249.150151 C148.284134,248.746287 147.939233,247.859543 147.939233,247.859543 C146.271486,243.197551 154.553467,241.208961 154.553467,241.208961 L158.417227,241.042147 L159.163784,241.007029 L168.541588,240.598775 L169,238 C169,238 165.943919,238.294118 161.1677,238.676033 C158.473982,238.895524 155.225804,239.141354 151.667652,239.374015 C141.779046,240.032488 139.443327,246.485528 139.443327,246.485528 C139.443327,246.485528 138.233992,247.859543 139.810057,249.347693 Z" id="路径" fill="#BD577A" fill-rule="nonzero"></path>
                <path d="M250.625354,136.578973 C250.688562,136.720072 250.761507,136.856275 250.843625,136.986523 L253.081974,140.379816 L258.893977,141 L258.958174,138.616721 L259.933975,102.734641 C259.933975,102.734641 263.96129,78.6670675 256.36032,80.0580519 C248.759351,81.4490362 253.527076,102.734641 253.527076,102.734641 C253.527076,102.734641 252.671111,113.534704 252.050536,116.772951 C251.4642,119.900451 248.810708,132.623085 250.625354,136.578973 Z" id="路径" fill="#FFBEC7" fill-rule="nonzero"></path>
                <path d="M237,225.3523 L238.705449,228.236046 L242.527246,234.68309 C242.527246,234.68309 249.463918,237.187854 251.231222,235.288589 C252.207658,234.243123 253.254786,230.614482 253.992636,227.569561 C254.597938,225.090933 255,223 255,223 L237,225.3523 Z" id="路径" fill="#FFBEC7" fill-rule="nonzero"></path>
                <path d="M237,225.246256 L238.705449,228 C238.81402,227.912307 238.913172,227.814778 239.001473,227.708819 C240.927835,225.387687 249.43299,227.21797 253.992636,227.363561 C254.597938,224.996672 255,223 255,223 L237,225.246256 Z" id="路径" fill="#000000" fill-rule="nonzero" opacity="0.1"></path>
                <path d="M155,248.781027 C156.796023,248.781027 158.286722,248.832509 158.735728,248.982662 C160.082745,249.411672 162.408595,241.736679 162.408595,241.736679 L158.8839,240.93872 L168.528544,240.539741 L169,238 C169,238 165.85696,238.287437 160.944836,238.660676 C159.921046,239.217732 159.008882,239.944017 158.250802,240.805727 L158.10263,240.977331 C156.050674,243.384079 155.291854,246.490113 155,248.781027 Z" id="路径" fill="#000000" fill-rule="nonzero" opacity="0.1"></path>
                <path d="M228,353.173516 L230.481099,355 C234.202749,354.260274 237.59772,353.09589 237.998831,351.273973 C238.00039,351.243556 238.00039,351.213065 237.998831,351.182648 C237.213149,350.511416 236.687983,350 236.687983,350 L228,353.173516 Z" id="路径" fill="#000000" fill-rule="nonzero" opacity="0.1"></path>
                <path d="M220,356 C223.351309,355.861866 226.690292,355.558342 230,355.090969 C228.025245,354.6282 226.018589,354.269627 223.991561,354.017311 C221.523207,353.806159 220.257384,355.588431 220,356 Z" id="路径" fill="#000000" fill-rule="nonzero" opacity="0.1"></path>
                <path d="M154,252.593179 C154,254.519189 159.176657,255.754492 159.176657,255.754492 L174.952508,270.170789 C174.952508,270.170789 184.874426,274.717944 191.177001,281.270806 C197.479576,287.823668 203.053106,282.218314 203.053106,282.218314 C209.735302,280.52254 228.966569,256.622303 228.966569,256.622303 C228.966569,256.622303 229.419526,283.914089 230.321126,285.919796 C231.222727,287.925503 230.019155,293.398028 229.492862,295.713668 C228.966569,298.029308 229.117554,301.571396 229.117554,301.571396 C229.117554,301.571396 221.904751,329.863821 222.508694,332.329999 C223.112637,334.796178 218.600321,346.361094 218.600321,346.361094 L218.600321,356 C218.600321,356 236.252708,355.304865 237.227644,351.218182 C238.20258,347.131498 232.797292,345.360454 232.797292,345.360454 L232.797292,344.337676 C236.326044,342.486936 237.003322,329.766413 237.003322,329.766413 C237.003322,329.766413 242.261939,314.035117 243.012554,311.440537 C243.763169,308.845958 243.012554,304.883248 243.012554,304.883248 L243.538847,301.491699 C243.538847,301.491699 244.664769,299.180487 244.664769,298.720015 C244.81691,297.543287 245.262706,296.426869 245.958932,295.479005 C246.787197,294.478365 245.057332,292.087456 245.057332,292.087456 L246.562875,288.102607 L246.562875,283.705991 L250.091627,267.766597 C250.091627,267.766597 253.771364,249.170637 252.494457,243.095956 C251.217549,237.021276 254,233.917522 254,233.917522 C247.960571,237.167387 244.940857,229.932673 243.935724,226.833346 C243.676891,226.031949 243.556102,225.505063 243.556102,225.505063 C243.556102,225.505063 235.277771,222.370316 227.564558,223.114154 C225.999838,223.249511 224.457825,223.585679 222.974593,224.114794 C214.411546,227.276107 213.052674,240.381832 213.052674,240.381832 L205.464564,252.25668 C201.582074,262.816529 195.697945,263.896866 195.697945,263.896866 C195.697945,263.896866 181.953931,254.412926 181.578624,253.952455 C181.203316,253.491983 175.9447,251.176344 175.9447,251.176344 C175.32635,250.056923 174.379891,249.166075 173.239898,248.630468 C171.436697,247.860064 171.290026,245.008684 171.290026,245.008684 C171.06139,238.300855 167.230667,237.760687 167.230667,237.760687 C153.926668,236.556377 154,250.667169 154,252.593179 Z" id="路径" fill="#E7AEB8" fill-rule="nonzero"></path>
                <rect id="矩形" fill="#F1D2D7" fill-rule="nonzero" transform="translate(234.000000, 202.500000) rotate(-180.000000) translate(-234.000000, -202.500000) " x="230" y="190" width="8" height="25"></rect>
                <rect id="矩形" fill="#000000" fill-rule="nonzero" opacity="0.1" transform="translate(234.000000, 201.500000) rotate(-180.000000) translate(-234.000000, -201.500000) " x="230" y="189" width="8" height="25"></rect>
                <path d="M251.000749,137 C250.99975,137.017131 250.99975,137.034303 251.000749,137.051434 C251.061426,137.177454 251.131451,137.299101 251.210282,137.41543 L253.359028,140.446093 L258.938372,141 L259,138.871414 C257.257996,138.725025 253.297401,138.266073 251.000749,137 Z" id="路径" fill="#000000" fill-rule="nonzero" opacity="0.1"></path>
                <path d="M250.529912,138 C250.529912,138 250.828718,151.414443 247.541851,153.244481 C244.254985,155.07452 243,164.627494 243,164.627494 C243,164.627494 252.894748,171.317204 255.122987,174.259275 C257.351226,177.201346 262.405316,184.210655 261.368032,185.88746 C260.330749,187.564266 263.912152,195.186506 263.912152,195.186506 C263.912152,195.186506 257.368301,208.911793 258.858062,214.095442 C260.347823,219.279091 260.492958,233 260.492958,233 L263.310272,233 C263.310272,233 262.418122,221.717683 262.418122,217.142587 C262.418122,212.567492 265.406182,196.254758 265.406182,196.254758 C265.406182,196.254758 266.742272,180.244113 265.406182,179.788792 C264.070093,179.333472 256.190151,172.928338 255.58827,170.030047 C254.98639,167.131757 259.750211,140.14526 259.750211,140.14526 C259.750211,140.14526 253.654569,139.830038 250.529912,138 Z" id="路径" fill="#F1D2D7" fill-rule="nonzero"></path>
                <path d="M230,186.797386 C230.265646,188.654653 230.920503,190.429998 231.919047,192 L237.359165,191.063181 C237.359165,191.063181 253.696426,187.272331 257.082234,186.96732 C259.195722,186.775599 261.533239,185.877996 263,185.224401 C261.707025,180.495875 259.178913,176.224294 255.691559,172.875817 L253.616114,170.893246 C250.556688,167.975609 247.018665,165.641581 243.16703,164 C243.407967,164.213508 260.548354,179.298475 256.7948,182.257081 C253.041245,185.215686 242.943,177.991285 242.943,177.991285 L231.449853,167.812636 L231.027155,167.442266 L230.359293,168.505447 C230.698952,168.650583 231.030571,168.814959 231.352632,168.997821 C235.260092,171.218585 238.157558,174.941512 239.413475,179.35512 C241.784809,187.546841 230,186.797386 230,186.797386 Z" id="路径" fill="#000000" fill-rule="nonzero" opacity="0.1"></path>
                <path d="M226,225.22347 C226,225.22347 236.996235,231.415406 239.654618,227.942198 C240.243474,227.179046 241.463855,226.845168 243,226.75411 C242.743976,225.969278 242.624498,225.453283 242.624498,225.453283 C242.624498,225.453283 234.435994,222.383332 226.806476,223.111795 C226.315763,224.399613 226,225.22347 226,225.22347 Z" id="路径" fill="#000000" fill-rule="nonzero" opacity="0.1"></path>
                <path d="M231.910844,167.517825 L243.654348,178.208299 C243.654348,178.208299 253.584425,185.544467 257.31133,182.521612 C261.038236,179.498758 243.871125,164 243.871125,164 L243.871125,164 C247.672173,165.662581 251.16325,168.030091 254.180563,170.991456 L256.227443,173.002272 C261.605192,178.283429 262.818312,178.283429 262.997571,186.052695 C263.043427,187.961866 262.430614,190.710719 261.95954,191.210109 C260.216982,193.039731 258.991356,206.174122 259.262328,207.712065 C259.5333,209.250009 256.006496,222.534658 257.177929,226.229258 C258.349361,229.923858 242.95399,224.381958 240.340154,227.92188 C237.726317,231.461801 227,225.15093 227,225.15093 C227,225.15093 232.953044,208.989265 234.403785,207.915357 C235.854527,206.841448 237.597085,198.524179 234.403785,194.657223 C231.210486,190.790268 230.906164,187.139862 230.906164,187.139862 C230.906164,187.139862 242.528773,187.904414 240.198414,179.600403 C238.8723,174.730674 235.612756,170.713811 231.268849,168.596153 L231.910844,167.517825 Z" id="路径" fill="#E8E8F0" fill-rule="nonzero"></path>
                <path d="M246.991337,195 C246.991337,195 242.19066,204.174518 235.972004,206.555932 C235.776421,206.627959 235.580837,206.695485 235.380809,206.758509 C228.882114,208.752774 247.45807,197.822582 246.991337,195 Z" id="路径" fill="#000000" fill-rule="nonzero" opacity="0.1"></path>
                <path d="M184.419167,115.434836 C184.419167,115.434836 186.60352,121.327738 188.352677,123.339514 C190.101833,125.351291 203.069863,145.504659 203.069863,145.504659 L204.170409,147.921461 L205.111941,150 L213.418343,149.069776 L214,145.50911 L213.681972,145.095183 C212.845054,144.031434 210.572825,141.173999 209.045451,139.927766 C207.154018,138.378877 203.362784,133.251518 203.362784,133.251518 C203.362784,133.251518 191.558069,120.228382 190.687675,116.667717 C189.817282,113.107051 178.008382,91.7118997 175.384647,95.4327955 C172.760912,99.1536914 184.419167,115.434836 184.419167,115.434836 Z" id="路径" fill="#FFBEC7" fill-rule="nonzero"></path>
                <path d="M204,147.881125 L204.957854,150 L213.408259,149.051724 L214,145.42196 L213.676458,145 C212.765432,145.476407 206.009366,148.92922 204,147.881125 Z" id="路径" fill="#000000" fill-rule="nonzero" opacity="0.1"></path>
                <path d="M235,170.488652 C235,170.488652 232.905522,167.111328 231.705605,168.032817 C230.505688,168.954306 230.041204,165.26835 229.374584,165.881206 C228.707963,166.494063 226.686598,168.209179 225.86515,165.810662 C225.211432,163.905957 218.123751,151.869282 215.233629,147.01934 L214.033713,145 C214.033713,145 205.943951,149.148905 204,147.764467 L204,150.683251 L205.647198,150.837567 L214.480993,167.724185 C214.480993,167.724185 217.259295,172.243449 217.061459,173.826294 C216.863624,175.409139 220.613901,182.313693 221.211709,182.772233 C221.809517,183.230773 228.252081,190.911318 228.252081,190.911318 C228.252081,190.911318 231.546476,207.493712 228.682159,212.101157 C225.817841,216.708603 220.893452,220.085926 220.893452,220.085926 C220.893452,220.085926 219.409684,224.534646 219.603219,224.997595 C219.796754,225.460544 217.882908,227.45343 218.773169,228.083922 C219.66343,228.714415 220.871948,233 220.871948,233 C220.871948,233 225.065205,226.091037 227.323113,225.015231 C229.581021,223.939426 232.484046,209.812866 232.484046,209.812866 C232.484046,209.812866 233.309795,201.484193 233.378607,196.109575 C233.44742,190.734957 233.202275,170.488652 235,170.488652 Z" id="路径" fill="#000000" fill-rule="nonzero" opacity="0.1"></path>
                <path d="M235,170.488652 C235,170.488652 232.901512,167.111328 231.706062,168.032817 C230.510612,168.954306 230.041892,165.26835 229.375364,165.881206 C228.708836,166.494063 226.687751,168.209179 225.866417,165.810662 C225.208489,163.905957 218.126092,151.869282 215.236371,147.01934 C214.49674,145.771582 214.032321,145 214.032321,145 C214.032321,145 205.947982,149.148905 204,147.764467 L204,150.683251 L205.646969,150.837567 L214.48384,167.724185 C214.48384,167.724185 217.257456,172.243449 217.063948,173.826294 C216.87044,175.409139 220.620197,182.313693 221.217922,182.772233 C221.815647,183.230773 228.257317,190.911318 228.257317,190.911318 C228.257317,190.911318 231.551255,207.493712 228.687335,212.101157 C227.181249,214.411085 225.349534,216.479355 223.251907,218.238539 C221.500595,219.730417 220.269184,221.765095 219.74296,224.036425 C219.641782,224.345531 219.606586,224.673324 219.639756,224.997595 C219.859065,225.438499 217.919684,227.45343 218.809821,228.083922 C219.699958,228.714415 220.904009,233 220.904009,233 C220.904009,233 225.096685,226.091037 227.354279,225.015231 C229.611874,223.939426 232.514496,209.812866 232.514496,209.812866 C232.514496,209.812866 233.33583,201.484193 233.404633,196.109575 C233.473436,190.734957 233.202525,170.488652 235,170.488652 Z" id="路径" fill="#F1D2D7" fill-rule="nonzero"></path>
                <path d="M214.753032,240 C214.753032,240 221.084562,241.049933 223.646603,242.634241 C226.208644,244.218549 214,240.143002 214,240.143002 L214.753032,240 Z" id="路径" fill="#000000" fill-rule="nonzero" opacity="0.1"></path>
                <path d="M229,257 C229,257 236.138166,262.508126 234.842859,267.491874 C233.547552,272.475623 230.276669,285 230.276669,285 L229,257 Z" id="路径" fill="#000000" fill-rule="nonzero" opacity="0.1"></path>
                <path d="M172,245 C172,245 162.409014,246.188476 163.028794,247.594417 C163.648575,249.000358 172,246.299737 172,246.299737 L172,245 Z" id="路径" fill="#000000" fill-rule="nonzero" opacity="0.1"></path>
                <path d="M241.956915,292.705334 C241.956915,292.705334 242.599108,293.368332 238.924846,292.705334 C235.250584,292.042337 237.966144,290 237.966144,290 L241.956915,292.705334 Z" id="路径" fill="#000000" fill-rule="nonzero" opacity="0.1"></path>
                <path d="M240,302.5 C240,302.5 235.046224,303.625 232.429729,302.5 C229.813235,301.375 240,302.5 240,302.5 Z" id="路径" fill="#000000" fill-rule="nonzero" opacity="0.1"></path>
                <path d="M232,344.29502 C232,344.29502 231.177296,343.208975 227.050852,345.204388 C222.924408,347.1998 221.274692,347.282942 220.077248,346.648983 C218.879804,346.015024 232,344.29502 232,344.29502 Z" id="路径" fill="#000000" fill-rule="nonzero" opacity="0.1"></path>
                <path d="M237,244 L231,252 C231,252 234.231788,244.995236 237,244 Z" id="路径" fill="#000000" fill-rule="nonzero" opacity="0.1"></path>
                <path d="M226,168 C226,168 225.73583,170.863014 221.745951,171.977169 C217.756073,173.091324 217,174 217,174" id="路径" fill="#000000" fill-rule="nonzero" opacity="0.1"></path>
                <path d="M216,148 C216,148 211.112146,151.672679 206,150.890783" id="路径" fill="#000000" fill-rule="nonzero" opacity="0.1"></path>
                <path d="M220,224.914872 C220,224.914872 221.472125,225.779142 225,222" id="路径" fill="#000000" fill-rule="nonzero" opacity="0.1"></path>
                <path d="M253.978238,182 C254.10582,181.241472 253.649618,180.532316 253.205014,179.939856 L252.327405,178.723519 C252.156793,178.473123 251.965117,178.243082 251.755219,178.036804 C251.237159,177.56553 250.548989,177.421903 250,177" id="路径" fill="#000000" fill-rule="nonzero" opacity="0.1"></path>
                <path d="M247.795857,21 L184.182789,21 C182.025027,20.987497 179.950681,21.8531961 178.416103,23.4069412 C176.881525,24.9606863 176.012424,27.075197 176,29.2852863 L176,93.7148692 C176.012424,95.9249585 176.881525,98.0394693 178.416103,99.5932144 C179.950681,101.146959 182.025027,102.012659 184.182789,102 L247.817211,102 C249.974973,102.012659 252.049319,101.146959 253.583897,99.5932144 C255.118475,98.0394693 255.987576,95.9249585 256,93.7148692 L256,29.2852863 C255.987595,27.0713802 255.115559,24.9535329 253.576352,23.3991576 C252.037145,21.8447822 249.957305,20.9816642 247.795857,21 Z" id="路径" fill="url(#linearGradient-3)" fill-rule="nonzero"></path>
                <rect id="矩形" fill="#414141" fill-rule="nonzero" x="177" y="21" width="79" height="81" rx="18.95"></rect>
            </g>
        </g>
    </g>
</svg>