<?xml version="1.0" encoding="UTF-8"?>
<svg width="232px" height="232px" viewBox="0 0 232 232" version="1.1" xmlns="http://www.w3.org/2000/svg" xmlns:xlink="http://www.w3.org/1999/xlink">
    <!-- Generator: Sketch 59 (86127) - https://sketch.com -->
    <title>编组 2</title>
    <desc>Created with Sketch.</desc>
    <g id="页面-1" stroke="none" stroke-width="1" fill="none" fill-rule="evenodd">
        <g id="画板" transform="translate(-504.000000, -274.000000)">
            <g id="编组-2" transform="translate(504.000000, 274.000000)">
                <rect id="矩形" fill="#C70D3A" x="0" y="0" width="232" height="232"></rect>
                <polygon id="矩形" fill="#FFFFFF" transform="translate(113.930620, 116.458648) rotate(-270.000000) translate(-113.930620, -116.458648) " points="12.0000236 116.5 63.1388077 28.0827044 165.000024 28 215.86124 116.5 164.86124 204.917296 63.0000236 204.917296"></polygon>
                <polygon id="矩形备份-3" fill="#C70D3A" transform="translate(113.500000, 116.500000) rotate(-270.000000) translate(-113.500000, -116.500000) " points="25.0000205 116.539034 69.4006373 33.0780683 157.840378 33 202 116.539034 157.719881 200 69.2801397 200"></polygon>
                <g id="编组" transform="translate(116.500000, 117.000000) rotate(-90.000000) translate(-116.500000, -117.000000) translate(71.000000, 69.000000)" fill="#FFFFFF">
                    <rect id="矩形" x="11" y="22" width="70" height="8"></rect>
                    <rect id="矩形备份-4" x="28" y="0" width="35" height="8"></rect>
                    <rect id="矩形备份-5" x="28" y="88" width="35" height="8"></rect>
                    <rect id="矩形备份-2" x="13" y="66" width="70" height="8"></rect>
                    <rect id="矩形备份" x="0" y="44" width="91" height="8"></rect>
                </g>
            </g>
        </g>
    </g>
</svg>